<mxfile host="65bd71144e">
    <diagram id="bj_Bv7fQZntlDlqPWxO6" name="ページ1">
        <mxGraphModel dx="871" dy="482" grid="1" gridSize="10" guides="1" tooltips="1" connect="1" arrows="1" fold="1" page="1" pageScale="1" pageWidth="827" pageHeight="1169" background="none" math="0" shadow="0">
            <root>
                <mxCell id="0"/>
                <mxCell id="1" parent="0"/>
                <mxCell id="2" value="" style="shape=image;verticalLabelPosition=bottom;labelBackgroundColor=default;verticalAlign=top;aspect=fixed;imageAspect=0;image=data:image/png,iVBORw0KGgoAAAANSUhEUgAAAOEAAADhCAMAAAAJbSJIAAAA51BMVEX///8utn3ssi7gHlo2xfDfDVTeAEkgwu8TsnTrsCP99ffrrAf++/Ww3sjT7eDV8Pux5PjyzIbqgZoAsHBXzPL75uv89eiJ2fX23bDeAEfeAEwSwO/fAFDfEVXssCb42uH0+/71+/jH7Pro9/3wqbn67NSg3/fk9Ox3yqN91fS45/m54s6d17vz0ZH99vjhL2Puu1Hxrr3zusf66tDvwGI+uoWEzqvG59e14Mtrxp1XwJHunrD447712KTlV3znaIjkTHTxyHnpdJDtkqf2zdaT1LVNvozttjz31d3005bvvVjtlarwxW94YbntAAALG0lEQVR4nO2cd1/iTBDHQ0+MHRSBUAQeFRuK7ez19Dzv/b+eJwktZbOZIVsIn/z+Zt18ndk+M4qSCKPOYblXymazpd5eu4Vrunp8fXeVSl3dXa+scvk2BuqUs4VCITtUoVArHYKb3twWVTU1kqqq1/MIuVaqjemyE8o9UNOV1IRuQnl1xPl7sWqValmCCoX10KY3fr4h476A7wbrkMhnM5Za9KYHRRKfpeJvId8OUs/rny7GNUrLXbIBR2a8E0YQohINMJuttQNb7lP4bO0KxAhWCCAFMRRwPhCpLjpCJDvqbjhg6lMwDUHr4YCmiE0/wwFT6oFgHp86gbOoU4UeoekxwITmjHojnMmtEgSQOBT3A5cJjxUlUDnUBvko0U9vYYApVe6yCOXLFrybVKgJJRsRbkKfEQ+ggCn1WArbUD04oGfF2AWb0JQkOkugiXTkpu5zxhFoIh2qKG8PjnFSj5vCnVSqm+5hCGstZ1MEYCp1K4kPvBiO3NQ5EFHDUOJAxABmXYfhVcQwNAeitP03YqLxTDU3KEJV1lTTwhGWHU1/4QhlXUxFIFxJCOeDEDkO40iIAYwnIWJbGlNC1J4mloRrC0+oLD4hZiDGkxDjpvEkxJwuYkrYhi/6MSVEGDGuhPC9aVwJKY+ji0KolIHzaXwJIc9rMScEIsaZUNmDjMVYEyrtQrgZ401ozjehZow7odLp+WKiFozQXPzXS7VCsLsuAKGpVnuv3CsFyHkjHFtCsBLChHD+lRAmhPOvhDAhnH8lhPwJO2uR1BFMuLu/uroKDmforPey1hkhkmrZ3mFLDOHq8Z1aVC0VU7cr4ZiH/tSXGVWolYKD9FkR7h6nVOefUoufv6h861lGeCPIbFDqEyPC30X/31HVlUC+NbZ8NmOJPCSZEB6p5L8SmFAEujFDq0bMfGJBeBv8N4rEaEbgxS4esUzoLDrh7hXtT6iEcMbQzJeZRUpFiEy4G9bElzPFD5CIGJUwDNCPCH1emRHRl2kZlfAK0Oja2QDxlDuTfIlPEQmvIc2LjjTUFlcL2mJKuAqLMFangbe8ptGpvH4ajRDabpIVBsvOiiZ3HHs0QnDjSRoDKgBvRhXK7AjhDUdGxAXCzozIjBARIz4KgYflSEYmbLMihCa9WQ2Hm3BU1sTs6rEixKRqDJd9IU7qcdMIhKhUjaLVAhUkGoWww4YQllzrbClmGHoGYgRCxDAcDUS+W1IH4TobQkgG+LSllWIrYjW0CRm9AWMaDldEYYSM3vFxWW+3CSEvQkySrCd3DUd4IHKmYZSdhyK0j8FSVgtAVROHisrMhNZqgUtXjkDYmfk7r2YntKpqiDlaeA8XqFXtembC4eFCxs5b+Y1wU/VoZsKh9VH5WTPLUxgDs392JzpjCEeZ/CIuMXzXGJitifv+GkM4vsYQ4aa+W2H4mu+5w8AfD83zk4ibKN8bFJjQUyoKQTj93/A3YoSL/aLnKhFBOL3Y5z8SC55RaAlwM2/J+4oEJ3TWROE9ndZIb8GwKkOqt2IEvDaR6xGR59NTQKkv2H2E10cRhJ7HJ66AJSKgohyEIhb9b/JQwitPu5YEQOpDtS1SnS8ooa8eSouXo1IAw6xIfI6Hjd4rUsEXPi9QxGf8qVYoH6wSy+1BCEnP+JYOAbk9SBUKwVFDQ+0HRRyod+S6O+GEqhoYNdQqswqIGvGFGHCoFVJYjJoKKiQcRqgWr2kliTplStYLEq9Q2GsBABW7VLLq/sjP4ELJdEJVvQ4NbWuXowfuWaF7ZVp1Xa9Wjz+H0XdWAN7dMe0jJ7/zq5i6BlbKbK21D9cj6LCNoRtr/+Zo5ddRaBDlSoB+3azOQ8HaRIkSJUqUKFGiROzUHNy/b5L1tkRtufXRtVreD/6gO91+eDzZiKLvnYtlSEdL3adK1TByAapsBTf92MzkDbupYVQrL/eUn3q0vHOp67oWVbr+dfJfSFfN54pRz1BUDfzs+3o15/xl3ag8wSy5/aprjTQbafrXA6WrrecKFY9C2DUM/4/r+adwOy6bfIzwbDX0dCBjN5QviHCrXyX/vF75CQF8YMtnS78k9/UU8JXhhAPKv8Z4OaUBvurM+UxpGmE4nvZzgV8ZQnhfobWoZyjT7xl7Aw6l+zx1KRPuoQGEP3l6k3ouEPGLFyABsQ8DJBB2qRa0ETMBjvqXH6CJ6HbUJ5CLkgj/hAKaiC9EwA2egCaic/3vQiYZMiHoX2OQZtQHLpPMVI2zaV9LISOJQvgGMz5pK8TXgqb0nUlfz1Af9RE2AT5qqf7kAzzhTpjWx31tAT+TQPgEnKAyee8Gbpmzj1rSvnGeRiCE/298Rvzmb8KJEU8RJvQQbsL/N96RKAIwrQ1H4jlhzwwkRBjfuHcBXghwUnM6/Wt39gwdSz7CP+BFxrcmcl4LxxquiYjP9BDeY6xfcRF+sToQhhBeWLMFfDH0EuKs33S0FDGTWtIezc4+MIZwE/YxLY2Bo+V/gggbr9iJxk2Isr5rquG9Y5sQnmEHk4sQtcxkcptOQjETTTr9ZXb2MzMhYjvrJdwRRZhGE+ZjSIjz0vwSE0Jh49Dy0gGK0LmqRSAUs6UxCa1bN8zGJJPpsyHcFrUenmBnxPobG0JFFKG99cas28Y5I8J/gnZt21Zn74gTgusMFIVQ1GRqd9ZEfKhzGEYiFLMxtYchyk2NLitC5VKEmw6dFLMzrSrMCEWsF6MDsCnoR3quPSMRKmf8jTi99h4Al8ScwpCQ/wGq4Xhkg10K5gcsCZVX3tOp81p/CWJE49nziREJlTRfP3VceZv6CN/Y1PveL4xKyHfrpr26ezsPQ6zXfa+AUQm5zqfaX29vIc+A9br/bSUyIcdDlB/QeoynfJ7RJ7zjRic0rchnLOr/CJ0pzUzgyl95IzVgQKhs83jobuiPpL5MbZJjKoz6gPhzFoSK8s063KShn20HANohQ96DRt3wvDiwJmQcMtSgB0WZjO/1/CTuq54zKi/ngb9lRGgyPn7pGoPAr4am6/8uqHy2mt23fr6Sz1dyL5sDWigiM0JT2zuvZ3pEpS+/AXhjnS5RQ5mYEw61HEVwOLDYE86bEsKEcP6VECaE86+EMCGcf0UgXN4OEI+91+yK8spN2T//eww+3gkWp3d88wyU/p4PW3KMVND0jXlg5BqLoQXetQgU52gT/Uy6GXnH0zQ02VMO/4ghPSybkLMExERJRhQR9aVLHYsiCJ2JL+IlJHJP/w7sn7/ExCbqEidUMYQa8RlJjATFl0o0oiDCcWDT4hKmtYUn1BHvLfEk1KQtGKIIG4Sog8UinOaCLi6hrM2pOEJZK6I4QllnqMUnRGZ2vTua4jK75J2DZ8/Ow8XsyduZzp5hiQu8lLZaRMiSxeXMfMkCVLpiMp29sbAC1cRkq7uLKmCqYmj0QDWuQnipOxkFNdXIvG9DpExVPBFycC9tBFTuEiJE5Q9voP8j/LZNopMiZtNK09MSnNrVkDeTWoIa0WdCePkWuSZUlE3YgkGqogQ0obTj71ggwGqX0BI2ncq8EB4KUikq568SZekEgCjbRy1R8zRs+fOJRroMHYq6vLtSh8KK7gWW3AsvuqfL26+5RM+ZyvUpEeOXVEfVN8RB0PVRDV4Wq+QxOBZlLDbc6XVytRRU+zSXJ82iTl1oAZ6qf0mfRV0akJKmcpVneuloWyeklJm5CKfx6LyfzzmdtW5U3mDVoJdPdDekpjfmj89S871vFcq2la8+n4fnpEz08KqNq13renpD2lNMuE7/DO5/fu7PP+C1vMfavth5/P5+fPhPeiRU3PQ/jYbJYIK594wAAAAASUVORK5CYII=;" vertex="1" parent="1">
                    <mxGeometry x="500" y="257.5" width="52.5" height="52.5" as="geometry"/>
                </mxCell>
                <mxCell id="9" style="edgeStyle=none;html=1;exitX=0.25;exitY=1;exitDx=0;exitDy=0;" edge="1" parent="1" source="3">
                    <mxGeometry relative="1" as="geometry">
                        <mxPoint x="325" y="380" as="targetPoint"/>
                    </mxGeometry>
                </mxCell>
                <mxCell id="12" value="④要約 API" style="edgeLabel;html=1;align=center;verticalAlign=middle;resizable=0;points=[];" vertex="1" connectable="0" parent="9">
                    <mxGeometry x="0.0223" y="-4" relative="1" as="geometry">
                        <mxPoint x="-13" y="-7" as="offset"/>
                    </mxGeometry>
                </mxCell>
                <mxCell id="18" style="edgeStyle=none;html=1;exitX=0.25;exitY=0;exitDx=0;exitDy=0;" edge="1" parent="1" source="3">
                    <mxGeometry relative="1" as="geometry">
                        <mxPoint x="325" y="210" as="targetPoint"/>
                    </mxGeometry>
                </mxCell>
                <mxCell id="20" value="②最新記事&lt;div&gt;ある？&lt;/div&gt;" style="edgeLabel;html=1;align=center;verticalAlign=middle;resizable=0;points=[];" vertex="1" connectable="0" parent="18">
                    <mxGeometry x="0.1214" y="-1" relative="1" as="geometry">
                        <mxPoint x="-36" y="7" as="offset"/>
                    </mxGeometry>
                </mxCell>
                <mxCell id="22" style="edgeStyle=none;html=1;entryX=0;entryY=0.5;entryDx=0;entryDy=0;" edge="1" parent="1" source="3" target="2">
                    <mxGeometry relative="1" as="geometry"/>
                </mxCell>
                <mxCell id="23" value="⑥マークダウン&lt;div&gt;通知&lt;/div&gt;" style="edgeLabel;html=1;align=center;verticalAlign=middle;resizable=0;points=[];" vertex="1" connectable="0" parent="22">
                    <mxGeometry x="-0.0454" y="-2" relative="1" as="geometry">
                        <mxPoint as="offset"/>
                    </mxGeometry>
                </mxCell>
                <mxCell id="3" value="" style="shape=image;verticalLabelPosition=bottom;labelBackgroundColor=default;verticalAlign=top;aspect=fixed;imageAspect=0;image=data:image/png,iVBORw0KGgoAAAANSUhEUgAAAOEAAADhCAMAAAAJbSJIAAAAtFBMVEX/////wQcCd73/vwAAcrsAdLz//PHw+PwZfsD/xBv/vAAAfsF1rNUAb7r/2HZIk8r/zUkAbbmAs9n/1XgAarj/xAv/6rSy0ug1hcP/8tL//vrl8fg7jsj7/v//78n/0V3/56yoyuTU5/ORu91eoNBwqNPG3e6awuD/4pr/9+T/35H/3Ij/yC//1Gz/0FT/9dv/46H/7L/K3+4AZbaxzOX/02VSmc1ooM/d7fb/7Lr/yzz/zkyexojtAAAIQ0lEQVR4nO2da1fiOhRA26blUejFAgpYQAR5ozzuyCD+//91CwpNUWjOSUpKb/aXWYtZOt2T9OR1TtA0hUKhUCgUCoVCoVAoFAqFQqFIENnNpjt4Hg57vXKvN3yurTZeVvYzCSLbHfT6pXrOMF3Hx9zh/+maRq750qt1W7IfkIfsYPhS8H1My7KMn/if+q5Ws1y7ydbMrspN13V+MzsV9TXXNye56udck8HuaOnkerfkWKs7EL1vx8Kz7OdmZZBzoXpfuCVP9rOz0CpWcX67djQGsh8/mmzTwfrtFJ2abIEoWnWTQ9An8YprTkHDMLuyHS7y7PIKGlYuyaNGNocOMlQj9mVrXOCZJ8ocqSa4n5YENKHfT0uyPc7icYeZL5IbbGpCOqlvWJRtco6yoDZMbjh9oV9Dy/HXTkhlJ6ndtE4ZuqXnrrfqFVAd1xnKVjlDIWhA43vy1SpjFBM7JAZ90gq62RChmNjx4uji0tPnF/ggadWlOVym+usDbuDhxsoldAPuYGj2Qh8jZjqFhBuerPH6qTcswrtp4g3Dm2aIUJN0Q+sv/Wk2BxZMvKHh0LuCmEVj4g2tdfChB/e7AUPDOU67vAJmVZx8Q8Op749avB54d/9WDA3LLZTWTQu5Jr4FQ2N/PIjzuxlDDpShLJShMlSG8vnXZOVWDftFVqKWG4Fh++GUZTsjU5KResRcIDB8tckptq0/jcYyH58BdsMK0X/B93xqyxSIhNdwL/mU5N4qwHDn+CDT4TJCDH3HiUyJiwgy1O2pTItLiDLU7ZFMjQsIM9TJMo7na2U5aQk0vBcbUbt/yutmPcfNZT+IoU7ehdm1ai+mey6hWTAAQ90WNPRvigZLRrMEQzIT4ef1o9cDsgx1EQP/s3FVP6jhHa9fds2fcRinoU4430SPNyk2fsNXPkERGZXxGuqEZ0wUkjIauyFPrGlev4siDN/wgj1B6YbxGuo2WrArpQURhuhoKibpN35Dgl0nDq4+EH5BJVUxGm6Rhk1JTUhl7rEZ6jpuvOiK26aHQaVBv7IZkgbKsC8pztApR0+MhguUoaQ+6rdhkI8zYzRETdxWcsbC0Gv4yOS3CzWPCENRqfdgqMy/uc2oiAo10iJpPThbWzCGUt2ewwUxGXdCqFKFpG+shqQDN+xKeg1NKilOYxVEzWowSfYCCBXMdNgNEZuKf6W8hpZB18vcsRvCd9wi96XjEXRW1DM0mAV9wIZZGZ3UChfmMU5o9tjg4ULGusJphq4caEOaED5cXD/QWE4vnGTCOGP7NgQvghE1BHx+1dJJTd4IIojYjbrq8t5yzPVpzWGDecL2ZdiBGgp4bDZMxy2Uhj/u/MjkQU2IMORb/ZpO1ao3S9Gs/5aHq9+KYpnnawdD6ApxwxFKTdco1rwWV24aZKDAGeIHC9Por6J/v2hBuCG28ty0ivzX6GTggnDDPzhD90XANUFj0EB4MOwA/xXUgH8scOaiQxCCcEPMFoYj4p6n+SdsHDwafsRv6PT5M3vHFVQD6ohZG3zS5vIX0S/fsX6+ITSnFmzocF3X8fg477wSvJ9vCN1OhPZS8+WXXzJujyrvb3fRbPPE5tHzuYf+pwINreaPd3A+utN/Jmmfg8tOx5w+DWGGzmkUbX8KeGyI4T9QQ9iI756Mg42tfU09HZMuDJq10XW/PpnKtf0wC+AByHBD/+gcM+niBTxYaF3A2iJ8r1P7qu/fN4hE2ixgBWzSYeYBN+niNURk1LDH0tAVCqAdQIGGFbgh+5a3S50VjXVJhoiEdvY7VwrUT8kIMntDxPFhj7WbmuXgh5gPNEUL5uGC7AOiE3TSzL0sQ0zqnsc6XJjBXiBsl1qkISbZJFuIlttBnbo/ynoLUaf4mrZmCzXUjA24Dy8OAl467WFcP1nB0n4irZPiqvQYZ6ZUKEXscgoyxFUFM14ORBlKi6TY0ie2WQ1lKK0JcYmJrLMaylBSoCFPSEHGMT8BhujafO82DG1caukephdRtiG+j2qMpzOSDXGJpQeYpqZyDcmMrwyYJR9DqiHZctY51xgaUaIhsd95uugOluw9eYZEF1AeyxBrZBkSUhFRid+Krj6UYkhsfSroDp7oLx25puHxpOr1g/cFDIhM2IcY5rmZbd+mH6gF/Vk8cYb+4JzhRFzLUUT1U4Ahd918TETc/Z8CQ614sRXTYKiVLymmwtB/F8/Hm3QYal7p7NUtKTHUtMHa/F0yNYaatumtjer+62BDVIMj7ls33OGtBrVTghz7qDlN/h9mJDpeInLWxpwhdR/L5IUfYTNvZSgNZagMlaF80IanqahpMyT65/vnPS2ZLkOiL3a7gpkHqhovVYbBwcNjUI+XJkOSp7Z1twfFVBnSOYXHfJwUGZ7chHBoxDQZhpdJoxQahpOZFik0DN+5kkbDcJpBJX2Guh46I0v8aIGp3qVz7I+5jaik5muAydyjyneXwZxGyAXWMQC9BmGPfQinVBZ8Yvcdp6jkRJIfNcaNxYx6iwXeJC+WD2QVNrHtcAUp+jrSuMmgBH9zTuq3VmjvgnJobWxKbOwsxRiK/s4KkYgpuOBKqIyZpZDttni+WUUQnwIaMbHj/Z6MgPpDO8lNKCLYcH7TQfzwliAmdsYWsOCKNuQtoQsnmg98uTpJ7teMhcBeOUDsWWInM6eM4CGVELJNdhANk5neQ/qqv7yYVW6m/b7JdO6Y7p3ZfbEouZs0biDA/CTzMJ2dv2Dn+2/y74v2TdodeGwsJ0/bvE5C1w3ZRM9v315Hy/lNy1FkxvPGx2IymU4nk9Gis5zPx8ldICkUCoVCoVAoFAqFQqFQKBSK/y3/AaZe6AZlXxYkAAAAAElFTkSuQmCC;" vertex="1" parent="1">
                    <mxGeometry x="310" y="252.5" width="60" height="60" as="geometry"/>
                </mxCell>
                <mxCell id="10" style="edgeStyle=none;html=1;exitX=0.75;exitY=0;exitDx=0;exitDy=0;" edge="1" parent="1" source="4">
                    <mxGeometry relative="1" as="geometry">
                        <mxPoint x="351" y="320" as="targetPoint"/>
                    </mxGeometry>
                </mxCell>
                <mxCell id="13" value="⑤要約&lt;div&gt;レスポンス&lt;/div&gt;" style="edgeLabel;html=1;align=center;verticalAlign=middle;resizable=0;points=[];" vertex="1" connectable="0" parent="10">
                    <mxGeometry x="-0.2861" y="-3" relative="1" as="geometry">
                        <mxPoint x="16" y="-15" as="offset"/>
                    </mxGeometry>
                </mxCell>
                <mxCell id="4" value="" style="shape=image;verticalLabelPosition=bottom;labelBackgroundColor=default;verticalAlign=top;aspect=fixed;imageAspect=0;image=data:image/png,iVBORw0KGgoAAAANSUhEUgAAAOEAAADhCAMAAAAJbSJIAAAAaVBMVEX///9UbnpJZnNNaXW8xcmYpq1OaXZTbnpRa3hFY3D5+vpCYW9geINKZ3Py9PVac3/T2dzt8PGhrrRug43b4OLi5uiGl5+0vsN2ipNqgIqLm6Po6+1/kZqbqa/Q1tledoKptbqxvMHGzdEoCc/HAAASA0lEQVR4nO1daXeqSBCNDfYCyCJq3Bf+/48cUBOp6uoNjMmb4/00Z16QvvRSe/XHxxtvvPHGG2+88cYbb7zxxp9HdYznq/WmmBRFVu+nl2aR/PaQnodkcV6JVDEeSSkmQkgpOWMqzabx7rfH9gQkzfbUkpsQaHmqzaH87RGOw2JaKC4peg+W2fzfncmmVpGw0Psima7/zYlsNso2e4CkqpvfHm4wytqb343jPzaP+Z6F8LtyZKv8t4ftj1hFgfw6cBX/9sA9Ue3VAH4d1P6fmMZSDJnAGyLxD+zGS9AJgyHV5bcJuDBVbglog1Db36Zgx5oZx97poirtoBizKDps/dskLEhqmqCIWCpW57hcVnlS7RbN5zZLW3WOnu4/TDHZkBo2Z8WqqbS/Lueb1togH6ivllVyw8tpmJGsKYKc7xvTKJfzjDyXovV0VWeFkExerclzs/wTYmRPLFGuplbLIWk2KcFRRlx2/7tdxq0x2e5gVtQHYh28FlOdoFRb96iazHw69X+Ls6i+/Kah9akrMqxe+D0qyf1LsGTpJv6t9brQJkKys+/D1cpbS5BMTJc/yMOIZILHyAu/CeyQTz0n8fbLs9UvcFzhIc7W3sd8Mg81RSK1f/Wp0+BNyPx1r8924YUR7OaRnV8qKPMCrVE29X20rAeaWiw7/iQlhClaZd4zWIX7Ar4hlfdnHI1Figiu/J5L5ulwU7J7T/aqE6eG88A9Nee4mI3hN+lEx2tcdEc4hbLwOucWDmfcVWGT0rGI1fmHyV2BplD5OCKqlW0DdnGNiE+yut5kk4jbzMlXbMYj1GbY3P1IclZGES8jVawPzeJ7ISS7Mt5uJDNsWeW56UdgDwYrM/cTra5tkoCRyqYlpXnu4hWnpz1A9A7DEk6he40ua+MCjdTW8nge09akv/AdgOUncsxErg+abyl78DZSOXfZDSUpP5XHxhiE5fmUztALud2ASy7cJAEjN78Oi5pY4elPOMvzuGb69+T2KWw2JmNXpltf4zYW+inFni768/mE3EypbZi7tWkDCpYF+LpzPWogs+fq4fnBoG1JizaTT1OThGBF4Cq7aJ/qqQdqcpamtabM6v6nMD0UzQ7BE1AKTFE9T387mh1HojANtaTOhytkuh+yh3bYXhPiSes0mVq0SX6gH6r2pofEYCuvOqE17zjkfFEWNs8fLe0tTopoMjzSVJ2w1e3vFzLj02qvioISaPHJuEDZdIxncIkncT/ix+7Y2l23kniFWUWT6XqkEDtiw3tsdNUUWHq84aw9E5tVtNP4w+8MB2STVT7IM5fHgWmHBv7K3+DiKa6yNRySl2VqROUkOIk0hUZzE98/tkc4wyuqtoRjGrUT6RlERwh+KCaXtVQb16lXzTMhCnvU6gq0TtPhfuKEJMhFn6Ju+66oh2aFawO24qXzWsgodU81FBnRcDNqTYyV83nT/4T6Rq/1Rdo+5Fp+PfHChUteQme7j4OBBhUa7D4wcNFEmsNEYyjTlWvllVC8sI1jxjPwjqECQw8NipszFswh15wJiKFgG9cAqhXW76RaWz8K3OsmvdGBpW6O3R1q4OcjjeGmP9rWtvh0vCiZU8nEXNlUnwRMotwMEkKZttjEXfIFMOTs4FLR2g2o8+tg/TZz8FHYkDD4Ab+XF18/482wXWsuFW1hdsFZ1/cShAbYAI9NiRVn/oh9+jLkThtptzLqd7dPlO5NswP2gtPX5/oBSNCXYeTa/8k8coa5I2bwxYFlKk/BBPE5yje9f/Rk6IoQGTcghMGdU4IRpqFHTYLeDZ1aT2G42KANGGEn7PfL6fQVoN4Ha99zyFAIsBuewFDbgJKtzDlEklLkwD4KPWpy7CmAYx3NMJljH7iqy86dZ3aNR5rdBWLsPFA1Rbo7joGMZdhgtw+L7lNQWcIb2Hb+tOuOVkCFYSIL9O/jGC5wyQnnPc+pWT5KVQPhCrRjWQcxRGkyml47huEOz5JUSC03H7GtCd2THECrDDQv9tD60qTpcIbJXFIbEP3RmS56m0C7qgKHqQwhWMEp1L0UdoaJmWEzwRuQPgO9fMkJYBiFMLwAlU+fo6EM2w0INUGLXWyLB9x13QRMRBBDqLAxXRI5GGYkw90Wzwuz2sWx0c8eza72CtRKQhjm4NtQjqwBDPUNOOEOpS4/GDM3rorc8DkEFjypDvkyfFgWMRVkEy7T2BZbrXdwJjSPnwVTp9IeyrCs6YoadwTqaI6PK6DTBEkLsA1JbSiMoSUPSiqj+feFizEZHKz6ENd+BT63orT6IIZza746d/o6LXkq/VEEmMAgN90QOfNnGOPQ+GyCxABznTi2XKPHr5z9GYLh0yEBX4blAmcCt1OWf2IxoNYud7+7NiMkHxN4B+g15MlQ1qi+6e4Zzg9o3XG2dTjkLIrc/SsFRIK3/R2sR84CGKIQlHxkzyzXUPoLLl1+fN1pDBkGeDGA2s1JZ6AvQ4AZcLdo684tOWx+R7lxPNwH9MmTUSAXQ0L48RlSQTV7XrOiiPca7SpCeTYCzIAhU8bOMNcZkqEZzVXjlhzGHPiQgyY59cZn0BQcDE+IoTS5rkvsbmMT10h3ZB6mIMwDI/Li2QxnlvS1VnKAPxZuyXEklmpQskJe9J+kN3AIw4hZY6P5lOET15Vtk2z1chu/OoEvhs+cQ0vc4QvLNd6OzoypWFupUcAkgpNmJEPjBoRo8LpjheOxZYEPHJ9SgTuSzeiz9IuhOLkMwK93ntF4nZIjx+XjQvlnWq3HysPvdU4rRCRKLVgZ2VMbtALyAIdpv2hSDNFpHgz9oyVL/Xxk9vSUpEYU/SMXwMQfopc+iWG78KwV01g5FBPfjMdL/2W02eVi+PXwOIZXyWGRAhXS7L0Pm2Nf2tCm86sYOiQH3rzKcxKXHAhEar/7MvS32R4MNclhsTku8G/1zB4aSV/k0zUbz2f4cJ3szsixalMa0IEaeU4iEBczapX8JMNKd46bnf8owuLrrJkDPySlDsX9wIbGsBrDUHRHywKX8RlrT+A69S2hQUkOxGkGSpy11T+K4V3FwN4qo+SAMRZLaQsA+IDUzMOtylFx1vg5/Oi8Vcj1JNWUmiAYgvCNdQNPjcAh7g4wVSOSQBI9Yw4/dG9Ve6pSwhEFyvzOGpjZSDkIcO4w0LCq7/87iqGe0BBR2wxOoqfqlsPtS6m0FToL+il632GBIQyhKXuGEQFSa4E7xjOpHXYsIb08CbbNH2mWo+YQGeu7bX8opDEHM2OY3/tQFjXtytBs86900GcyRIZASvxiNST7C6ntzKAbNifY/uFeEjpuleKjAkQJyW0GNZSz3wtxTpRBw0/OET7SW9t83ByGMwSJFb5eN5TXZu7pQXh1z7vv8fg7FsYwBJlD4uQZwEANnEzrtEWpa1gDGJYjGEIvPe2V0JGjwLvN1PvEMc8XM4Q1Or6KG04wlcJibOdTOrg3gKEec/ZgCE4Ny3JDo0blW3a1XZMcL2V4tBpzRuACtHtjShMaonHQqxiCulnun2iKq5e4oxObnvQU4Kc5jmFY9V8aEKRZ4iwfvrEr7ju9eMm3YjT+Og7FaQBDYMyFFAihw6Zd4oVj2ZW4ftvh1b2jl7U/iOEHDLUERPS16kPpNE4+BVZyatdm3O17p9R4ht4iv0PVDyXeoLaO5zXJIa0laF3dWp/CMxiGFPuvdRHAndXmizXawJGlBC3GyvtrGVaUriKZM+bZoFRLYxsaLY4/EdlL92GDj5r7nKTOvkdYcvjlYgxlOPgsxer3A7bcg/voNa8ujgfSdWv6DPjIQ1BaHlJ4gQv0ej/jbhVcZiifANa8GLK4BzEExZZUlw4TEluH0dbWdaU/WCSHtgG/M+GGMISF1yGJpvYeqly5NJZ8OkMc06vk0MtmolqMYAiyKUNKvAwHTe992RDJkc8jrWxm8aWXDmIIPNgh+V9nF8NuO7o0Fl1yTBA/xuOH5j2EYQ7DgUMTTU0c3T0s7LW+/LaqxjCEkSQybdsAqNEYa62ii2M7WnJf5VfZzBiGB1A9EZJoCpym/GAcprOHRXt00oeW+k6ZGsMQ9DkJSTT9AINJc3MBi2T2HhYfnbeK+DLiMd4RDOEiDeowDNZlVw1urrXiqas3RINXOQxdN8MZwk6xaYhlAQ4a1r05n5t63tp7WLQSEFe/o8S14Qwrd6AsgCEyVwFsPSywIi4U/ttvhpre7GIIu6Yzz1xBguF3tv9xY2mFSG7HJsIpMhNtoIMZ7lDbr6COUWCyeutbq3n5RqR0u0proE/mjjwY4n9xMIShzsCuX+AU7qdv5lNT6aPAaSHVFqvYdEOloQxR4ldgr0/gMIXhAC2L4MGA9XuWYRXUuFmHMoTNPkNb0q5sv23rYfFlVzVa3ZrRch7IELXq8o5Z3AFLvLTKmAvRufgGPuvsKq1wtN2ARmE1jCG+QEQE9tQEkQtC37O16M6a7cxrA45huBPI/xzamA6qQ4r4C0sPC6QauLL2hzDUKshmwV14PJIctEICGk7X1RCGOF1/wGWf0Ligl0ByntnMv9ujM6f78RCFMhyTrP8NYAIbDa/KqMjdH3SXzRwzbnyLgaFGUAzpLAiDpDOjw8Lcw8KrbGbXCyD7MtzhltCT2ZDGgjvYlsFyUsWmZAW37ximWXoyPGqdywe2vwQuYWkLW7XjJOwqY6+1B2LYz4VgCMo/bgzn+hEeUBTUB/CAOM6qnabIeTRMKLGhoh8XIHXvasEvCHVq6KXJUK91LQRoV3lswEoPzegMgfHAjq0uT6jEw68rgTLVqbl/Pjxy7nsPkjPX5YzOcA3dvWQPCt+bpgiAtH2P5oSdXSW7+VPOew+0jmZX6Ina4CML7E6+PTTilguYu+lTz7CbnsQkm7tMbdO9VpqrLIH/Tp3YkRZzDAF0ZE0inxPL3ZKb3EsdtM5wHztuFLV3cDLB3Rslavv1jEuJk7PR7kr19u4uvXfcDH5oyQohTVIMMCvrkrj7xxUeYvZkNA/gCjj9K4eBzvG78iMDWXurzvuUe2bQTvTbiiZo1fcP0PodjJzpHyXIPWoAvg5XnobfPhzmh+xQ2uLQIdfW2rBFk8hPA8+uo/FiOWm8IxbfAwoecuVn+SJB3pCJFENm0RoPMG3uxLxIgy7DckC7EleK4B9PDoSKdgO3xHSOpkXKnnMVyBe0e2ZkqGPSFpezJfYRiXW3h5yN3sNAtEVS+4BXlLjpbO9TWWOrO+o2F8kmT+b3QdaSc+FrkWnZMw+44uP4kOsyb1j9+RO3Osf6xxRMbx5LINfTv78QcUeOA77ZqTVZsvlzBISOObHl2yXm4tjyM6torh5teArZ+vKTNx0T15V0IimLzcNMypXxXjKPXCMs7Z9/myMCfXGXZHwVU4dFfpxmRn7CnS/2gR0Mz7h8zIGVQTZFTG62cbn73lPVojmsCxUZdWZ3zl8HdL9GQLObwZgadcTuLmYeiWyz2WQTHtnuYvbK2+yA1ugQn304LmbX9m0Ut/u0rX8kiP7dFCp0leO4m8e80ZhXnie8rx5FYYnXTGGLpbGtrxd46rzX6o4VNrx/+iB9wGzCOuFRx/B4C3z0Ry+oxiiHTqMy2kgaMEEZkjQ6Hs52sBQEk/4OB030PvFKXD9UZl3FgEj5mwP6nZkBRZNPw3JlNGgp8ICrVRcF/mVpvG74R7GcCv8zR3rJ+CvO+q/OfsqccCGP69SXpLsR8g0L4lZX9QyP4VBUlzqyamgP+OjadGhw2MV/z0PVHOqCtZool7fRCSk5pfpItWms+2lJZjyynzcpPJAvm/N0X2dFy04U2Xp1oG737KzJuUk1SZo9KYNGxD5/AMkN1//EjSnvHCO+mesqdNWsCkZG0fiwmxtfgjWt+QjJVZptL025q/K8WpbxeS9SU348+1MziLE3K3edOanSDkoxS83Q39iDZpgNZj8I9Up1exAu1lb/LkgV6Ff/DZTGcjA3oslrjPqRyE3eKyeCoga/iniApdU54wYmcf0GklUwR8lW/8oE3rAw1mbQ/DydcX8KTW28Xkzn5yzX/Jso96mHCSKi1N+X8+ewm2d2O6tV54rpb9m6T0J52CgDS85Utj3+XS3bH7t4mqWqi2u0dpbobMmoJZeK1Xn5f6B3R7JoLq01eSqKyWmzXs3jclRu4RtvvPHGG2+88cYbb7zxxmvwH/4VAR9K5tTEAAAAAElFTkSuQmCC;" vertex="1" parent="1">
                    <mxGeometry x="310" y="390" width="55" height="55" as="geometry"/>
                </mxCell>
                <mxCell id="6" style="edgeStyle=none;html=1;entryX=0;entryY=0.5;entryDx=0;entryDy=0;" edge="1" parent="1" source="5" target="3">
                    <mxGeometry relative="1" as="geometry"/>
                </mxCell>
                <mxCell id="7" value="① actions&lt;div&gt;朝9時実行&amp;nbsp;&lt;/div&gt;" style="edgeLabel;html=1;align=center;verticalAlign=middle;resizable=0;points=[];" vertex="1" connectable="0" parent="6">
                    <mxGeometry x="-0.0626" y="-1" relative="1" as="geometry">
                        <mxPoint as="offset"/>
                    </mxGeometry>
                </mxCell>
                <mxCell id="5" value="" style="dashed=0;outlineConnect=0;html=1;align=center;labelPosition=center;verticalLabelPosition=bottom;verticalAlign=top;shape=mxgraph.weblogos.github" vertex="1" parent="1">
                    <mxGeometry x="150" y="245" width="75" height="75" as="geometry"/>
                </mxCell>
                <mxCell id="19" style="edgeStyle=none;html=1;exitX=0.75;exitY=1;exitDx=0;exitDy=0;" edge="1" parent="1" source="14">
                    <mxGeometry relative="1" as="geometry">
                        <mxPoint x="353" y="250" as="targetPoint"/>
                    </mxGeometry>
                </mxCell>
                <mxCell id="21" value="③記事の内容" style="edgeLabel;html=1;align=center;verticalAlign=middle;resizable=0;points=[];" vertex="1" connectable="0" parent="19">
                    <mxGeometry x="-0.3744" y="-3" relative="1" as="geometry">
                        <mxPoint x="40" y="4" as="offset"/>
                    </mxGeometry>
                </mxCell>
                <mxCell id="14" value="" style="shape=image;verticalLabelPosition=bottom;labelBackgroundColor=default;verticalAlign=top;aspect=fixed;imageAspect=0;image=data:image/png,iVBORw0KGgoAAAANSUhEUgAAAOEAAADhCAMAAAAJbSJIAAAAYFBMVEX///9yutxrt9t5vd1pttpuuduDweCWyuTB3u76/f5pt9p2vN3l8vjr9frz+fze7vaezuam0uiMxuKz2OvW6vS73O3K5PGQyOPJ4/Gv1uqj0efZ6/XA3u6azeWIw+Fgs9nvUgTSAAASd0lEQVR4nO1d63qrKhCNCKbiLYnmYpqm7/+WRxBlQECMpO0+n2v/2U2MsmRuDAPsdhs2bNiwYcOGDRs2bNiwYcOGDRs2LEWRN4/6yNCem7z87eaERdHUpzhCGCHCQLv/Rc+2+u1mBUJ5uUeIUhLpoDSr099u3VqkeZ3ggRwhCGPehbjrSv4Roud/mmPeJp00cnIIk+e+fTRV3qH6fBxPEeYkcfLPymp5fqKeHsLZ4TyxLOXlC1FGnt5+pX1r0ewJp9dJ5POcWy4qj7wfcf2jTQuB9JHxphNErhennhVP1o348VMtC4PiSGhvKk+3ead3ZF2N/oQuph08LqsOXLsinLU24VRxZhTj37OoRXV5tIf9M0niDkmS7A/H86UqLJdXV8TFEz/d0gnRdm+E/ooqVrd70kUflIcho5vu/t99RElyeHzqJPJnr350v0jqTt2P8A8HcWXTeTKMpmEIAHPfSXuRLav2nB8iR1sP256Gu05sA1NwIT+fCHaSAzQxPdVc3/JDzy9rF/LrUDNVDM7DgqpNkLvvpn2JkrpquSBTUr8ibWX3W9oE52JA+khEGLIQtH8p+PiiNt1JRO5huZiQf+GX6I1IXrYWVaeJcUguJjRPX92zgixwESrSuPv1cv1dgluymh8DTm6vcdyTCL9TES8JDkCPg8Yfr7Sgs6bofcFpNcOvG7HC/kXE3ds0fqEzGhyRd3nE4uvb2d4oPh3qL0kqOR/3Sewkia9+ESlATiNyeAe9Lu519whpuH38GI0s2bO/09rZ7YS2C9UxJ+LOoZEn1NXSCF/663SGu92X+4c0+VzUkDJ6D8PakABT2nkUF04Z7tyC2kU6R9tTTXgPw2LOgpLncKmBYaEwNNBF8QJtfAvDm0EDCcngX2OMYmC4u0E53WeGcIj62/93MDxOO5DQwwX8OSjhzsxwd5AUyaE8x9Mb4oOvwcmDB6blaWIpCP7KWWwxShmw3kaGKehvetultylHlHiGYjkK7A/zTJdQgvddYx6gjTB1YmS4+wRXU0blI9JllVC/0X7n8dE5IMFmojT0xFpSwE9gZGJm2OfJxOcn/kk9UW4g6w48UNC49KZLE436tDOQUTXCsDBkQ4KRSW9Wii/95tinb1oSocWBkBWPSRvuvdG8gC+IYiMsDJlwyV8Iy9tkmoojDwVj7zZYLkoPuEgkxCMFAobVuQQbQ6XXv8Rn6UF7Ap6lmCZdwBuEXYdWf/x+6K2pVo2wMoR+XypSoxkyPBffFCicOzzrPTh65RwIl55ltzLs02TiqzEEmjijuV4MaEo1HSSxpHKV753qztfOcAecIhRtLaCYmV5qaUSXheo2XFQ3QU9Su6EHmaRMHAyhYc5S8+fR3PTSqTOlQWYuKk09oEd4gmhmIlMOhrsEvDHYU5UajrvcXYoDGRro0HUidk/B4GIIPQaFvyzUAZbD3zE1DDI1oz5RlRvQE4aHuRjC3qeK0SzVB8ZWh3cnEQ4xg7hXlFD1eBdbR/RwMrwY3H6P8gQpkqutZd1V5HVeI1Q/8a0aZ2ARTSGIk6Gj/9MnpGjzGRWW4cIKVGoPqqYN6pIpenIzbKj116kiqN9ma9MFpX7xuRMwSJ5Gw1ZVEnAz3IF7U+3OpRLeEKMqxrYvFuEAu5BotkTpX9OzZhjewO/1CZYSvlqjKn6iEEJ6Uf1vogI2IksMiO2/5YAktK+eMPNjTN3cQwhpGWLaJQwmaY2yewXZaiE9/BmGUzntwrv1Sahp1uL3MBHIzsqtLxhK/kwXMqhtq0LEpJO0xa9Ciyg6O7N6aPiHzAwHgsaG1dLgtQOno3ua6MehpPFqtN7OlH9KRhmIHEel3Z94bRrx+MeEVImLHsgx5PCEMgtGplCfbcHSa4wXyW/HXmPRMl6boIFaaAodvmx5boibOy7lAAyoKQhrQVZuCEM/KMzQvYYSjvwMVhl+by8tm4m8OeZeFZyqwsKcJpa3sQRn0IWmQlzH2A7Ah+EF3Gma6dkpblkMlC8BvD0cFhqnZIEd0hPdAD4MU2CzjboF2vLd92HMJx7XQZk6MV3wdAuxgA9DeCtzUfNj6GUR1jxC1OvBRLapCwsQkzviXy+GNRBTo+zJTuzVIfKdXXRA8fYm3bjM9XEPL4ZwStgciIlJDpHpYCZidReeZReZC6mhGjo8rxfD0jgPpVzR36a3eGU0mcR7ATDPZ6wZgBc4InwvhjuQHbUUpvORuGB/DOAL4YSZuWWz9k/Aj2E7a5fZYFDcIQ9S2w2F1HgzaGqx40Z+DC9zWs9lRnj7LkBYHZEq9jszPhG8Aqfr9WNYAGNKzQOGMxKOhJml9ckLMNdkGYPBaXjXTLQfQ5gatQRjBRaBVRyFSJKCSUrLDCuwfs4iZD+G0NTYXtiz1xY2iRJgIRDIIZp9HXSXzuktT4bzpmbXP4UvIVk/Y5hKV2ARiArOqbneqCfD20yYP4KNQwIsyCuAkJq1wrtFngyV+Q9HzR7L34Yo8gLDGYvIt34RjTdDOI3ukHq+fiRE+QyIyCye4OppSn0Z7tR6TBvYaD/IChlp2WzNB9bdnZX1ZWiry1CQY2OtwAsAUaL5faZAqNzJBF+GXkkf9l6DLOMChgabRUJRG2fS0pdhCwJhm2KzYWSQygslSjTbyQpmVpx64csQGufE/NC8u5VYqZCuNKcy5rR5Xzhkdc9R+jJs5mPvp3SF9cp0/l0aGsudPN64gC9DGEKYPRSTUdT3XYFXegxpSm12ElRORu6xqC/DAjI0aTaLCYZFAFe6MpMofZPNTnqEkQK+DGcDXWZHxUCuC0jsdWBekIvubHby4GPbOXwZgoca02h3Ga6xNI0rspsHSFDY7KS1NH8Cb4YwlJ8yZIYI3eXDzbkjXwCVMI/v1cyRO8bwZghnSSbLZbn/FXaU+7J1M4c5XP5iRgRhuaZH5nshvGM2fDjUkrNuE9rZrwtYN76Azu53QcXglI3rh7K3fQCGzV9hSISr5ZlEYbJFfmXdtMyfYRj1ysbDfGHzhoB43QL1v8JwcBpMLr/F/wcT979gONQFn4GjGKuV/w8MB8VjmRkigjRp5f8HDInwfgVzN0PgIV3P/4ChsDJ8yDQoJFg+vM6W/gV/OJBiFS9D/ThcLbTOH/6BmCYS7v0Dy4VtRQZuto4hiEttyd43xKUwezfEpTxPDHIIj/Fm6+JSOPlpCeG906X+DOFEt+hBbmUQmBmSw1K6Lmn6y+NDMgxvuZWBWQYwaFvHcF7c74Chu+GvjA9F679A3qKHTBuvHOODPI3F7YACmOBZDCJyGDWwMgLyqSvzNCDXZllR9QCZqDC5ttGAD36CD3TVTCV4CytzbefZVsGgwC0wvgwHJzzoHV+0qm0cITOOM+ZtFpdZd+E73efPUEzoDeF2CbtTu8ahPb6A8xbmDspNZbtG+DLs5WYwLGlmmsyWk36eu4LYIdtvMaYl6EJ3eOHLkOs+Gi5htg5N5tfBDNzaOURgTC0RC8yMOSXGlyF7JHkKnTiAEZMEeK2rp9ikONh8Aagocu9/48swlgMmPtNGpgZMKv/6kig4j2++Arp8Z/mOJ8Myi8jgGnjNczaVQzlZsn4bQWhqzAVD3g7Rk2FOSCw4cUtODKZE6s76aVJQT2MphlRqpAMwbPCwHIbf2TRzAdTQVSroCRBZm5V6djJsgCfDergJ9/TGrTDkS50JFL0AhtOWLRvcEykSngyHTa55PtS8+l6+9RDbtYBKBMvtYHWIy5j66qF4LveKxpAMlH+sXtDFALyBOYz3LYryHj0x8O0wkPk6oPlBCk5AgSwxvjE4k+/amWIJQ06QWi77mh3wLAOo8zYLoWJqHDHUAoZ8K4xpKCO+BA4szHEIQM/M4wu/QrQFDAVBi+sBQhXoNARwR/PqFDjR7ahu8WbYE7QONkH1RKBdEkFthHltAyxlz+z38WWYJpygTd7BQrnVIycBmBY2Cj68wFE34Mmw70F7eRVI0Ibafw5ugGOMIdL58noGP4Y9QfsqRpBTmJYxvIZKmbv4NjkMv4oTL4a9iBqGEwPgQrpAp66AW9oa51fq7bXCshdRe6QCSiHX5qDGW/IJAyCGhjEUrDG1r2HxYDhLEL5vl+9dgi7KRXU7k/aFi0it0zPza7nLXgddBfrArgfY94qh4AXjyq4YLy7Ht67Hxych2DxUG61omcysxw/kKtgCv+Nb91TAQ1/w7fVGR1/O7BYTaiPPVJTGvW9fjHFb0oJAR5/ObYdjSm68ggcVL+tde5uMQ9yKN3s4g2WeYKhDELJB3sv3MMSD02745MQQbM8SXDsvOoKZLhGKvmWPITIkyXlWbRzwzumg38bJXtiDXdCewY2NdHwPhWAxvyVViD0g+aMIqJwNvtcXHXeT5xsvS5NjOiRBRYAdEns8EByCBd6vTe4fzct/RpOTzxMMsLpZ4KksNk6DMhy7LD0x4RjzopXHb4Od6sTOGoAxmrpvYva0bns4+c6wb+LAqN/XkgxiJ8Ky2LGp4pIjL2bQRaNIybsoe19GmsuFe1cah6bGyJtvhUyy4V5in+nJPp1QQ8LJKJuyUOVB3b9UGwIoy/RMCSnJkI5B84V34JixEFv9TLI9dyg9AbYpFcjx5HUpk/Z6pqGe6cSRobQxfHt+NB4mNwxh9OkDZRd/yx60r6Br8SQnoewjrOUalP0xDM0YGMqt1fkhD7JDh8MCJpvSw4eGPKcyMVUnfDl6EW7EZUjK9QzHUxR2xRNBvul13D1I1XCFYDgl7IcThnYq8Yaa85vZW4YzRM/hFxU3oqOUlOO5WBoJ9aCJlTVeCi7UONmk7slOlPOYWqcmMobyCAfOVxpRcGiNOrRVTw8IeAZJvzOvcfWfNlgH7VEqTyaB1QciUq95w9Fz6JHGliZRD/IIe7xhZEtgawHqN/AMcGO3SSc+vpPhjYmTtMcxXg4X5IHXWp5cG4ivRGHfPlobSIF5Wugwke4Tz/cxiOciCXTAcixGpW3iH/bMZosacmgU0XVUfyVzqhmF8c9zr4IyLaksCZC266aOuudPmlmGmjqyWdo5MyQaW+s+HoEh3XMv+AT8zbsoaGfpzJ4zsxRsAsRumc9aUmN8vDKNYxoC9GdyKM1VtmUcr8ve24O89sq1NFtPatBEdPgduH1D8pgHRYRAQ2s6KijVTyMKf+R2kc1VgWpNIOjY7xFnORWnv+u+D0SVzoX7YAjb1iRaQsHrzK5lyNHca5tkNVDGCSnUVTlvuIR+qyOH6ZFdxZd+62BZC/W5c0Vx+eSMzf7gUEOf9LhPJbSTR6oRKVv93GTfs/OWweccOsP5h/hUKfvEgqFOFbOeoSfN/ID3wUYZ6ZlMZMP3/MNl6IZOHlMf0zMsCb5+jvJLaD3OJvajx4k+QZmO07KOJi+Nep9huQxHYqkP0ho4PUiW0FM8dOh4h5yHaSjWXxqM40ndTg53DJmU0eDJsIswbblwClIZNeJO8D7pjZMaxk9usugs2WXwZWg7D3hwHgx5zDswG3WyGkLumfmehecBL4M/QyGBWgdKARXOG0l1On8LT6v7VP0mC890XoaOob+N1s/lxrH0CA03oUielV5c8bD7qLMHl5/LvQwtXbKTewnPVkfkkcovehMqRfaWsfPBy/zz1sY2cvwny89WX4ZuhLOoDP5zOL2aEvDq+84FJjS9YqFhlLp6kMZBR/MmdDHNwnqVC+NIyVEGap9xH8TIAdHFfcy85Beo2skFfc7CB7cnOcrwI++PvOWHIPcoJ4fgmuUzub1VAYfWsNBraeYulT8oj7y7oLRd5qfNWEyUXH6C367PB7+uC2cefREso7by6lEJgL737wiyzeiM6ctVR4+eH/qSfXrWBwxTUBqfA+Z7Z8FK5F7bpPfSGxh0ld1RJTMaSBCOjz/XfT0yyyF/bqQfPRn8lCJe3t38CKanuvoh7QNgw52l5X/pg4egXVAD08SGEQPoO5y0l58UTtBaaqvrtqEb3XEuNIbD+DZGtPunlN11/2cfkuTw+Pz5vhvBt9Xyl9PqjnmmlyaTCeCiujzaw/6ZJGxjjyRJ9of2fKneMnRfAl565bl0qrw9ubEk+OlMGqUdgjQuDHjFsU99VXPIBL/rO8c7bwBfmQfP3Tah6hSNaxjCxzcPB94APv/aRSY2jmlzJ70rJygJn7T9CfSLfBG5T9xVWjTtCQt6OLv/tLsOhqp3cATH+7rJ87JDnjePdp8gTAU98vVLDi0M0hrTwTkLSgijwbehf50eR9lGpnQa89lJ/c8Kp4bmHhOMxiUBXSdGyf78m+HIG1A0LCxhuLfnJv/nJXPDhg0bNmzYsGHDhg0bNmzYsGHDz+M/k7bT/WemhfMAAAAASUVORK5CYII=;" vertex="1" parent="1">
                    <mxGeometry x="307.5" y="140" width="60" height="60" as="geometry"/>
                </mxCell>
                <UserObject label="&lt;div style=&quot;color: #000000;background-color: #ffffff;font-family: Menlo, Monaco, &#39;Courier New&#39;, monospace;font-weight: normal;font-size: 12px;line-height: 18px;white-space: pre;&quot;&gt;&lt;div&gt;&lt;span style=&quot;color: #a31515;&quot;&gt;https://aws.amazon.com/new/feed/&lt;/span&gt;&lt;/div&gt;&lt;/div&gt;" id="16">
                    <mxCell style="text;whiteSpace=wrap;html=1;" vertex="1" parent="1">
                        <mxGeometry x="370" y="170" width="210" height="30" as="geometry"/>
                    </mxCell>
                </UserObject>
                <mxCell id="17" value="" style="shape=image;verticalLabelPosition=bottom;labelBackgroundColor=default;verticalAlign=top;aspect=fixed;imageAspect=0;image=data:image/png,iVBORw0KGgoAAAANSUhEUgAAAOEAAADhCAMAAAAJbSJIAAAA9lBMVEUjLz7///8AAAAhLj0kMEAkMT8eKzuAhowgLTwXJzn8/Pzj5OUAESAAABXr7O0AAB+9vsEAABeNjY319fbV1tgAABMAAAkAABvw8fIAACIAFS0AAAbb3N4AACcAAA0AACHNztAMGjAWIjQADSmtsLSio6YAGzHDxcgRHS+ztrkXIzIADCWOkphIUFubnaBobXZXXmdUVVV1eX9ra2sGHzMyMj01PUtvcnl7enpCRFINGilSWmQbHDOWmqFEQ0sQFBouLj0gJjANGDMkIzZISE5IUVpRUVBfZnMmJCchHyw8O0Bub28oJzUTExM7PDtIVGI3OUsSGyWqTWdEAAAS8klEQVR4nO1d+3+ayhI3wK4sKJqgRgkxiOADUQkxGLXpbU/TkzQ599zT//+fuSCvBcEYNWnv/ez3l7bIY2bnsTOzs9tCgYCAgICAgICAgICAgICAgICAgICAgICAgICAgICAgICAgICAgICAgICAgICAgOD3B/j//DQDWLXXqlQqV90ZLDDMO34qB4ApII+Cq27v+ATAbpuizp1H2zTN4nzFUBTVghk0RMih8ZXf41vSwgKA7dQpCq7sNQHIJeBKpQ/gCAeDKhfSVK/KMi80m6LYFAReVrRij+qm7kQXlI+6mv0qtRzc0EDZN8Cr8IYefhm4T55bet+nwCVA9ghwyo0ee7jawhHlmH2+yXEnCXCiUJ02uvgHoDOs+tCdTBZnjh7coKFexu8AoWLwiqE1A9j1hqPLTS5NQE2zzisHCpI9P7eV1KtjiDWLinWV/TSMfuHRpg4zy2s5ukFQM6QIoRZ9qn8eM3g107Jp4DjZbOeow04AUtvkc7gLeJy0ZjGH/fgHs7uhPpDRsSe1xqZ+jebx15RKNDKU3dxCAj86gEXJ2vbqYKydTkiqamPfbW+8Tf1HwQmjNm6gpftIUtywEQ4MpW2nQCiz+zIIpTz1TLIYSlH9HF/lwMbIGtci9ljTQWkhQlCNfhbty+BiGx+XTMzTHm9n9KwdGHT1jQmYgbe1+Kqd/iyN5viAccXL9PcGq/h5Hvovhf+qnrwGvbyvQ5WmO3EomgNfTSCaxFerVOqzEOJmeMJp6RsKEmZvVV+J6cpkw4d7SFw8EodNQVYU1433FYUXkl9VxsHcoD7GFwUqFXTAL/3EUzUq5edpyYz5KLbW10qPAj6WfK2vTTxoVUUWQqXX6wdzKPLK0JwvLv3JWFrZuoKbFFcc+MSqi3g6OEEpQ0Sfk26LT8+ZyIlnmyaztlL4FTNCUZlM/3CjidPTUze6qTvzSVVekzE5PYxDjq/ez53yeVelGQ8FOBg1HBPj5aS/MNYPQAZze3YrxQAm4DXBaUsdWPE7+76SjoqxCAV9ce7Fo951lwwaSfWlZfaFE266r6cB6sIdTHfgmIqEcJUDXviFkXPSvFmuf6DVYnwxZYh0J9ZBX/J6Ozn0y7tYMcz1fE+XYqmKk+UgTSHsnDq2fp8RXewIemZO7PFgmTWjMqcrTFGLQRA8WMVTdsoQ2R9JM/SiloQh0ipmhmslBeo4dq7KbWYgqI5m0t4MumM0Q5KaN502MI0cfvFHATmYbzcSIwO/BQrHhY5QdhI34M8qvpJKcYwj6hkx0Bp7T/dr0Gx+nqN+i5mRH3xDZBGmimYFvx2Ng8u8HHAoJO3HuI7lb/q+Y1SMnJNgjw7iZB8AKrbE5rXPIbO8iV1DHzdEIIUm2tcCssVJHXud+2g8OMiPd8qTyBL48ezDKwugjs3gAYeu5cTuPWmIp6EZ6vNQXastzBAhjMMFPngS41DY22EeAGkec/gYxKYQxWyL32fxzUwj1ME7I5R9DY9dkROPTTiFl82IQ3HS+Pi6SWRZLoooEEfpLjIdDp+J2fNQGDdUKE3+UYp+B8afcUAQBgsjO9Z5pX2YS9kH7GUGhx0selYwQ4wEroypUDLi/Wn8tlkcEIRKWug8xs5HnFAHzAr7gaYyOISzeBIRKhFNIBKcxnangbQ4Lfa2bnofK2mYdSCABW3Ns5IKj1V72g2ZHBZKZ5HtNOPEjaFCaZyVoBT+XZlFQ4BnXjA0T3Ch4zF+9fqrqsJ3Kpm6b2Uh8gFZ/0I2h504nMPiMja8V3hZAiqUjGxF9QHjIXabT5HF/WEliijicLpgO+o7aCuA6rKHgOMDoMFy4H6GyeQQQiw0uQj9X5Sm1FYDcBrmfM2zsNxEYxUQ7VPEIShrqQJbTZ8+AGlwXCZpdcQubmxTWxf6hkPdtF+ssdMtZXJYqMc5qxwmSIAKQ2jNgAXpUYyEHDzEDuIY24rnEND5jJUNAkHW9PkKjAbHU1djuXDzwUTSyzVlN2G8u46vYRz2ppFmRaFWHP9Myi479XASqC4DYbA/It0WnrFZEpSz6mxiTStahfPBUeYP2HIm/eyKm4gNL8YhYiMHKIYygqUwFr0refyGd3g66z/0EI3WsICrIN0y8WQb+/jwbLXsHc4j/Gn3M7+QAsYhQ2Fl3UBG3XA2dFnC4z3BLq1/B704sZwnlyOgVMwhwJXktDQ7MNJBXU3Ifn0+h3gkIo9VT0agEbJU9Rwh6ETRkKe0HsqRexK+J/NAAKWX3Ko0P1ydH7RygWbVXSqmSQ4BArFN+YbIUIFCc/qV/+9QLEO4FjJdiQal6qT8JGBL13quHvGT8iEJcDudlu/CoSeQcFw4fR2XQSNgoFlccwxCjn2tLYDZGHvTpm0Z7M0wr/ouVttwXynGLj56myjINZlvihuSTXBYiZ1Dfy2j7jy4IPsrSpghztcVnlZkhsKNkTXWBvunWcvRp2q6LLkzg1d24pWCPmeenr7++Pr09JfzWHQnkBwO3SQxMpyal7iCergeoQDo3wHCG85KBVymJ/1F9tIjRIMf300lk8nhRm15N9AUrhjN4r9bMzdggxCybvymSpftOsqRYaESabewVstwduC0sMIYBQs66/Ecf2oC88yKZlG3cVvMYJJ73Cs7Tka9yvNp8su5can3Wz3KzTnd5QnBQKZNM0iX4ghAcb0tUJ1oIF+W22gqoEuqbm0wye+lp7CMaaHysNycd3I5LMzG0bN9Vy+leSAi3uoEpJZDQ+RvBgVweh99aKG+onGAlShqnrRJ0Tzf/lAmrrCJVngpZdxBX+RxCKXIrryopXwfvCoqW2DO826Jm6FO7+D7ARxR48S6Qu3i7UJkqGE8TMPNxcBCTo7vk0BFGu7OD0wjMEtuGOX0cBAtqzCQjqbH5l3WUGZh+dPEdExY9d7sbOiLOOoUz06zbkEg/kSSQzdZigzxfoSYWqhM5fAGph6+vr9AnRUm8V0JRJW4mOqOY+v1JzbIj6uh/FzKuAPgi28pDuEymi+GTNcKRlvAKk+tyBBXRlw9H7K7BygI4osa9dcfSJE/w1Yg5MdO1i3n2HpoikNARXFmzYoqTzITK/ssHB5ubkSONUdZckg8j4XIaenVytchYUuTspXJIYWViVIcxsmEa1qRRfexkidyQj2+V0ti9KGdlbSQrJcM9+Bw+gqHAN1iHjsdTcKI6hOzokSqhNVPf4SGWP0axU5V4w1RtOuPI1exhwxBz4o55KcZduj6y5jBk0lqDS+uHp5oYdGziRfm2U5kiH+HMhYn5cIbIMXV1D3ssIDFlpk+HFQsfEKqfkmNfhxL18IUk/8Du4dGYelJXISikB/TrWBbp4DTeIF4H1/KXmJrvPrGIiKoLBJpae05xSGMAp6mHAyFktAkFJUPo4mtX0oraedKyk2NoITVnq23z4cM7kfk62S0CBjqO76O7xrCcyrpwdbeAh1MrWrHJWA+uuEiZUwzy5w2TnN4PH2J7ajW3iMwreOBt/YJz2nAjLLTxY1JJ/WNSmrZ/kRMWjNexg84TZs7GisnHG9SVI9JMwnYNtYGyO1hhoVCb4UnT/eUF3p7C8I0uqKe+xspjPDvtJo20hwmE4DYECNBpBfkg+mAq36nqKtgOlqvSdOoTmERzYkw26eSwVCJWqz8n4t2q9uttKmvxaSCBihK6edTtympPDXZ5uZ5/HSzHzbhKSbTbrdPWy4JrXK78U3Hh5+b7JcCX86TghJq2v2kWsPUk8MLRMK/UuN4mWjy2uxcMj4nW/KEjQa8jpUYJF7ua/pkoilyykTkt0/3ayRilixw94lCjpnuEHKSt1spISfaizw6001UaQ7z0Fxk9RvvwuHM2VorFSeU+oyJeZhqB4FPifmES/eT4osx3u/DDW+Br7ZuoWO+d+MeqNtbyt2C2aDZv7BV+3QTF77YcuKpUpqO5Q1uTKJdSf2e7M7JpcPesw7lgWkU86TI1aZeZ676OdQj2bxMf0hNNLLpGyLCO568Rr7NLFuaZhfXEnScH7QEVZ5n6wmvO13Pe7PIXxpqDlebPfPoH9yMbjcKMLCQ6PvO0jVprG81RV4bH9qEMhrrm4sGvDY1jJDKM1fMtbOvGcbOqnbY/nQi6Jtt3QXje7TqI/YfMjO0gWRN+nmK5NLx87XC1esY/LQmCmYvHF81p1/jaNH4Mr+frJaZMy40rLMAdi/rjtniLvj9bpxTRaQ7dWd+NkxPEBEdh/LnkTkwxi9Fvaq46GvmneVICX6gJPWMnKgQDkoBsoegYIS/l3I22XhAyxKzuineDxXF27bDyzVvefbGWea89O1g1eWMcRYegLocpGkBR+kA2apsDBwsl8gl4fvq+vp6NV44yKXjuJ0nEKku/DaMX4Q1CYYLj5D3oGPrhrMPQkDBryeEgICAgOB/DOwvnKLfD14vqNpZusHeSJqhbtcLCzuI/pXnBBwXNBqNeoup7Ybt5r2u39+fnRXvpk5ntCW4/d8BKKBRd2GbWj/enedlX4Lc14uLzk4qy+6/UeoDoHp7uRQhM/VvKnbuHiYM8I9F4fx35RE1FpMc9vyc+J/X93XDbxO5b5eWv6XVlm4nte29oNMdOHx2E/pmdVw/vDxwbMDWVHmt19V8PWuEX7w6MCdoT+3fTFUhMl/vdZ3skBcHm+Q4YUJd/YITWvLRecTLbk2Bl13wKZuczHbI/JcPQTVfsKnNox9+GUBnJZ9wvFLV7XGFwuDomGiLO9U2ls/hGrwwb0sfvBFnCzo+R6cjlaWj83eYglqnora4E3unMzKYgRr1osv2p87vMj8Cbyd5Ri0FwKewbs2NdzwFRO3GRs2bt5/eYx/OERGf5dD8e9dzTmDLxpq+zHHhyNtwjoLIfOLdx7XbXekE7LmFrR4K+o2zPHJ98kDAQaezDMadRaEhDr+9QRIjR8Om1+bwbix1fhtBIkm1bPPM8lumIQrXWrMa/XMB1MYZvijDKfdzONoteH9fsJ2RM1+vSfHTdf+CH6W4EK+zGv3zQTdukuvc/LC4mh1yZtExgEa9lVkNHKG//QQ9B/+sfX4bhwWmtNCTGzmaNc12KhutSx8GJNUXthZH3/31smq05Vpn3koZ00F3qSVSTlD0+ddGj/3wiA5AiQLTxDYP8c5gveM7goYA7uWNIly/dTDe2HPkMflYp6SNRqV3BKA71E+XvUQc2jTXG/lYI4jBauN9EiJaZe82F5q9w+AeKapLMx+wSgIALVHUSqulUt/a3Hel7FNgSpM9Z22oOnpGVs01+eH8gjpX6Y0zDo8JUEBXFPU45NNH0nGaEzAUmqFws203yjbQ6KeV2bDAcc2+6bSpS5V5By69V6IudcEU++LmVjLB/hk2XreCrhbtzX4mBt25yN6r6rEpVG1AUa3ZUcuVwB3XLkWh6TCdAfoYdrthiMVQvu8R70oHeD9QoAxtS2tLs1/8Xm9f9hDLsocGd+4r4Kx72nCKw7y9ozJ2XCMIT5WrZm57eQOPiFptb98RFd12nn50VMOA0M0q33iEKuO1nEJooM6np7+mem6LiesATDwzDzvKj3BED5Co4iuVLldl+1rx+u/bLxANDMNAyOeUyZ5YwPonZn1ag7c+D7/c/v15qlezFTPkTwONxB4ryr+7WjhCsAUql6a8w85u0Ts+1br+8+HzP7TaWS799gLvvIkYaN36YBjL5bKHmH8+P1xfT5O9ndkjWF21k5NexW+Z56dHOWUJwMq3yS48riHItapenL/c3HgtIouF4wCwFpqXqjte74h7/ebmZW5qSo3f5a181arPkg4t6EcX71vHSu5Q+9lUXj/zMzHwTYHnZaVfHWqa7kPThtV+TeZ54Q2v4ofT8jLFB+gs1kra32yb2xtALd8W8/3Ae4GTtbmx2QQF/F1hsrXrrr6dWCyo546d68nfBaIysZZZKQ0yPDqE+dURGVzziErg5v613s+jwY0pxlL2MR+VIuc130rvkJjDpepmah+grJwyuXG6g2w/Qnu7xkW7u/eZA1vBDiRgFXc6F2R/8Pp8AZcb5/FGHF7KJ8I0f+fQwYAD1VnlnnVwMJraywMz2FqsRavpQ2br6tHAuhP37Wdzl576N0LQps8F49WDr9zvvyd/PpPQ6Dx9K25uFDoAsj5++rSO+X4T0BBKZWqqHWUGEarFS+oS/XZ9MqDASG4uPNdrbwt4EhBlzWbcXPPjy1w7AgDYbVCfrKIbQYvp/2lgGzhOFGt904KUK7zfsoMAA2Bg74pqG+O5VlXcsFN0Wc3j1f1FdGPWWnVY/F4oU+cS+sjy3QHwCixult6g2hU4tidukK2sF6TdOHsN9y/ev2v9oaYXLdCqezUQ9BFVu6MCeI3hLPLKEeuV2/MecMarx+l0aq3GjleDWf9PH62et/76rtW6dwbwEnkvl6fdnHc260mS1Jt5J/kw6+u/mrxjA6T+JCAgICAgICAgICAgICAgICAgICAgICAgICAgICAgICAgICAgICAgICAgICAgIPg/xH8BuDS7dro0VR0AAAAASUVORK5CYII=;" vertex="1" parent="1">
                    <mxGeometry x="370" y="130" width="40" height="40" as="geometry"/>
                </mxCell>
                <mxCell id="25" value="Bot" style="shape=image;verticalLabelPosition=bottom;labelBackgroundColor=default;verticalAlign=top;aspect=fixed;imageAspect=0;image=https://a.slack-edge.com/80588/img/apps/default_new_app_icon.png;" vertex="1" parent="1">
                    <mxGeometry x="511.25" y="320" width="30" height="30" as="geometry"/>
                </mxCell>
                <mxCell id="27" value="" style="shape=image;verticalLabelPosition=bottom;labelBackgroundColor=default;verticalAlign=top;aspect=fixed;imageAspect=0;image=data:image/png,iVBORw0KGgoAAAANSUhEUgAAAngAAADeCAYAAACuTX3gAAABWWlDQ1BJQ0MgUHJvZmlsZQAAKJF1kL1LQgEUxX+mYYRQQUNBg0M0aYhZCE0qFIGDmNHH9nyaBn48nkZEDQ1FQ4vRFBSE9TdUNBWtgUPQENHeHLmUvO7TSi26cDk/DofL5UBHl6JpGRuQzRX16HTQubC45LS/YKMPBxNMKmpBC0QiYYnwre1TfcBi6r3bvFWx3h7vHQWu/IP7lo2tm92/+bbpTiQLquiHrEfV9CJYXMKRtaJm8qZwvy5PCZdMTjX4zOR4gy/rmVg0JHwn3KumlYTwk7Ar3uKnWjibWVW/fjC/dyRzc7PmHdkhIsSYIkhY1I0XH/P/5H31fIg8GuvorJAiTREnAXE0MiSFZ8ihMopL2ItHdtzs+Xd/TS9fBv8bWEtNL34IFzsw8Nj0hk+gZxvOK5qiKz+tWqq2wvKYt8GOIHQ+G8brCNgPoFYyjPeyYdRO5b50dJ37BBSjZAR+KjleAAAAVmVYSWZNTQAqAAAACAABh2kABAAAAAEAAAAaAAAAAAADkoYABwAAABIAAABEoAIABAAAAAEAAAJ4oAMABAAAAAEAAADeAAAAAEFTQ0lJAAAAU2NyZWVuc2hvdJSd23gAAAHWaVRYdFhNTDpjb20uYWRvYmUueG1wAAAAAAA8eDp4bXBtZXRhIHhtbG5zOng9ImFkb2JlOm5zOm1ldGEvIiB4OnhtcHRrPSJYTVAgQ29yZSA2LjAuMCI+CiAgIDxyZGY6UkRGIHhtbG5zOnJkZj0iaHR0cDovL3d3dy53My5vcmcvMTk5OS8wMi8yMi1yZGYtc3ludGF4LW5zIyI+CiAgICAgIDxyZGY6RGVzY3JpcHRpb24gcmRmOmFib3V0PSIiCiAgICAgICAgICAgIHhtbG5zOmV4aWY9Imh0dHA6Ly9ucy5hZG9iZS5jb20vZXhpZi8xLjAvIj4KICAgICAgICAgPGV4aWY6UGl4ZWxZRGltZW5zaW9uPjIyMjwvZXhpZjpQaXhlbFlEaW1lbnNpb24+CiAgICAgICAgIDxleGlmOlBpeGVsWERpbWVuc2lvbj42MzI8L2V4aWY6UGl4ZWxYRGltZW5zaW9uPgogICAgICAgICA8ZXhpZjpVc2VyQ29tbWVudD5TY3JlZW5zaG90PC9leGlmOlVzZXJDb21tZW50PgogICAgICA8L3JkZjpEZXNjcmlwdGlvbj4KICAgPC9yZGY6UkRGPgo8L3g6eG1wbWV0YT4KMVHe7AAAQABJREFUeAHsXQVgVUfTnSQkkOAePAGCu7sEd2+RQrEqhRYoUgcKxUpbWpx6C7TQQinu7u7u7gQIBEKSf86Efdw83ntJIHx/SWbg5drevXvP7t09OzO765bDPyCCVBQBRUARUAQUAUVAEVAE4g0C7vHmTfRFFAFFQBFQBBQBRUARUAQEASV4WhAUAUVAEVAEFAFFQBGIZwgkimfvo68TDxHw8fGmlClTkhv/+/+UCIqgoKAgunv33v9nMvTZioAioAgoAopAtAg8d4JXpnQpatWqJZUtU5qyZMlMHh4e0SYqNgHCwsLo3LnztGnzFpox4y/avGVrbG7XsC8AAv8FcgeYQDCRFiV4L0Ch0SQqAoqAIpDAEXB7noMsRo4YSq1atvifQjzjr7+pT98PnuqZSZMmpRw5ssu9J06cpHv3IjU12bNlo2TJk9GNGzfpwoULtrjd3NwoV66ccv7atWu284kSJaKA3LnJzd2NDh8+Qg8fPqQkSRLzuQBKkTIFHTt6jC5euiThU6VKRZkzZ6KIiAg6cOCgLQ7sFCiQX47Pn79AN2/ejHItJgdtWr9EKVKkoIWLFtOpU6djckuswpj04Sak/ybjc/nKFQLpjkvJnClTXEZH2bNno+TJk9O+ffufKt7zljLwVBHoTYqAIqAIKAKKwHNG4Llp8KZN+ZXKly8X58nfcfYBLTkUQvULelMhX88n4gehzJolC7Vp1+GJa9Gd6NzpVer29psSbOSXX9EPP/4s+02aNJLzIGrVa9ShK0xiIDg/7IvBQr4qV61BoaGhcr77O2/TG693patM+qrw+Zo1AunzQZ9R6tSp5Tr+rFixknr36c/XqtPgzwcKCSxUpITtOnb+mj6N3N3dqf+HH9M///wb5VpMDjrx+4CcHjlyNEYEr1KlChQcfJd27NgZbfQeHu40868/nwh39+5dmjrtTxr11TdC+p4I4OBEbJ6bIUMG8vPLQWGcF/bixlhdvXKVTp46xYQ6CXl6enIawqME80zkSZUqVWRSfoPz8SpdvnyZChYsIKRvwYJFtrCtWrUQcr5r127bOd1RBBQBRUARUAReFASeC8GD5i6uyB3mcNl8+gEt3n+XVh8LoSu3uGEPDaNrdx7S8CZpHOKMZyMNsdHkgUg1a9bEFl+L5s1sBG/Z8hVC8KCZK1+uLP07Z66Eq1e3jmyhhStXtgytWbtOjqtWqSzbFStWUYb06Tktw8jbOwlt3LSZzcnnqEZgdfLN5GvTEErg/+c/mXx96ftJE2jWrNkxInjW5K5bt55OnDzFxDozVatWlbp26cSE8hTN+GumNZjD/dg+N1WqlFS4cEHWEkYlbqxMpYwZM9LFi5fo559/paJFi1D16lUdPjMiPIJu375NRuuaJk0aypnTP0rYjEwkz58/H+VcTA/gMxhYrRqtWrNWnmPuCwjITfnz5TOHdPbsWdrugEynZC1v2TJlCBplaID37X+saUybNg2VKV2afLy96eix47RrtxJQG6C6owgoAoqAImBDIM4JnvjcPaNZNoxZ3fqT92nJgXu05kgI3bjLpO5+KHmGhVLNIilo9eGHtP54CIVyQ+3JZlBHAk3ejBl/x9gnr0KFcgRT4N69+6RhRYNfonhxboB30P79B+jCxYsEMgLyCILn4+MjZM88OzCwmhC8NGlSU968eeQ0iGGpUiWF3F29epU6duoq5wd7D6PEiRPHWMOFm2BqLZA/H+1nMy40hSVLFid3N3fasHGTTXOIcLlz5aK8+fLQoYOHcRhFYFLOly8v+fv70Y3rNwQbmFNBJBo2rC9h06VLJ2k+ffo0a7euiAYR75MtW1Y6ySQOhMNeZrF2ce68+XJ6xp9TmYAVosKFCtkIHt4V5tx06dLS8WMn6Njx4xLW1XPtn2GO8XyThowZM0ie7di5i7VyFSgtE7U5j8g3zK+nOL0YGGGV2rVrkQeT+Tlz5llPP7Fvf98TAZycAFl8pV0bSsPa2k3sDwoiaaRQgQJ0L4Q7Kaw5hJxl31F7ASavdenC+bqRSfNJqhkYSCC169ZvIMTdpVNHWrpshWiNqzOZTpEiua1jYR+XHisCioAioAgkXATinOBhQMXTSCgrZFYfvS+aurUHblFwCDfMzN0SJ/Wimvl9qGA6N7oU4k7rD9zmY2+at+0WbTgRQlVyeTt9HNIS00EXLVs0l3jgrwbz3jvd3qKWLZsJwcOF5ctXUru2rW2kDoTCy8uLVq5aTdWqVqHA6tVp0OdfiOYFRAr+exs2bGRtSymJF8Tp008+ounT/6KDhw7FWntXkAnSTz9OFoKXLFlSMb0i4i1MIjp27ioaLZiGjYk5PDyc8DOSPXt2GjVymJAvc27X7j3U4dXO1KN7N3q1wytyunLlioTf50OG0uLFS+nbb0ZR8eLFzC00b/4Cp5rR1KlTEUyoEMQNgSbtqy9HyAAbOcF/QHzfZ/O0s+dOmTLNBHW5zcbm5yqcVk8vT6rAxBtE89q163LPnTt3CD+rwGSbIX06HpAT/UCcRB6JouBnjcfZPkh/p1c70PyFC6lRgwZPBMvAhPTP6TOYnAU9cc2cgCb4yJEjQuhwDqbk17p0lnJcgvNhJ5uM0emA3GLy+ErbNkrwBA39owgoAoqAImBFwN16EBf7GC0bUwlhl7UFB0Ko19/XqdKo89RzxhVasP0mhXNDXK9kSnqvdipqWMSHdh65RV/Nu0JTV16m00ERlDezN7mxyXMha/jg3P/gxj66uX0gBR34ke6cWkb3g05L42zIVXTpATGB2RSyYOEiWrhwsezDBAuNCgSkBOLrm1F8wOBXB/nll9/oyNGjbB7MIL5cxjS9ls2W9+/fFw2bceZv2+Zl+mfWDPpn5owopEkiiuGffKxNmzdvAfvv9WN/uWAqzQSydq1aoiF7+6036CFr5OCz916v9+nBgwe2WDFIA1N8jBk7nnq814tOnzlDRYsUpmZNm9Dk738U4obAq9ms+Er7jkLuPvv0I0knNJbNW74s2DSoX48aN25oixc7n336Ma1fu4rWrF7BBC89jRg5iv6eOUuI8tejIsnd/AULJV0YvAKsQe6cPTdK5C4OoL0KYYx37txNU6b+Ib6GLoJTuXJlRCO5a9euKMFAyPEzgv0kXL5CQu6bUzHawv9wwqRJMljGEp3ci+N0adNS3jx5pZPgy+ZkIwVZswcSB8EAkKOPNJw4vnr1GudjKKVnYop0wU3ASGLuYEA7qqIIKAKKgCKgCNgj8Li1sL/ylMeYCsWV3HkQQUsPhvDvHm08dpfuP4wgN1Y0pUjqRnWKJyX/VO504kY4rTx0j+ZuCyU3duYnDsP2SIpwZ60KN3JnboWz9syD1uxmMlg/Fd04s4FunVxDSd3DKexeJKlJlNKP0leb5CoptmuNGzUUh/zde/bIlCu4gIEJ8JmqX6+OmBo3b97C5rY7PPoyGVWqWJGqstbu1q3btGXrNtHuYdRsYPVqQiJwvyGEGJjRjgkTRrTW47iKFC4sZtLJE8dR7boNmKAidMzl+vXrNPrbMXIDSCZIaLFiRcXsCgKAdJoBGe/37knZWasEuXXrFnV9/S0hOCALu3ftES1g7ty56I8/p9OlR6N6rzGh2LptuxAHmAAheG+8G94FAuJsTKE4PnHyBF28cElGCJdmk3RXJiuHWQsFgpQ5c2Yh2598OlAIaWKvxDRwwCdUp3ZNGj7iyyeei/hiKr6+vnT50mUhspgqx5XARFy+XDnOL5hNo2r2Dh48FGV0dJ6AACFT1hHTruK2XsMgFUcCYrZt+w7G302w7dC+HS1gbfGePXvpCpvvYXqHwBQffCc4ShR3gu9QyhQpCaborp07ivYXU7XAH9SYu6PcoAeKgCKgCCgCCR6BOCd4jua5C2Jz62LWti3hgRKbT96jh/eZ1SRyo9SJ3ahRkcSUPWMSOnw5jJbtv0dBN0PIzTMRRTwMI7dEHhQe+pDcvBLJj3j2DTjIr2RyWDkXa/A2BomZNuuN45Q0sTuF3wuV68jVB5T0CROds9w25llMY7Jm1TIJhmk0IC3YdIvBAiA3q9esIWiw4GOVkhviuXPny/nlPCIWo2ZBFLNmzSLThKxcuVrux58Q9rv6iR3/8StUqCD9Me13SpYsGZtLC9umSwEBgCYRU7FA0rK2BwM/IBcvXIyiYZKT/McQlRScVi82U0LMwAE5sPyB2bnP+71YY9dY/AfNJU9+riNB+kxewjwMzSAE5O/kydNRbvn11yk2H7x+fXoTRu926dyJcftbwl1nMyO0jZAzPLAAkp4Hn1i1ZnIyFn9gyoS2CyZvV4IBMPBXBPHcv/8grVq15ongGEmLHwT5V6t2DTrKBB8DNuJKQrkcw/xv5BITU5j2QfCsz0dZ8UrsZYLJFqQY5+HHOX7iZNYC5pGygTKDsqeiCCgCioAioAjYI+C4dbcPFctj+J/dCLpNXj7J6UF4Iqo5/ABFuCVllzp3KuiXhLrXSEUnLz+gXRfCaN6BuxS8OZgi2JzontyHwqElYs2PW4pk4h4fERpK7iB8zAnDQ+6RO48evHg1lNqVTkqLkvnQooN3qQOdpiRsAgt7yKrARyqxu5SW7sdg7rgihQuJpg6mXmh3jLizNgzTaRRjHzJouY4ePSZaORA8TNMBMVo6NNLw/QI5gGBkpJm3DgSjC2td4Ht19uw5GZkZAd84nvD5Ot9z7vw50UDBn6/7O91oyBdDJY4e7E8HgZn3AGuYMMDCXnLnyimnMC2IIUuYIgaCY/icGYE2Dz6EIKUTmCS0aNGMOnXsYC4/3vJ9EBBFmHQxsS+I6aLFS+Q80gnTL6ZJcSRp06V9FM6TYI6FwDQJQnflyhXbe2DABjC3yaPn2o5d7FSrVoXKMsHbvGkLHT9+wmlIkOmGDerRfU4vTObr1m2I+kzLnSDTzXkUNfIacwbOm7/QcjXud0F4DYG2xo5yhJHXhw8fkdMg7hhVe+165DyLyJOt29jvskMH9r1bS9DoqigCioAioAgoAvYIxDnBQ6O9lhueTDwiNUsWT8rMowmrpD5C1YvnpIL589OOs/dpyLybVDJrIlqwkycS9mBCwe18BE97EQ5TrCdrL5iXSNvPWjwcYz/iPhM/NyZ6rMEjtwi6wGZaz0TutGZfMLX3v0DkwyZc1pIYueuWjrwfmRTNOUdbo73byeav19+IJFUm3OxZf8mIWIQZNnwkrV69VjR20JyEMvE006JgMMPKVasIU6tAlj/y18M+fM3gewetFiY4xmhUEC+M1t1/YL8Mjhg3fiK99253CdeU59YDOfNmIgv5bsw4IVpywH+g2Rs+bIiEKVGiuBDA2bPnUHL2R3u3xzviMzfqy+GUPl06GfVr7suUyVd23ZmYlS5dUky75hq2ZnBC5coVZYqZwUOG8TQxv1Cvnj1oEM/hh/MpkqegwMBq1Lffh0z4HmujevToRu3Z5IhRrFmzRhLMadOmiy/aJp4aBmTsj6m/iTm7Xt3aeBz9zL6LEEfPBYlxJVvZLA6yDNLtSuD7CCwxaCE6fzrkIQggBjEc4+lHopBPVw+J4TX4C8L8inSD2JUvX5YOHT4sd0NbivyBWwDeDdP17GQ/wTtsqoU7wPETJ8QdwDwKA3ow+nnzli3mlG4VAUVAEVAEFIEoCHikSp12QJQzz3gAooK53iAgKTB1pvT2oJ8W7qB5JzLQlRv3KFdmHyqc2YtW779DEfdYW8eEyQ3O4tzIhrP2Lvz+A/a7CxdTLbYSxoevs8k24g6TwiRedC04nIpmT0w3zu6jBhlWynQpYRi1wXpCSFDqOuSd0pd+dzEiE2bLYUMHkzs3uKNHj7E1uBIB/0EjX6VyJfLLkYN+/W2KmMlKliwhvmsbeXqSv/5+PM8bu+mL+Rb3Dho0hILY5w2yb/8BSsYDNbLzChnwTwSRgFmt3wcfSQOOMDB7nuM51zDFCQgcCCQ0XEOHjaBpf0xHEMqWNSs1bdJY0gBCANIEE2Kfvv2ZKB4QTQ78skpx+jDX2oGDB2kTa7gKs4YSI1+R3urVqlERHlgBk+svv/5GJUqUoEOHDstIYMxbV6VyZXkOnoWpYWbOmiVEtjj7+GHKGKzyAZI77c8/ebmuu7YRu9DyRQ4acBNSN2TocNtAlVWrVz8agFKQp04pKKNCv/rmW9Fo4r0cPReExipYRQT4GsGgg+s8zUtMBObPh+goxEAw6ja6eDF9iv3oXGvUTRs3YhJcnVIxJtAG5mbfTGh4M6TPQE0aNRKiXKlCecm7JUuXSXkoWqSIEG5MhXKTyS00vC2aNeO5FctKZ2DmP7NtU+HkyRPA+ViVfp86lck9fycqioAioAgoAoqAAwTifKmyI4f2MWk4JIQjC5sLszJZuHIrhL78eQHlKVyGzt1OSkv23qKbTNDceQCAabbD77BzOmvk3Jl0hfHgBQ/WeLDjF/veeUQmmxV3xNq78ND7TMhYxefpQb1rpqC1a2ZSP/+fKJmXG4Xdjhz1GMGm4PO5h/NkwlkosGZdB6/9vz8FTRLmMwsKuiWNurMUYEkziL3GCQ71mCYFfliVqgSyNi25TJNhHw+0gxhZ6YiEwAyJNGCaDusUKtY4QNYwd5v9dfgHYgCBdWSu9b7o9vFsEF1M7eFInD0XYTFxMK5bSZ6jOJ73OZA7aBefZS1a5E1o6APGFwX6sYDUm0EsOAuLtQdP1WI99zi07ikCioAioAgoAq4ReC4mWjTGZ86cEW0T/PGypk9F+8/fo5m7t1GSzCWZtHmRmw8SFkFhN2+TWyrW0HAjzryMz/CoWpC823dZg+cuAy3MK8AE6+aVhEOwsBvblVuhlMPzJPnwAIsIXt0i0q7LAyw8eYACk0A0mv8VgTbQDKBwlSZ7YucsrDOiBNMxfo4EpC06DZUz82hM0u7omeYcnu0szQjj7Lm4BkL1LKQKcfxXBD6VjsSeyMEtwf6co/v0nCKgCCgCioAi4AiBOGdA0FTB9AmNDcx4IHgYaFCnfD7a9+sGnkiuJPMwVk/wzMYRGAOQMrmYQmXgAZM2+OS58aAK/ITusRYPjR1HRm5JeRAGb92ZDIIIrth3h97KyKstcHRhVoKXKL2QO+sgA47hhRZMjvxWt+6sQXNM3l7ol9PEKwKKgCKgCCgCikCcIuB4KOQzPALEDiMt4ScGcocfzHoNygawhfU+PbxzUdaSFdssD6qAf13EnRDW3nFSYJdi8oeBFOG3eWQt74ez9kYYXIqkfO4uRYQ8pPAHTA752gkeWJjd6xwUfzKtCoggfvc9fYXg/Zc0eM8AqdwKDRrWtsW6ryqKgCKgCCgCioAioAi4QuC5EDxozjAthtHggeTly5GOsvqmodAbZyiCBzVEMJnDjyf94tEYbHblwRURcBqHbxKIHQ+uCLt+i8keyBv/CeOwGGQhRJBfic95RQRT0rCrHICvYwQu/8fvYZIs4pwenwieq0zUa4qAIqAIKAKKgCKgCFgRiHOCBxMtiJU4xfM+yB2IHqRZtYIUeusshfEcedC0hcNMyzuieYN5lsneQx5sAX8tN28egJEqObklSyr8LRwmWEwdwpMeR7i508OgYMrmeZhCmdjJ9CoSCUge+/U9IniO5hmThOgfRUARUAQUAUVAEVAE4jECcU7wgBWIFUYLYh1XEDzMwi9m2goBfDWUncfvEEbNYhJjkLzwkAfsj+dJYQ+YxLEGT7R70NYxXwu7y+ZbaPrkmE/w4Amcp8SelN37LCv/eAUL8dMDUWRy58bz6CXJIBo8mItVFAFFQBFQBBQBRUARSGgIPBcGZPzw0vFkuyB45lckZwbKwFq5sJuniZKyNo5JHS8/IWRN/Ovgb8erU0SA8LHZNQJTp/CyTeFM1MKZvIXDdMvkDvvM+ii750mseBY5gvaRffa+Z3ohmDATq4k2oRVnfV9FQBFQBBQBRUARAALPheAZM21qXsUC5lZD8HC+WfX8FBZygR5e5QldedoT4rm+MOWJGy9ThqlSIniy4nBMWAyfOiaBIHtYuizSwY4DCrnja6zBy5H4DGHFLPHRA+fj342IjLYRtKrBQxarKAKKgCKgCCgCikBCQ+C5EDyAaG+mBcnD/GyNquRnAneH/emYrLGW7SGvTCEmWj4MhykWWj32tQsPwwjbUCaDIRTB63GG32WtHvztsJIFyByHz530kuRXOC9zFunLF0H7gjIIwcPzQShVEjYCcBVQUQQUAUVAEVAEEhoCz43gGTMtRtMaDR62xXNnpNRJvejh9ZMUdoOX8+L57sT/7hb75LH9NYynTQnnaVWwqgX23Xn9Tijtwh88FN88NzbhhjHZS/HwLPm435M1bIkJngTigKuuZJVpWmCeVQ3ei1+cC/CyakN5OTksgRfTeQ1B6qpWrUK1atbgdXWHxfi+mKCF6X/wi0nZKlOmtPii2sdbsGABXhrvKypatIj9Jdsx3vvrr76knDlzyjm8E5aZs/9h+TgVRUARUAQUAUXAHoE4n+jYPADaM2jRMMnxyZMnbataYMH1ZjWL0g8zd5FHjpy8UgVr53h+O5nrDmZZTy+KwFJZmCiPB2nA506EyVs4k0BMqUL3QiiL1xFKysuTRWCdUTHbRgbbci47XbmXiLK+4Bo8rOGLZctu8bJtZvUDNPJYtP727TuC5yNkZIMBLViAHgNarAIy4s2YXb16TbScuIY8wVqpFy5etMWN8+XLlyMsSXZfTOI440A4X31Yw7pl6zZeT5XnNHwGAUmCCd+VtGn9Mn377RiqXasWlSldirBeK6QCr+eaKVMmemi3agfiTJMmDb9LWZozd76Q/XK8zNuaNWtdPSbG18aP+07WWO7e4z26cMH5+xfj9Xv79ulNp0+focGDv6CqvH5stqxZ5DlYbzhL5szUonkzqlqlspwDDmPGjpf1fuvXq0fp0qelbNmy0ssvt6KbPAfi4iVL6NNPPnoinVhj+MtRXz9xXk8oAoqAIqAIJGwEnhvBA6zQooGUeDMhMHPiiZm2Uj76YfYWiuBxFsRz34XzQAt3DyZuvIUZlg9kcIVkDdp/nvNOOFwY++YFR1739zqFgbUUwZMei8mWg4V4pKTgsDS06pgHlcr3aA1bieTF+/P5oAG8jm8Wmj9/Af340y/yAiA0X44cJsSse/f3bC8Fcjdp4jhZCg3EA+ZqCMjdpInjZV3aN958W8jbuz26U6FCBeU61kNduWoV/fjjz0IMQZqw5m1MpG69OtSjR08hlTEJ7yjMF0M+l7WKw8OZpDsQdy4HILmtWrUkfz8/WrJ0mS0UCFRg9Wq2Y+sOytiEiZMpA2uP3+/Tz+G6vNbwsdnHcmsoz3fuBLu8befOXTRx0vf0xutdqds7b9HpU2eEeOKmZMmTyb0g8Ybgmi1WgcmcOZPkHQKlYzIIQm00hr9PmUo7d+yS+z/8sJ9s9Y8ioAgoAoqAImCPwHMleGiUzKTH58+ft5lqyxTMTCl5QMWdKyfJ07cwufHoWP4fSdR4Lrxw1tC5g7dh8mNopHCNfx7J2VyLpbp43z9NpPYkci69yNfacJEXpE+UhDac9RDt4Yvqg5cvX14hd1iXtgpreH77far4L0ITeuXKFcrk6yvE6OzZs/Li0GyBSPv6ZqRcuXLR0aNH5TxMgF7sv7h161Yhfa+91pUKFChA06f/RWfPnRNzX0BAbtvatUuWLKVNmzZTKEzkDgSE/bXXugj5mDnzH6fkDrhnz56NTp067SCWx6du37nNGkqezNqigX18lVexS5lCDpMzIfpi6DB+d57U+pHg+YsWLbYRJHOeF7rjcTsedORIJAbmfFxt4e8JMYTMVbzAE+vJ7ty5k0mhD1WqWEGCZ2IClyN7dlmv+ezZc3Ju3/79skW8f/09k5AvrV9+iQn4atYCniZo/SDAIAsT//Tp05GPj49MPyQX9I8ioAgoAoqAImBB4LkSPDT0IHgwmYGcGF88mGkbVitAU5YeJ4+IwkLa3FPw9CiSsAhy44Y9/BZrSHikLLlzErHYLP8PYzJQJG9qCiyWgspfuBC5Bi1MtI/suOfvpaX6pT3plcqRa+Fa3jPWu2nTpmH3QE+6dPmyEBCYm9Gg3mYNjhGQKryj1SwKrRneE+ZSaHrSpElNly9fsZEoc6+rbc0agUwgImjGX39T+1faUrmyZWjN2nVyy5YtW6l+/XpUnDVYhuCVY9Mq0gWNEDRwhuAVL15M7tnM90CKsg8X8mH6jL/keP0jc6cc8J/du/eYXdlWrlSR8uXLJ88+dOgQvc4EEe+3gc2Cy5YtjxI2V66clJk1jEjnuz3eoUp877vv9aJz584LUevfry+bV9fTXDabGhkyZJjZdbiFhi9PngBavGhJFHKHwM9qHnb4wFiczJIlMx0+fCTaO1asWClhcjPxfumllmKyRVmC+Pn5MSn3ZT87f5ox42/at28/de7ckQJy55br+PNqh1dkH9eMYPqhGlxGjh8/EUWraa7rVhFQBBQBRUAReK4ED/AaMy3IkSF4ID+NK+WlX2dtorDb19giy+Qukt1F5gjmwQOn4ylU3FN4UnH/JFQlTxImi+60YHcwfTfnAgUWuUDhnPoInijZmGhrl81DSXKGUpaMkQ1oTDR4WDcX5tDFi5fQsuUrhFB0e/st0QDCH+3osWPsQzWUyZ03TZ40kfr2+0BIEhLaq+e75JPUhz75ZICkO2PGDPTt6K/p9TfeYm1NRWrRohmdY81lxgwZ6aeffhZihIYZzv+ffjbQofYFOMEXbu/evaKhatWyBdXk8IbggawJwWPyNmfuPCGdIG4LWZtVpHBhgr/Zb79PEeJZrGhRNo3f47j2Sfpu3gwSH6/GjRvS0qXLbSuMyEUHf/yZeNSpU4tOnzlDjRs1IAwaOMLawfHjJ0YJDU1tr17vUepUqWnnrt2iBQTBq16tGsGkmDdvXtFIBQcHRyF4USKxOwCRzJ07lxDj3Xv22q6CcH74QV/BzpnmzwRGupCnU6f+IacaNKgvGrVwLn/W4mbCY8vFjt1APenwoSOS99Zr1n2QT5BXkOS169bJvvV6wYIFWIuZXU5Be21k0uQfmCQnpf79+tC0aX/QsWPHaRz79RkZMeJL6t+/L504cZJm/j2L2rZrQ1mzZKE//pwu5bR0qZJ08tQpIdh4P5hwVRQBRUARUAQUAXsE4pzggbwZDQUeZrR40DpA6wKSB3+8SkWyUTLW2oXcOU9uqfOQW6TlS9Ln4eNFZXKnpIq5eJJjnitvzsbr9PXRR6ZaDlHE5wAl84okdtB0QTAc+KF3VtsUKWj8kJboBCQh5H4IL3nGc/KxgJBOnDSZ9u8/ICtxjB3zrZjWVqxcRQcOHiBpYFkLBu0czGjwE8OghZs3b1KpUqXoIGu6QKrat3+FPvr4E2nAoelDvBAMCsCgCWfkBFozhF+1eo1oBjdv3kyVK1cSTQ/wO3DgoPh/5c+fT8KV4gYfccO0GsKm7ZYtm1NOf395VqpUKWVQAsyEkClTp1GP7t2oA6etbZvWMlBiGpOf86wNdSRYbg6C/IIpEaRr6LARkofW8DArLl2yjNoxGanGo1dBNpHPGAkKKZA/crtu3XrrbS73GzVsIH5nGERgBpnghtDQB6LNg5+dEZQ3f38/IW8nT54yp+V+DEgx0q5taxl0YY5dbX/55TeXBA9aWWjxWrVqIb8DBw/S3DnzaNPmLRJtRfZnrF27luyv5gEeGx5pSwd/PsD22N69e9r2zQ7yEnHnzZuH0mdIT3kCAoTsm28KxLlYsWJi2k6XLq0QQUP+TRy6VQQUAUVAEVAE4pzgQasB/ysjIFow08KHCL5ERosHc2L9ygVoxrKT5OFbROY7Lp+XtVe5k9C9BxE0b+cdGj79GtEDbsiZxGXP/pBKZA6m8lnuUI6H+yjRPR54gQEZj1R/YcSvkjS7NOBoDEEsjX+TSYujLYjCZ58Nsl0CsTMCjRNMk1lYgwIBiapSubKYTkGsoBkDvSxduhTB3wrkb+PGzUI0goPvUAM2pcJXDP5uhqSAuOHnTKCtg+8dngWBDxb88GC2hTYMpHX79u1yrnDhQqKxA7k8ePAQYxtJ8KDFM8+DSdcItE0w62FwQvkK5cScW5gHXLz7Xm8KCgoywWxb34wZZR/EEqNQgakzYrqK09mmzctCeoBp/w8+ovPnL4jZODCwumjiDPmxPcDJDgZHNGKNIYjjn9NnRAkFjVfv9/tGOQfT8Lfffi35MXjI0CjXrAdbt22X9CNeVwKSBdO8K+nTt7+McoWWsnLlipSfNYsYqWze8fcp06ScTBg/VqI5eOgwfTZgkGhn69apLeeA5T///Mtaz110hUkdpFrVqraBLgMHfCrngB8Gd0Bgir9+/Ybg+8P3E2njo3IiF/WPIqAIKAKKgCLwCIE4J3ho4KwED88ByYNWCiME4a8Gkgei0rxafjp+6hzVbZCUgh960uy1V2jVlpsUcf8eubNJNCfzqhIZQ6hclmDKmDRc4gFZ9LpwhTxANizm2YdJ0vAytYnlOQgDMY2tHMTwDzRzdevWoRJsAgVRxIhGmFkhIF0dX31VNHYgUWuZ9DDrEfIF8gTz4bffjRUSMXDQEJniYgTPw3bq9CkaO2a8ED1XycCcZ/7+fmJ+HDIkknQCO0i1alVo2h9/Cm4gbSB9GFwBM+zKlSvlmSdZswhiAlMqCNtD9k/cvn2H3G/+gKxNZdMg4nr7rTepevWqBKK49pGPnwmHd8eoXZAhM1jCGbnDPddv3KDXXn/LRhRB9CEv8QhYmLdnzvonWpMwwsMn7ZNPPhSivpz910w8uOZM/Pz95JLVT81R2K+++sbR6ac+B1KNHzSjdevWZqx32uKC1hM/I9jPlSunTPdyhgfHZMualQnhVWrSpBFrj0Np9tE5EnTBwkUETSdMvG+88RqN5ilijh09JiNvmzZpLD53zZs1pVdfbS/medMRMM/RrSKgCCgCioAiAATinODNYAf+VmwmtArIAkgXzLSXmYAYLV61otmp5+V7NPT7zbxUmT95eCehXGlvUukcD5jUXaW0PhFC6uAnh/tBEvG7f+6qTIocuUQZ69DYcepB4qhLlEHbhLTEVj76sD9ruY7TsOEjCRo8qxnt2rXrbHI9JhoWaGwwPxvkrTdfFzMu7rt+/bqcg7Zy5MhR0ghj0EFbNg+O4GNXUrNGdbkMrd2tIJ4E+pFcz3OdB0gUoVIlSwhp3cFTcEBLVqlSJRkla9XioMFv3KghwR9w3/59UUgGCOiRI0eEJIKsmbRaiYh5ZkM2kWLOPcT9wMmoWhPWbK1aQOCPOdzq8XQqV5jI/M3+ZNFJnjx5qF/f3jwoI6UMOMD0LTGROo9Mofss2teY3BdXYTASGCOTnQlI+qCBn4nZdSWb+pFH/dgHD6OjMXExSHDFChVEM4lBJZgfD1PfQJo1bSLfy9x5kYNTQLYxGAZawBNM6PE9qSgCioAioAgoAvYIxDnBwyAAjP7E4AAjaOBA0jCa1kyXAlIBn64yRbLTvlPXqUrJNFQ283lKxXPjRRLCxELqoPXDD5o1bEH07l7xpwfnL1HYzYs2k2God2Ye9ZpI/NHwPEw1gbREJyAi7V9pJ2FhjoVjPxzaQe5ASP38crDPV6T5DHHBJ6xp08a0d98+mxl0D5tqMaDCNMJ4PuZp27FjpxCsS5cuURJOPyR//nxM1EqKudWqEQNxBWED6ZrMjvjWa3DW/2rUCBk5Ca0ktKB7eOBBiRLFZY43q+bKEDzgZDXP5uaRmfD/gtl6/YYNMtExfPvwblazNNLeuHFDate2DRO7UPqVfdFiKzC/d+3amUlLebp27RoNGjTYhpV9XDCHQoOIwSdlWfOI/MAcciDDMSGWIEfQdmHSZpDv5y7cmYiJoKx26PCKlGXkN0bTLmYzPkzZyDdoV8PYN3LChElC2EAS4SuJzs+FCxfEpSFr1ix07fo1CuLBMSD0RqA1BDHEN4TvKiY4mXt1qwgoAoqAIpAwEIhzggfY+vT9QEb+YTSoERAHjBAF8UAjBpJy9tINalc5PUWUTcoNYQhfSyINFsiOIXTYohHDD2QAkqh4P7qWnRu+i2fowfXD5HH3DIWnKkTJ+D6E2cwkCGmIiaAhhjM8fNYOsqM8fKL6vN9LVimACW3LZiaJlkZ946ZNPICiHfuk/WSLHuZNkBNjLoP2BRqW15jkPOCG+c7tO/TV15HmQWji6tSpJQQUOBjBJMMwZc6e/W8Ucofr0AZicAWc6zFq8iqTJpA3EIUtW7aJRs7Ec/jwEZ7w+AZPapw6CsED+fnl1995BG5d0RjBRI4BIZMn/yh5gftBrj78oJ+QU/h6wTx42UJuzTOcbdPwM19irV0VJo7IL5iLBw743GUceG8M/IAg3bP/nUMLFy4WsuPsOTiPEc6dOnWkClzGkHejRn0TBQdX9z7LtcT8XhCUUXQCnAmWVoOfJog4ygM0mSC7IL13+L61a9dSGZ7+Bt9IIv4mvLkcQmuLfMYPeQviO2vWbCHgWdmkC4G/J94ZEy0X5DkNYcrHyNsrV646S4qeVwQUAUVAEUiACLjl8A/AOIHnIiNHDLVp8uDLhQYRc7dBS4VjNMyGvFkJHUgXGlCQQRA2aPRAPvCDZgsaC2g8QEJAFKHdQDjMr4cRix9/MiBW74NnIU6jNcPz8SwrAYtVhI8CI034IY1GEC/eGe/+/yXJkiWTNJnRtdZ0QPuGCXZnsc8ciGRsBPkEclyoUCGaM2cu/cu/mGBYr15dxj6cp/5YEUVT5erZKBuYIy4/j9D9ZvS3dObMWVfB4+xa1y6dJE8x+OMGLyHmTCrypMYFeRTxD2xmRp5D6wtCli1bNiZ8PlKmcS9GgYfxCi4YRNGtWw/5LnAeBA9kG9Pp7GfTMwjeN19/Ke+J8v754C9k+pzAwGr04YefRJmfEferKAKKgCKgCCRsBJ4rwQO0GAiApaag4UqXLq0QM/gNgeyB/EC7gR8IHogWyA+IgpXUoYE0AhIGcohGDqQMRAmO+Dt4tYC5c+fTtu1RBxWY+3T7v0HA5KnVH+95PhllwxDz5/mc2Mb9rOnC95CeXQSgBUUZB6HF4CVMoWJMuUgTwsWERMc2/RpeEVAEFAFF4MVG4LkTvBcbHk29IqAIKAKKgCKgCCgCLx4CkXNwvHjp1hQrAoqAIqAIKAKKgCKgCDhBQAmeE2D0tCKgCCgCioAioAgoAi8qAkrwXtSc03QrAoqAIqAIKAKKgCLgBAEleE6A0dOKgCKgCCgCioAioAi8qAgowXtRc07TrQgoAoqAIqAIKAKKgBMElOA5AUZPKwKKgCKgCCgCioAi8KIioATvRc05TbcioAgoAoqAIqAIKAJOEHguS5U5edZ/9jQmV06VKiUvF+VNbu6PJ1X+zyZYE6YIKAKKgCKgCCgCioALBBI8wQO5y+TrS8F3g2XVABdY6SVFQBFQBBQBRUARUAReCAQSvIkWmjuQOyzerqIIKAKKgCKgCCgCikB8QCDBEzyYZZXcxYeirO+gCCgCioAioAgoAgaBBE/w1OfOFAXdKgKKgCKgCCgCikB8QSDBE7z4kpH6HoqAIqAIKAKKgCKgCBgElOAZJHSrCCgCioAioAgoAopAPEFACV48yUh9DUVAEVAEFAFFQBFQBAwCSvAMErpVBBQBRUARUAQUAUUgniCgBC+eZKS+hiKgCCgCioAioAgoAgYBJXgGCd0qAoqAIqAIKAKKgCIQTxBQghdPMlJfQxFQBBQBRUARUAQUAYOAEjyDxP/DNk2aNFSsaJEYP7lChfKUOHHiGIfXgIqAIqAIKAKKgCKQMBFQgvf/mO85cmSn5s2bxTgFr3XtQsmTJ4txeA2oCCgCioAioAgoAgkTASV4CTPf9a0VAUVAEVAEFAFFIB4jkCgev1ucvVrjRg3pwoULVKNGIAXfvUtz586n997tTv/M/pdWrFgpzylRojhVqVKZ/Fgrd+9eCK1Zs5bmL1hIiRIlooEDPqURI0dR2zYvUxE2yV64cJEGDRr8RPqqVK5E5cuXo7HjJvD6uHcoSZIk1LBhfSpWrCh5836iRB62e3x9falzp1fJ39+Prly5QlOm/kH79u2nhg3q0/UbN2j9+g1y/cjRY5IWnD9w4CAVLFRQ4n7w4AE1adyQwsMjaNz4CXTq1Glb3LqjCCgCioAioAgoAi82AqrBi0H+pUmTmpo2bUKrmbSVKF6MGjHpmj9/AZVkUgcpkD8/k6mOtGrVavpswCA6fuIEpeZ7IG5ubgRT7LtMCI+fOEnffTuW0qROJdesf0DuXn65lRA1kDvI6691oaxZstCYMeNo2LCRFBYWRm78D6Sxf7/3mZSdot7v96Oly1ZQ717vUYYM6elB6APKnTsXubu7U6lSJalcubISV778+SjoVhClZb+/atWqUOVKFZnYTaJdu3ZT69YvSxj9owgoAoqAIqAIKALxAwEleDHMx7Nnz4pW7ObNm7STSdH+AwcoWbJIf7jWbV4STd6OHTspKOgW3bnNBC0iIkrMO/naokWL6dLlS7R9+84o1yo/InfDho8kPAcSkDs3lSpdin786Re6ePESXbl6VaKMoAgqzhq95MlT0J/T/6Jbt27R8uUr6PSZM1S1ahU6f/4CZWLtnr+fH+3du4/yBASQl5cXk8rUdO3adYnbx9uHvhn9HZ1gIrp79x4CgVVRBBQBRUARUAQUgfiDgBK8GOblXjZ/QsLDw2nr1m02/gZtWvbs2Wk7EzhXsmTpMrkMkvXrb7/bgiZOkpjasAZtGWvhzpyJJHe4mDNXTjrG5lUQOHtJnz49nTx5kh4+fGi7dPTIMdbgZRBTcqZMvpSfNXYgb9DyFWKzLLR/EY9IJ8y39+7dk3vv379PiTwS2eLRHUVAEVAEFAFFQBF48RFQghfDPDTkCMFB8oxg2hKYQ4ODI82qIHwFCuQ3l21b6/22k7xzP+Q+jWZtWv36dalIkcK2S97eSTjOYNsx4jQ+eDeDgihzlsxi/jUBsmTNQtAuXr9+g5ImTSqk7sDBg6JtDAysTpcuXTJBdasIKAKKgCKgCCgC8RwBJXjPmMEgYcePH2dft3Lk4+NDXbp04q237Mc06kOHD9P3P/xE3d/pRn5+OeS2Pbv3UkCeAEqbNg3lYm0etHwgifDB27NnL2vdPKgiz4sH8ff3o7wcdvOmLRLm0qXLlDZdWjHJ7mZzcmHW4J3nQSIqioAioAgoAoqAIpAwEFDbXBzk87x5C6hTxw4yghWDL44cOUply5aJVcwbN26idGnT0vu9e9HAgZ/LQI197EP35cjhopUb9dU3NGTwIPbAi6Dbt2/TmLHj6c03X6cWLZpRqlSp2R9vOh05elSeef78eQp9ZL6Fb14Qm3nhm6eiCCgCioAioAgoAgkDAbcc/gFRRwMkjPe2vSU0ZhjE8KyCgQwYMQuftriU5MmTC6FzFCeely5dOrrB06JY/fEchdVzioAioAgoAoqAIpBwEFANXhzlNeaVex4CbZ0zgckWc+CpKAKKgCKgCCgCioAiYEVAffCsaOi+IqAIKAKKgCKgCCgC8QABJXjxIBP1FRQBRUARUAQUAUVAEbAioATPiobuKwKKgCKgCCgCioAiEA8QUIIXDzJRX0ERUAQUAUVAEVAEFAErAkrwrGjoviKgCCgCioAioAgoAvEAASV48SAT9RUUAUVAEVAEFAFF4L+BAKZN+y+IR6rUaQf8FxLy/5WGVKlS0Z07j5cE+/9Kx4vyXMy9lyNHdlmtA+vZmiXYcD5z5kyUMWNGevAglH/PZ9oYgxOelSVLFrp69Zo5ZdumTp2aSpUqKWsEp0qZii5dvmy79qLtYN3h9OnTUUhIiKwn/LzT7yx/7Z9bqWIFSsLL6WFtZWdSvHgxqlkzUNZERhgs6ffRh/1p85atT8zb6MErs+QJCJDJvjHht6Mf4jBrKGMfywKm4xVbQni5P1MOcT46Kc1lA998TOasxDOAiYk/e/ZshPJ182ZQdI95puvI9xQpUnA6I5dAfNrI4iL9+NY8Pb2iYG/S4+npSc2bN5U1sFFGISlTpmCMYlavdu3amXy8vQkTsttL6dKlqHDhQpQ7d64nfnjGhQsX7W8hLMtYsEABusNLR7Zq1ZJ2uFgjHNhYl518IjInJ7AUJMo/5k99XvOPFipYkB7y+uHW8u4kOc/ldIYM6anP+70lX7w5f8LDI6hbt7e4fs8g87Jiflb87t593AaYhCRJkoRq1Ah8Is9SpEjOmD2ZZygrtWvVJKzo9LwkJvUVnv2030uJEsUpWdJkvCjBdapevRqVLVOaihYrYqv7nuW9mjdrKuXZ0br00cWr8+BFh5DlOj7svn1602cDBlGrli3ozNmzhBUoYiLvvPM2+eXIQe/36ReT4P/JMLX4I6xcuSLPvXeVkiVLRocOHaKZM/+RtI4cMYzJ1lUKDQ3lpdVy0e+/T6H1Gza6fA9MMt27V08Jg0oBa+0asj1jxl+0es1ap/cX5AowX768dPDgoSfCJEmSmLJkzkyZuGFKxnm2e8+eJ8I8zQlUaKikUA7ML1mypIJFau4opOKGPw3/Fi9eQitWrrI9wj7v0Sj++MMkeu31t+QdsETda6+/KcT5JW6Uho/4kvLnzycN1F1eCs+QC6xmEp282qG9VFI//PiTBK1VswZVqVKZPh/8BY3+ZhTNmTOP5i9YaIsG5RlrG0+a9D25yl+QHCzFhwYNxKNz5440bdqfhHxLwbisXbfeFqfZadigPl29do3atWsjpxAH8qz1y61sK62sZJzOnTsveH7yyYe0bv0GCQsi5eHuQSdOnpTjgNy5+RnrbOUNJ7Nly0afD/qM3uvZ2yHRlxvt/iDfunfvRh9/8pmQJ/S0DTGxCyqHPXu+S8eOHqOZsyLLeY3AQPL08hS8HIV/1nPA08/Pj1enSSkNxXffjX0mkves6cc32q/v+7R9+w6a/P2PT7yep2ciatqkMW3btp0nXL/JnbzMlJXXxW7WtAmvtjNO8jZTJl8aNnQIXeT1sDNlykR4p8aNGkpcvr6+vJRiIapTp7Yco241pAuNPsrPXl7RxyplmPi5FywgabKeR162bNGMV/WZId9ksaJFrJef2H/7rTfo1OnTNHv2HNs1Kc9cviFB/F046gTgW8eSlHv27nVadtCZadiwgS1e6w5I+4oVK23ftfUa9oFXnz69aCJ/k1u3bpPLwMRKJpEvWAfdlWDJSqxPHlvB992r53tCxj7+6APBP/juXcrNS2YGc9qHD/uCtnAnLTj4Lk3740/pSHfq1EE69zeY4Ozi5THLlClDM/76m+rVrUP79u2n5Fxvok5zRLi9vBLTSy+1pGXLV0RZfz226baGf5r6Cvc/7fdSvVpVKUtYTSri0Vr14WGP16y3pi22+40aNZClRs+cORvbW0kJXiwgK1asKO3cuUvuwP6cufNidDd6BVgPNlEiT9Y6ZZZKL0Y3/ocCocfc+uWXqG+//g61NlbiWq5cWXqZP9joCN7Jk6eoe4/35C3RIKDS+vqbb5/5rdGzRyWPXhRIS1zJ6691oQDWMmFyaawegsoTmpZ8+fLRdH4eKqgMGTLQgQMHbI90lPcgwZjAGusMZ2eS4sHENjM3fFiVxGgkQYrmz19I6x8RHluEsdhBuho1bihL3xmNakXWPBiClzJlSirE5RLkLLr8RWMy5rtvpCfvxQTnGje85cuXk+3xEyeeSJW/v5+sofzDjz9LmUcANHp1uSE/euy4reE0hN7DI9JbZPz4iQgqHajETNR//32qHL/xelfZWv9gPWbIrVvOJwM34VEmofFNx5iHsWYERBjlbcrUP2g559v/l0CzUJx7/yA9uXLmlAZm1FdfU4P6rWnIF8OcEoj/RXoDAnKLFmfnzp3040+/xOiRKBtYN3v4iJFRVgi6ywShX78P6fvJE/j7OCjkBlqPTz4dIJp/EInuPXrayJ152IP7D1hLdNccyhbfjyNyExhYjUBE1qxZJ9oj6014FxBD5LcRaGKhTQYxBAHF94D0374dqTX9gdcH37Z9uwSHhhnXISmZfEPQ4Qt71IiDgIEQGgHBQFz2gu8dbQdI62UnloV2bdtIGe34agfCz93dTb6d9/v0Fw0R4kTnKQNr0xwJvjMoEw4cPEhDhgxzFMTlOXQuNm/eIp0aLLl5mklwndq1CEtyLli4iE6eOi0kzqT/ID8Hefvt6K+k/kZ+wYKC+vHhw1DpoKAeBMkzAnygJEjJZDJ1mtRyumnTxtKpw/M38fM3bdpsgsd6G9v6KrYPgFbbKugYJE+WXMry4SNHeH36E6yBfWgN8v+yrwQvBrCjF4ICm57V1vdYJV24SGFCzxMV2U8/R1/xFSiQn86ePSeNesmSJW0ai7d4LdmVq1bTK9yYj+OGDZqWvHkC6IMPP5HeGj6ABg3qUbGiRdlE4imN4qDPh4h5FGvW2sukyd/TKf74UNhe7fCKVCTQTixijdLChYsleOPGjeSDQ4PfhBt/qN7HjZ8g99nHZz2G2RWNMAjOtWvOtZaoCAty7/oEk7e4EFSItevUovxMVtCDRWUzdtwEW9SouFEhojKdyhol+96+LaDdTjXucdWuVYM1JamYmK2kv/+eaQtRt25tKle2rGgAr165Sj8ySTl2/DiN/nZMlF40GohPPv6QBn0+mEBWoXFA5dqp46v0zejvJD5HeY8L0EykZVNkNtZUHeEKAWQDFeDVa1flPrxr3jx5nprgIe63336Dxo4dH4WQo0xlzZqVy+NZqiAE7bo8L7r8RTnq1Pk1KsJlH0R3xMivpIdvtC0SieVPyxbNpTeOdZGhrQGBZFunhKhSuZI0YEFBt0QTgJPADfLZpx/LFuQX50B6IDD9L122TPbNHw9uNO4zATDk1Zx3tE2c2IuS8C8/f4sbueFYvXqNmJdQbgrkz0/uXLavcF5fYi0TnjXgs8h0eLPWMl/evNxRqCHR4tviF6Hi3EhDBgwcLPfIwVP8KcOdEBBOCMoY8KpWtSrH+7ntfGyjjYv0V+Y86tzpVVqzdh39xOTOaJGdpSU3a+1R9+A7AGlzZVqGi0fSpD78Tefluq0IoU7EfegEQ5t7hS0BkP37D1AW1gaiU2Ivhw4fiXIK+QLSs5O1RyiTbvwP5Q3EoglrGBvUr0tz586PYm6HaRD1CcoP6kBoIEFKTH5YH5CJ6/thw4ZYT7H2eIDtGNqy3u/3tR0jjr/+elyn4AJIDe6B1tqQI9sNj3ZQPwdwG2AlczhXsWJ56VSa8FiL3Jmgc5gxQ0aaaiGzzsI6Oo+2qud7PcRaY66D3IJY164d2WGuX6+OaPCgCUedDzcSbNFJvcxYQCuHdiApmy0jXXp82Mz42BUKZvT+/fvQbdYI3mTcQ0Mfki9/d8e483fy1CnJF/Psp9nGpr6K7feCDj40nFZBWYJFAe9slb79Pnii02K9HtN9f38/0X460ii7ikMJnit0Hl2DuQ2mo08/+Yi+GDpcGsa9e/YKcYrB7VSqZAnawZq/W9zDq8kms3//nSONV05uvIK50O/atYfav9JOTA73uMFHQTnJpin4PNxkTdFXX4+mxOhlcgWDRg8aC5ANI+j5gBiigYJ0ZfMBTFFofDKyRqkLH6NXuo41NWnTpGGyWkKI6rjxk6g8azZao8c9fKSJzuEWviDT/phOMGvgg501a3aUhhWarPavtKW8efOIbwxwelZBpdK7d08mp4uksoRPV40a1W3RotJ9pV1b+nvmLDH9vfpqezZt9Lddd7YDsg6N4TejvxXS3K9vHzbDHZXGwdc3IzVjn4cBbCq6fPmKkCFj5rCaSBA3/IfmzJlLJ06clEehMbpw/gItXLREjvHHUd7j/DX2HQQJwztAS+fn70fubu6s3TqGy2L+hPkavVs0sNAYxlS8mMj07NmDZv/zL5vRD0e5DRpoaI3++HM6VahQXioN+NJFl7+IBPnx5huviYxx0eEAAEAASURBVPakz/u9hNgM43IDH6nAwOpSOS9btlzyoig33EajkS9fHtEAoQyiEUc5ysI94JYtm9vShsYB8i/jCUGjDs0KTFmQutzJsheY9IPZ1yomsmrVGokP6Zw9+18uwznog/59xTx9l01NaHwXLlos7wTt5MBBkY35a5zHMOMtXrxUHgPNdBgTCNN4IywE5caRVkkuPvpz715IlIYd7wcN6vcW0+fUaX/QoIGfSd0CsmckNvE/TfrNc5APIAjorEDw3tGRO4Rr3+EVMUkuX7GCFlnKP65BQJThf4l3xnfs7+fH2qgb1OiRqRZhsA/3Bh+uu0pwGMg5JhuOxJOJG77hDRs3iqYQaUZnzSreSbxp6BefS32J/DzFxMEqCI9vHHKUzfCu5BznRdfX3pQgqD/atW1NPXv1kWOQ//Llyrm6Xa6h7EFJMGLkKIdh4U7RonlT6YxHdiQifcJwHnWco3xAHQJrgOnkIGzNGjVo5JejbPUSHhab8oPwqM9BTqBYcCTQVnXrFokHSB3axmSs0Xz9ta4E9xoQ/OnT/xILxZo1a0XbCOWAEWgXO3bqauswDx06mPNyk9MObWzTj+fEtL6K7feCDoTVYoVn9e71ntQTqBfwDdl3Ep4m/YjXSL16dSmwenVuw9fRPLbsgGTGRJTgxQAl9AbA0C9cuCCNFhrjRdwYgJxFJ2g4YIoYNmwkBd26JaQAmh+QhWTJk9EsboTRQBYpUoj+4YYHvkfJWcuCBjIfk6U33uwmHy8qRgg+chQe0wOE6akkE8iB3OOHahwaGqjVBw8eKo0VNBLrN2wQp1cQPIiPtw8NHTpCGvWkXPHCGTQmgndGfDBvlS5VSnzFTEFDJbOcG2P0oAMDqxG0k9+y2clRpRSTZyFMfe51I36YBSDw76AI2ZU/cASGtgAmWVTQ8HlBbwxpdCUw26IXbcLBR68I4420I7/gVFyI/YJWsXbVvlEw8eIjRv58ayHaU6ZME42BKRfO8h5kDYMTQO6AD7QXyEOYl4xZAsQMWpwunTvSiOFD6bsxY2PssJueK1z4IN7iPLEXVKLQ7IFUolG4zmnJ7B1pbnCVv2hwUIkdYJ/HCRMmiS/i6G++4gZ0sFSku3bvFo0enofGewP7X+ZnzRiEX5GKFC5MIfdD5LhkyeLSGOO8EbgvQIyPDjRCMNGaY5jX7AXamfv8Do4E+QNsrRpGfFPQtMA5Hqbwzl1etzUw1jjwbRpn8JD79+nO7Tu2YzfuYF3njpS5bu57843XnzALmmtmC+0yCLGR0vxOofysrey/ZgRlASS8eTP4sD3W0sQm/qdJP54P4tW2zcviY/k9myfRUZTMM4lzsR3JpAWkGRaHWjVrsv8V+9CuXit5gNtC2QIASwLqun+4zgsIyC0mTmuU0GTjW4afZjrWCKXhzii0fMYv0xrW7KNeRL6WZZ8vlG1T30RwRYHO8PQZf9u0xOYebFFPQuw7bXLSwR/Ei3YAkoHJz+kzZ23H8BVFOXElMOnB9xT+fo6c5VFfQps7nr8txD9o4KcE9wZotWDmXMuaVEfSmeuHJIkTE8z6pVgT2patGWPGjBPtpzV8bMoP3hUuLlWrVhHrkel0mvgqcscQliTkIwT16NvdeoiJ9stRX0s71L59O5o0cZyQnbxcTyJO+HEasRIg1JPoZKFs4Dz8mNFGAm/j+xqb9OMZsamvnvZ7AYHs1fPdKMoW1OPwo/7o40+jlK3Ypt/gZLY//PAjl2cPcXGB9Wnp0uXMHWZHy0GU4BkEXWzzsHasKptPIdV5hExBNvMcPnyEUqdKbfPRcHZ7zpz+on4+z+QQAv8jNHCbNm0RLQ4aCoTZxoUfH4Fp82CagnOq6Zk5it/f358JQCcmUmPYtBMZP1TliAfmHiNHjxyjypUqmUNp3KGxgUDlm8gj5sUAjQ/IB7SL/fu9z2aJfhIPPkZcg8DJ9uuvRlJRNueBND2tAIPtLkbB7dq9RxoExI+KIexhGGsIHPc4rWnIkT07peKPEw2akX3798suGhj4Q2EQDTRM89jvZP78BVE+VgQEOQMhs6rMsW89dpb3+DjRa6xYqYJo/DCCMDunCWTWmGjxDGhwBg8ZyqMUm0lFgh610TjgujOBmQtk/rWuXYSgWu85zuUijEkFGgaESczEzSrO8hea23ucx+PYPA7tGpzZIWgI9rA221phL2UtXtZDWWwED0QZAzRSpkgphAvkCx0C+Cwa8X6Ujp9/+l5OicmWK/6aPBoP4s73/MMVmlUQT6gTggenfX82e1vN+egMwTkcEtOG3fo87KdhjSq+fXsZMfJLqYDtz1uPrRjh/Zo2aSSmYvtvHANhPv74AyE4GJUHiW381uda9x2lHw3s+6wpB1FCIwzteyQxZoIXQ4HGZi77JKPj1Lr1S2KR2M3fJ8yeEJCUrVu32cpJMyawIM6mowqt2Ey2CuD7O3jwkPxgck2XLq1DrQ6+s6PcqYMg/ZPZPSUH5zcaXSPQ7pr8NufMFh12lGcIOgp438h3NiEcb/EsEHPTEUMokIn7j+JydJePj7eYPFFfQBO9hXEwnUsTHu8Mzf+JR/6s6HhBGwb/Owy6clZeJ0/+gT74oC+bfgeKEgJtgekUmbixjU35QfuBMmjVsFvjwj7qr+PHT9iflmN0nqCdg/Tv10c046ZtwDl8t+9w+wHrBNpQ+NzhHOpLjB5GBxjvbywnuCc26Uf42NRXCO9MHH0vJmzt2jXFXQrpNYK68OWXWolbgNXtJ7bpN/GZLVxRNnIHBnUpyhC013DvMsoEE85+G/OW3f7OBHTsxVME5OFeCCoo+ISh0sJITWgYohP0quB/NH58pEkVjuEP7pcUgmdVR5mRNyY+aJGMAzrOofK1Cioo9B6mszochcoIpm9A4wGnfTP1AEyHN4MiK1oT7lm2IIcYdTlu7LeiyjdaPBMnPn6Yi1OkSGFOPdUWGFhNcNCyOZPChQtJBQ1yE52gcsVAA2slbb0HjQLyGqP7YPpJnjwZQTtnFUy9gukd8I6OeuQI6yzvQfDgg4eytHXLNjFn3Au5J1jCbGUVVLaoKKDBgi+YlaxZw9nvgzzlz5+P3uHR24PYPGUaCMS3ceNmatCwPjtEj2Y/m8iOi/V+R/kLTTMa45deail+ccOGf8maxS+E7FuJC+KBrw40NkYysvkSDTL8ndAR+fPPGeaSbYuKFNfRmEEaNWwoJs+//v5bjuHCYC94J/Rq7QVa3GbstvAdazKMoJGFFnEam0Ax0AkmKGujY8LZb+HDaN4vW7aslC1rNpp6/A/7YOLP98RJFyfQC4dJC6TIXjASDyP0MTIPpjkIpqN4GolJ+lEmMPAB3wQ6lRDxmXyKB4LoweQ8gzVnQUFBthhQJ8Fv2Y3dEIzAZw8O6RD4RtoL/FdhIsTgLqvAtIoR+wMHDZbTiAc/ELyYCkgd3F4g0FSVK1cmRgMSEBaWgzVr19oehfoB/qSOBO8Md4nr3GaMYu1Wt7fflI4x3Ges+FhH3SMefGv4DhctXvyENs76HJAgWGtg/oZm2toWWMM9bfk5d+4cD1p5/K6IE8fWtgnnQHKBKfwF4VMHn2IIfIyRfyDrqJvhs47vCQOzglghgLYChLA+myCBI6w+jiS26Y9NfWV9Xky+F4SHyRUDxiYxwcb3YwSdtfETJopv9iEm7Xv37ZNLsU2/ic9+i04IFA7oSNkPPrIPi2MleI5QsTtntDvwKahdu5YMWV6yJNInxy7oE4clWFuHkaHmw4MJdtCgAcL8nwhsOQGzIXy8QCCy8ui/JvzhQOCcjA+k53vvsnZsl/go4cOC4Dx6E9AwBNaoLiMQ8dFgNOnGTZskzNP+QaWKXhY+SAjmQ4o0dV2VjxvXjdkKvTA4yds7Qsf22cAApuANGzZJYweNoLWBMPGh8cZAGPjvxKQXvnnLFqlQ0NPFBwmTZiomzEeOHBUzAcynwBHP91vvx/hnNo+ybUFicD96ovigjabCFoB3nOe9j+CIRg8VKOT06TPil4bKAvkJk86ZM2el8sBUL9CA7dt/QMLG9A/MbEMGD2SzW2v69bffbbdBtb9k6bIojZKr/MWN0CzAHAY/EExLgp4jBgYBh+gE06kMHPAJwbRjCIv9PWXYrQDmX9NQGnOuOX6A5zyuR+V2NG7wQUK6jBZMppjg+bswkAIaJCOBPL3JgQMHpDHBKEYM/IgJwTOVKAgPvrmt27Y5nJrHPCcmWzQO8OFCJ8m8n/19u3buFk2RM7zswzs7jmn6586b7yyKpzpvJS+IAOUXflpWDXteNr/CJw2CqXbsBZ1E+PqC8FqlVasWUidaz8VkH+bjEPaDROcHHQ6UGxATWCTgPwwNL8oErBGo6/BNmPoO8fv7+/HAupe4wzWLz0dqVnEeHQr7NOL+QLb2YC4+aM2/Gf2dlFFolDEwC+4OmLrI/vuBhhBa63acnmWsCZ89ew4e4VJu374t5HHQoM/YrN6ZJkyc5DJ8bC5iJD7ezyrIS/jQofxC4ILUg6ceArm/feu2+EVu375DrrXlcr558xbRtqITawQaQqvAcoG2Ma7kaeurmHwv6HT06P6O1FeOlATwyf7337nUo8c74qvnTAHwLO9q0hldHErwokOIr2N6hfPc+0DjW6hgAXESj8Ft0mPFoAb0jo2gIQ9iLVshdq52JbgHYeHnBI3Tl6O+4pF9n8ooJfgnQJ2NH3r5RiZMnCy+Gpg/6V0uXN98/SX7k/mImWLBgkg/NhM2tlt8fKiU0LO8zBUvzF+//jZFMIHP4DB2koUmDz07kBP0bOzNELF95po163jOsrdp4oSxYvYdPXoM+34MYJLnJlHBVAJ8IKhQMO+SvQQE5KYJ48eKdsgM/MD0I74ZfcWMfPv2HdF4zps/XwgefF5gGgkLDxNCAS3R9z88Of8XngOcMbBj1Jcj5F5oP8wgAfTcneU9CMa+Rz07OG9DoL0yGgU0PGgM0QihsoBv00Z2Jrc2NnJTNH/QUH373TgZEQpyYwRkyJj+zDlX+WvC4L7Dhw/TG2+8xprHrTICDqY15D+0DY7mwkMDWqlSRZkoF2QG/imY0HgP+6PBHHeGzdPePMgDnRCrf5p5ptmaPDfH2OL7uHLlspRzmJsxDyGc85EH1gYEhBnTPGCUOQTfVhv2Nfvoo/509sw50cBigATmt/uNy7RVMBAFPmEgp8hfDHh5VsmTJ4+UV0wF4Uy2bN0qjT/e26ohcBbe2fnnkX5nz3J1Ho3/2926C7E1pGY3u2+YuhE+o/bibIYCmGHRAXMlKKuwAEDreotJB0ZRo77YszvS2mE05YgLI8pRd8JsjA4bRnRi6qL7PIE25qeE1K9fj8tuCynj8CWEVK1aWcp2bq5j4D9tBGVpAHdo0HHEPKEIb7TASBcGzX3xxec8BUp729yC+ObhgwetUPr06Wg8E0FX5cM8y2wx8hgD76DpBgGLKQEw9zvbgpyuttPgwc/MOvjiMCsU4NMNbay0kdy2ofMKQfkF2U3kydOkeEZOjgxCai9oE810KfbXnvb4aeqrmHwvaBOgwV27dr3TpKEOwuCs50HunD7UwQW3HP4Bdv1iB6Hi8SmokqGJ+q8K5lpy9EHEJL0ggvfZsT2u1MOoOLJmzSLmPjTOaNSNoCGHbxs0LfAdAzmJC0EFAYdoRxjgGipxpONpGkFUqiAXjrQoGIUMGmkd2u/sfeALmT9/Pk5DOD0rkTbPACnBaGov7i1iglh7jYgJF5dbV/lrngNcML1Kzlw5RbuMihz+R8ePn7CRW4SF1rk/j1KF30jx4pgzcj7BrIB5AtEpKcgdJYzG/uKL4VJmWrG/o3V0YZMmjcREC605ZnJvyCZlNIwYqGAVlLtq1aqIJg8DFDAnl1W7grDQvmFk9C+//GYrJ2h00OAjDShDEeERdI393exNpnh2Cr5/HVfm9loaazpiu4/nm0Y/tvfGJvzTph+Wg5Ejh/HgrcHyPTt7JrTnkyaOl8FO6IzEVKBtwlQmxs8Kfs5/cl67mpMQmqR3e3RjApSBRrNGzJi/zDNbchkCYfuBNdcol106dxSzLXyMgTVWSoBG0NQl0DpNmTotSnnBd4c6F3ULOkiGKMEn9wL7UVs7MTD1w+x/lrXwxkJj0lKyRAkxQzojorgv+G6wjDzHPXC5wWh+aITgw2rSaOKL6Rbpfpq60FH8wBNTCNn7QaOuAy5j2X3Bkbz3bnchdY6uwXqAusJeMP0SlBIYqRxX6cczYlpfmfQ87fcC5QcInRldb+KLi+1PP04WZQLq0tiKErz/OMGLbYZqeEXgv4AAGhqQGDS00Ng4qrRBsNHLhrgiPAiH+43m57/wfpqGxwiAFIFAOcrjx6Gi7mEuRkwBZTpQIEvQprvSeKBM5cqVky5y59LcZ40VHRSUN2gLVZ4dAXx3wNy+sw6McT4uOyiILzbl59nfLm5jQIcImj3TIYjL2J/m+zLPV4KnBM+UBd0qAoqAIqAIKAKKQDxB4PGQpnjyQvoaioAioAgoAoqAIqAIJHQElOAl9BKg768IKAKKgCKgCCgC8Q4BJXjxLkv1hRQBRUARUAQUAUUgoSOgBC+hlwB9f0VAEVAEFAFFQBGIdwgowYt3WaovpAgoAoqAIqAIKAIJHQEleAm9BOj7KwKKgCKgCCgCikC8Q0AJXrzLUn0hRUARUAQUAUVAEUjoCCjBS+glQN9fEVAEFAFFQBFQBOIdAkrw4l2W6gspAoqAIqAIKAKKQEJHQAleQi8B+v6KgCKgCCgCioAiEO8QUIIX77JUX0gRUAQUAUVAEVAEEjoCSvASegnQ91cEFAFFQBFQBBSBeIeAErx4l6X6QoqAIqAIKAKKgCKQ0BFQgpfQS4C+vyKgCCgCioAioAjEOwSU4MW7LNUXUgQUAUVAEVAEFIGEjoASvIReAvT9FQFFQBFQBBQBRSDeIaAEL95lqb6QIqAIKAKKgCKgCCR0BJTgJfQSoO+vCCgCioAioAgoAvEOASV48S5L9YUUAUVAEVAEFAFFIKEjoAQvoZcAfX9FQBFQBBQBRUARiHcIKMGLd1mqL6QIKAKKgCKgCCgCCR0BJXgJvQTo+ysCioAioAgoAopAvENACV68y1J9IUVAEVAEFAFFQBFI6Ah4pEqddkBCBiFVqlR0505wgoMgUaJElDOnP7m5uVFISIjt/X18vMnPz4+8vZMwLnds55/XTr58+cjTM5HDZxUrWoRyB+Sm7NmzU1DQLbp//36cJyMgd25KzWXgxo0bUeJu1aoFXbp0me7duxfl/P/iwFne/C+erc/43yKQPn16Sp8+nXyDYWFhz/3hAfw9Zc6ciS5fvvLcn2X/ANQt5cqVo3PnzlFERIRcRv2TI0d2wjV8a+a8ufd/jY95rrOto/SUK1eWgoPvRqlHnd0f3fmGDRtwXXST7t696zRokyaNKGPGjHTq1GkJ4+/vRy1bNqft23c8cU+yZMnIn+vzdGnTOv3du3eXQkMf2u718fGhFClSxKruS5w4MZUqVZLrzEsUHh5ui8vZjpeXV5RwhQoWpDC+73nXt6jv8YyHDx+/r7M0ujofF+nPmzcP3bp1KwoO5pmZM2emGjWq08GDh8wpbgez0YMHoTFK+9AvBtOBAwdICV4sCB5AHz/uO7p48SKdOXvWBvyLtIMK9bWunakRVySZfH2pemA1usnk5iJ/mDVrBlKnjh0pQ4YMsl+lSmVas2adwwJofee33nqDXu3QnurXq0vt2rbme2tQ3bp1qErlSrRs2XJr0Cf223J4ThIdP37iiWuFCxeijJyWxo0acGE9SFeuXn0izLOe6NKlE/kk9aF9+/ZLVMCnQ/tXJD0FCxaI8oHF5lmIZ8x3oylTpky0Y8dOubVI4cLUvXs3Wr5iJbVp8zI1qF+P1q1bL7jlz5+PDh854jRvXD07efLk9OMPk2jFypXSyKCCxgcexJUHGtPnIfgOIsIj6MjRo7bo+/bpTQULFaRt27bbzsX3HZDxl19uJeXTnpy4enfk99tvv0kFC+SnAvnzU5kypWnDho2ubomTa6VKlRByYG044iRiF5EkSZKE3nzzdf6OGwlx2btvnxC5WrVq0quvtqds2bLx+5ehdOnSCo6IyhU+r7RrS926vUkVK1aQegr11okTJ4QYuUiGYNzzvXdp8ZKlEszf358Gfz6Qtu/YQSNHDHNZnl2lJ1++vNT65ZckPQe4QXZFzuzTh/KTJElirgPdhSC15XrhwMGDlD1bVkqTOg1dvhKViHt7e9N773aX88WKFaUiRQpTsWLFqHChQpQqdSo5xjnUlyBaxYsXozfe6EpJkyUlf+7QN27ciLJlz0q+mXzlGB3Z/fsP0FVL3Yp86dSxAy1atNg+uU6Pi3JnvHOnV2n+goXcYfeUcK6+h+8nT6CDhw7bnvv++72kk336dCRpdfqgp7yAMohvDHVlo4b1adOmzU8ZU+Rtz5p+tK3Ix0sXL9HpM2eeSEuegABpS/+dM1euoY7IxmWifYd2tHbtesnbwMDq9OEH/SiwejWqVq0qeXl5SjuMY3SaChQoQImeiFlPOEWgVMkSwv5Lck9l/f+gMnaakGe4gA8+T54A6tvvwyd6y8uWraClSyMJGQjK8GFfcI+7LBeodS6fOH78RNv13379iYaPGGnrXdouPMXOkqXL5K4SJYo/xd3Ob0Hvy5d7wBl9M0rjejc4mPCMXbt2U6+e70pPGB/I9Ol/OY8kmiu5c+WixIm9ON5i9ONPboL11WvXKE2aNHJn1qxZpUeGg3SswTl65KhUxs7yJprH2S4j37p1e4s2b9nyzJWYLVInO2hgUaFDUqZMSYWY3K1lwpqQBA00iPrff8+i2Gjg2rVrQ/PnL6T16zf8T+FavDiS3PyvHopvrXev96TDNGbMONtjU6ZMIaSob7/+dO3addt5sxMdPttYWzVp0vcmeKy3eP67PbrR5O9/4A77JbnfVXl2lR7Umfihrvzwg740eMhQh+/kKJHoRL73bg9psFFfQHGA8nSFiR3e0V6qc0MO7euqVWukwcf17NlCREt3+PARW3CQO4iHuzudO3+eTB396Scf0cKFi22dsG++/tJ2j9lJ5OFBt2/fNocut4248w1CBwICrdjngz7jTm1m+viTT7lzed7lvc/zIjrp165fo3nzFlB9xrMw100grCBFX309+nk+Otq4QaDbt29Hv/36e4zry/QZ0gmJ++KL4axtDbU9Y8+evTRn7jx6/fWutGDBIrZGpabznN8rV62mGvyuSvBsUEW/U6JkcZo58x9q3rwZoWJHgUajhkbZgz+K0qVK0ciRo6jbO2/RxQuXaMLESRJpdu6h1q5Ti/KzORL3oJcydtwEatGiOZVgwmWVY8eOMSH4RU6hhwbtQNo0aUnO//izaLGgdv+gf18aOmwEde7ckePNS+u4ofj996nWqBzu4/kgGTAL2ZtprD0uXyY/adOmoTNn4kZTCQKFXosfE6d790JYM7jWRg6Q0GpVq1CjRg2lcP4+ZZqo+h2+gOUkzOuvvNJWtCB4l4lc4aNwQ5D+5s2asiYgP5OrcNrJ5O1Hxg9SlZ/VpvVLdIsrscuXL9Ox48epTp3anLYctGXLVunlfvTxpxL2af+grICgokLOnTsXHWECd40JXooUybmn5UXJOQ/v338gGKdLl442btzEPfkkTvMmpul4+aVWQiZnzPg7yi3o4dWuVYOA2bLlK5mQzGQCmljK0YSJk0UrbW5Amdq6dRvt3r3HnHK4RTkEUT3LjVKF8uWiNGogmnUZU5htUN5gBvr1t6msET0oPVf0TMuy1gaNKhq1b78dI50nPMjZ94JrwKgh98DxbXjzfkjIfRr55Vd08+ZNeTdH5aExl6sLFy6wySOQgtn0NXfufEnDP7P/pRWsTYU4wgfnofGAq8KDBw+oSeOG3BBH0LjxE6QDkyVLZs6/tAgmdQAqXjSsyOvoBN9h3jx5nBI8Z+lBvTNwwKc0gusZaHuKsObkwoWLNGjQYOrDGtQ5c+YJxub5aNCSJ09GR48e4/Ct5fTGTZsknAljtvg+od2Aee7c+Qs0k0krtG0QZ+kx9zrbNmvahO4zdn/8OT1KEJiaPDzcKYA1FdeubYpyDQfR4fPEDbE4gbq6R/d3aCl3aNGpM+KqPMckPfiGs2bNQl27dqHhw0eaaF1u8fxOnbsSvls/fz+ayN8iyrIjiSz7DVjjtl++J2hqIEg3fuZ4z959Ug5xzZ0JHuq1zz79GIfyvbbmNqVhg/pynDJlKtla/6CMoW6Mifh4+3Bb6EF58uahPzmPQTKRt8mSJmMNUn5pF4+zdSaYO9GV2aKDMgsBKURnOizsoRwnTZqUtU+vyPVbt25Tv/4fyvmn+YN3rlChPM2cNUtuX81kB0Q0CWs/R3M987TyrOlHuWvXtg3V5HoYnZPoFCfIB7hRAT8Q+m3bdrh0AwDeeHe0tShDSK+aaLnBi4kPXmpWfzdv1oy+GzOWQEYuMJGAWdPfz49q1qghDUhabsig3Vu0aAnVqVube+gLRLPx0Yf9aQf3xqZM/UMKepGihWk5N7JoGNFLg7r4yJEjVKtmTdrAlcRxJhxZs2Shfv360F/cEP/2+++sVs9GTZs0FvMeVPowbQYE5OYKahdXxP8w0WlHhw4fpuvXn+wNWwv01avXKGu2rNS69ctSCE6fjqoehg8ITCAvtWpJY8aOZ1X/Aevt0e6DVMEEGRQUZAuL3h16GLP+mU2zZv1DmblhROFF76Ns2TIEbVeGjBloypSpUimgkjRmTURSi02+qAitJlrc36/v+0xAz3CejBOc0fNdsXKVPLc943GbG+avube2Zu1a6REbPzs09rNnz+GPJ6cQzeXLV9AdrtBANn79bQqhVw1/B6TvaaUjm57Q2MJcChKwlytdaHhq164lZt9cTPpucF7BjFqay8ySJcukPLjKG2dpAVFDhX2TfXcqVCgnnYzQ0Me9PJAsNCAgJiA0qGQuMgboYedi7PNy5Wz8d0DGUNGis+BKI4XnocLJzCZokACY6GHmTuSZSLQDTZs2FgL38y+/0uLFS6hypUpiggYZQQcJGENL8NPPv1CpkiWlgTrEJhtoAp19L3j/t9kdAGF+/OlnWrN6LXeSmokbAAiYs/JQvnxZydul7C7QsEE9IdlojEESoYl3hg++7wrly7Nmtai8508//yYNE8oJTOvoIaP8wh8qOZMimFVy+vvTps1bnGWV7TxweInzJIA7hzCXWv1gXaUHjQTMmiBGKFNLWCNXqVIFWsjaCbgDlGSN8cZH5ieQ7B7sEgBCe/LUKenkoB5Do2wlNkhUJX4nuA189904mjrtTyGNILYon67SY3shJzstuROLzpy96Q2E6R77/nbp3JG8WHMFUmwtb67wgQkyI9cXd5g0+Pr6yvcFjVd0koXrVJS7LOyD+JC/RdQ3RqIrz67SY+LA9ubNIGrVsgVrjuY/YSGxhrPuI02dGIck/B3X4sYfdRsIOSxGqMfOnj0n9SncalAWcXzwwCFq1qwJE5axQvayZM7MCoXJggvaIeMm4Z/TT+rbmVzvon3IlTsnbeHOG9oZHBcpUog2c3m1mmgLFS5InpwGdPKiE3zzoaEPqXDhQlx2xkonHXVfITYZF2QTIb6xfVw/oD24evUKd2Q3C1kJDKxGP7EiY9Y//8px6TKlpL78488Z0ukBIUT5hSUlVaqULn9EEVH8s2Eyx7f5ww8/y3f1gOvCcM7vpuy7iHrWaDdjG39s02/FDhrj3r16Sn2Bcms0qtYw1n3Uq6jLoSAoUbw4hXL9BkWEVeBigE5Zvrx5yZ07S3BngmIDCgTU6VDYqAbPipiLfYC8d+9e6VmCfJTkRglaIQga2P9r70wAfSre/z92KrK2Ue61CylJZalQSru0qLSpJMm+y77vRFoQ7Rvte6F9VYQohKIUrXaR/s/rueZjPueez3Yv/e7fd566zvmcM2fOOc+Zeeb9LPMMlj2sIyBoBo8bb7hetZfzzz9PwcVrr7+hZRnUpT0qMcDxxwe5s11bicH5WBrg23oOzXulxDe99977+vvJJ5829993j8amAGog3DtzBJxAWK6s+08PxPgHIXqPADeeizgL4hLomBYQLF68WJ8XqxPnt0nw8NIUQV7w1i2uvlKBhQVtWzZvET7lihQjrmTkqDFqJcHqxX0TUfny5bQxjxs/QS107wqfCD5Gk2Vg4jsw2NLgAbFM0rBEkC1B3Vhe0ZghrBa24xOjc6to4Y899oS9JKUtQexopGheXxZbIFbYK80TTz6ldWDFO1GENLFx27dtN2lpaRo7g8ZFh4z3bRI9BHEwWLTQoF3CJfCOAN9fBLBAi+QbY/mh/b4iSsjwYYPVxQgAPuOM+iqEk5nQwiDRtu1t2g4BWL/L9ccUOlom6BRSEDdi+CizZs33ek/O836WGJBnPvSI/gTYFS9eTPfj9RcCpGufUtu0a9dBg5O5gCr/lf/itQfKoUzRX66QYHTem5it08XqCMXjD+cBRMPlXWg3hwpgr3niCRw2WACxqhCPM3HiJG2/eiKJf3jnAQMHK8AZNXK4Ko6LFmVYTBM9D9UvFBmEywkr+5dfZsR4oqiMGzta5QCKHuEYyBc7MGCt3rplq/aR4CNiqSQkwZbF0mopmeexZd0tQCU9PU157R63+zw/bRLlAO8HMsACtXj84XoAHkAb2ir93cbQ8j2qVq2ix+0/TEawii8KCLFJlte2DNtY7ZlziZ6HMtB6UZzwGDAxjDaWiI4RYNZOZP8TovwD0uuJ5Ql3MMr+9h3bFYjbvlg2raw+I3XS5rGCIb+xJKNIZuyXVk+BvW/evPlUHlrZC0hELtnf9Msg8d2wuoYR5wDnLtURcIbng/79uLzHQ9Kv3b5uy24TeccfxPlfxTVPPDvEGLpe9u1vjqHMDB0yiN249Mys2aqw20K0iyUCPK1Cz3HGSSz/ZwogsmNmqvWn+vzcl3s0EfmLwsvkmdmznxMl/2xOJSS++119+2s8+y233qzbR0UpQSG0RP8BsDdoUE8NMrZP2PMe4FlOJNjWEm0KSxvAYeHCrzRwldgqiKBYgBMAwVpC6IBQ+XLlJIg3QwDrgcA/aBFYt7bJ4PGQ+OQt4UJ1A9jR8NHcmABhAZ5tqFxDY6DzJUN0LmITFiz4SrSKDuZ6sdhMnz5DL0UY8se7FixQUCx9V5p+/QcmU21oGZ4JYTdjxsOh5zk4d968yOC4S8BJPgG8iQjNjsBktCJLq0RwIegAeFjicG8PGthfrQO4fb8XK4alenXrmk8FoFhge5zUZ4ULMSgMnEccUSqTG9teH29bq1YtFcx826/FnYIFDyGMxQyAh7Y7Z06G1ZDJKAA9vgkU79vEuyfnHnr4EY13whX38CP72lJZ4X9RsXox4FviuSDemfbcVJ4DEIp1evyEu22xuFsszf+IsG/V6ka1aBWQwRVKT0tTMISFIBbhHrNE2z1ctHQoXn8pJ6D+O7FsMPMsSPHaA2UR+BB9FMuEqwzF4w/XAAwBd5D2szzJ9TO9IM4/KGXEa2HRxF3VvUcvbW+JnocqbXwq8Wv2WzOgLVi4UOKMzjKzZj2rwNVOKOCaWEQ7BTCFBXtzTTLPE1Y3iisDnGudDJaj7QGeiBvt2aOr6dK1R6RILP5QgMkMYTF49H/CBVzi21mAt1usTXhhBvTvq94JBkdLsdqzPR/veWwZ+i9thCwEiQgwSqjN22/PVdCB14TBf9OmzWbCxLtVDrt1PPDAVAGAddUdSpgLSi33Idxj166/dZ93WLN6TeQywhiw8MycMU2P8T2w6lp5EzZmUCYM+FEBEwMYz1AmINpOnVNOEXCREV8Z6zotHOMf+IDihPXTJYBkm9vbuYdC9917Msu5fv16GvLhFqbMG2+IZ03CRvAw8f5Zqd+t0+7Hen7GkF49e2iM9esSHzf72efEMFTLXpbUlvjQmTMfNm+L5fEmmcRCCErfvgMi348+v2zZMgV4fMvWAgTfFZc04xrj4/6RVEk96v+/hbBI4GbEqoV2BXGsYsUKum87Cz+sFUhPyD+U27p1X7oRLCcuEaOiMRIDBkW5KP4UkzZuWkt8PKxRseIzbLlUtggstHZcM2H0zbffChipFnYq6WNoZoBiywPeg1gB10LgVnaSuJhWr1rtHgrdJ4XJH3/+ERN8YrmYNu1Bfb+mTc9Vgd6+Qye1aCDAzhMX+ugx4yN18w2sW4P4DWY0hgV/Ry6Is4NrBXcQSgEkMlDdXAA8JlrgtvhJ9vnGxFgsF/dUkBJ9m2B5fjOQ3S3W2ODghZbHZAhAexi9LO4kBppVYnFgcAHgJ0O0e1wuF4hmPH7CRBEyDfQy2vwOGYCsyw2gfLTM2kuG4vUXBjNcN5ZoR3nz5tGfidpDvD6aiD/2fmFb3pG6eY4YRo+wyyLHuJZ4yDpimWQgJpY0medx3ydSmey8LRbwtre30W8NMBs7dl8bd8u5+9TFQIJFe9WqzH0vmedx67P7zCb9SWL50gTwx+tLtFvA2pR77pbY4FIRKx71hPHH1h+2BcgR3xyPaN8ofLfeeov5XuKhbSwy9wprz25diZ4HxYGZmmF8dOthH+CLBwFli7jK1QLMcLPiiQjrg9b6xbWASFzVWIRwzS1cuEhi4J7hVBTxPBgCCI2BOnfqKLGHc8WCuUh/Dxo4QLfuP4Bg5HaQCEdgzJu21xjAedzLvAcgnSwBjE+xFAW3vg4du0T68ukyOYX3CZvxj7KeCl155eU6Yc1aKN1rAaWkkyEW3nqlUq3f1pfM8//++x9qKX5DQlToQ9mhdeLxQRkkhps2aAlwSQocl75eukzHgtwC8HK7J/x+OAfoSGvWrBGrXdvIH5a6ZNA47jDcD2iz5zY5x9SUutAyIUzqWHAm3j0pwzIg4AfwATEYV5UBjKnRaEmYlgnKZ/p7doiB1t6feo6UGBaCciHcBTwnBBDDv29dH3owC/8wIKNVkv+K+958s6QlEfeo+wy2Wu5/qvCEDpGIli9foVrfKTIwQjwv3wnBBL/4Nmyx9jz33Avmb9FwcZtCTLIgFpFOh8UIgZwu7twFYk2ApsisYAYJC1BubnVTJquAFgz5h/gwrEl3tu8YaStPiHvdthUseABehBkuM+5h41/ifZuQW4UecgcvBkuIGbWksLHftlTJkhHlhPPffSdav7hScUuj3aZCxFV2FGHtusAZsLDIARiwOLe5rbW6jtHSE1G8/rJ40RKNWUMzxiV7tcSRWmEXrz0kumci/sS7Hk2ZtkQsI0SIgE0TEes62ioxnrRPvUbaJf0BwQxl53mWSh1bt2017du3U00+6E7TG4T884lYs4lbIswEoq0QtgBl53mWr1iRyWVKndzHTlDhNxZEQCZ9IRF/KA/vKGf/LC85lwzNAeSIbG7Xrq3WYa8Ja8/JPI+9vmrVKgpw4lktbVm2xK8COHh+4lEBSlhfExHfFQW21U03imX+JJ01GbyGsQS5Q6wm/ZM/riPsxv7GIOHgBa3iz7/+zKSQYf1vc9ut6hlxjQxNRa7AS/phterHa4xZ8DnCfiOXkX1MNLpeXPTEp7uWuLBrEh3DcnuSKM8PTJ0WkQvuNcS+rRQPgB0z3HOp7ifz/PAE63p2wZ19Nupz5SzHmUR4i6Q9cwlcgau2br3TvQXPZUysfSwydvC3ZRZI7iRm562SwTEevf/+h5L7rK3GzxHYPHHiZDNo8ADt0LjDADvkLLNEDEqnzt20U77yymsy7XyA+u4ZNEgzgLZLvpusUv169XRGEYM6nZvBklmIEG66etIoGCzTROsmhoSOl13iPYirI5CZiScEVKMNWrr2mmskPuICBbmAsWAAOOU66Yyrf8wUAV4IZvgwdtxEcTe0Nc3FxUUuu7Vr12ncIuUzcvJdLbPBNpkihYtoLCPuSPhIPMQj4sJlUOnUqb24b/4Q69WqiIuW610ivqSDuCY2bvw1ym3ulrH7zGAiv5Mr4GkrLcXyW1y0aSwZBBwjbCCe+TcBCFC8b6MFkvwHgctAQ7sbNGiopuM46sijzPhxo8WCmRGf+Mqrr+p3sFUSD0WcR6q52BDK1v1l6+LdX5HAfiY94EpC4DKjq6SEHSSieP0FC+PXMliNGT1Sv9nYcRM0fvCffzISpMZrD/HuS7qSRPyJdz0WuHbiYmQSELnLevfpG9fSDngiXQVWC6w2ZcV6/MknWIwz2kF2nweX33Xiypkzd27oYzMjlvjDxx9/wrwnEyAg4gkPK3yYzP4cJgBgq3geDjEPi8ufSSjZeR5SN/Tv10cD+ZErlgC4pE9Bydkg/Spd4ssIq2AQS8Qf6mhQv57+2fpQyFJtu4SlDBFZbGcXU1dYe07mebgW0Mos0RniUkuFaNfFihVT9xsAhHbBAF1YvseaNT+EejsAx8xCB8TRbnBvY31cKVkYfpYJPFgmGehRHJYuzVAcwp4plxMLbc9//vkXhskxjEsLZRIfscx8LyazYdiwVKZMGbE6V9K4YY4RytCjezcNR6EvoNyjVGMhtbHllMPqRKwvsZAYPF6X+HTr8uV8VqmG1MUEIWuRDasHa+ZuUcqyQwfq+bPyTIwtjNG0F0vEWxP2k0sMCbnKplfcZ++zJf6HtmkiWGwepAP12mhnaPa4DVMlAAnxU7j2EH77gwB1pUodoW5TZoe5Wj5WNDT336SDurNWs3tfhCR8QHgFCSFFDijXBREsE+8370P8BhqhS9yPc4AqyzuOAS4BbZSvWLGCBjbjpsQSE4uYGUfqAIDQgaR43ya79+Ub4OYMaoHUy8xpQDNxIvuLDhPhTmxpMGwhUf2J+gsWV/pSyZIlJEHtSHNr6zZRbThWe0h033j8SXQtVp6SYhlFQQu2w7BrKU+C3/zSv5mtC+gPUnaeJ1hXsr/pi8UFbITJm6w+T+3aJ+ts0McEUBIGYfkD+ChTprR+O+QQ7c9SMvyxZf+LbaLnQaEi2fFimYiXjAUu+MxYuuvXr6szoRkr/hXlG0Xpww8/lkwLX0aKk1GgsoAqEhXvlAlVTDD45ptv1RJWv0E9wwzSwocVFiNBV83Ld4RY8Z96ep/rllQ6b4mHhIlGzFZnFjIpoYJxrTwPszgL5C+gs9+/lXCdoHwmZKmKWB9fljxslujzp4rLlXCiAiJvmMG6YvmKqJnl9G8mFeJ2RKGjz+wPwjOSqqzJyn2z8/ynSF+4WmKkO3fpFvfWJ9eqZW6/vbUo3W3ilnNP4r2aPu1+zf7AmO4BnnDnvwB47kfw+54DOYUDTN0/QoB+tWrHm3oyuPTrNzBqkM0pz2mfA4s5AITJGwCjSyV+9SOZef5fJ++1z+O3yXOAuFOsuFiDunbrEQF5ydeQc0uyggvggrAaEsxaZfJAPDH3AWDQD2K5NAHi9hzlLKAOPk/G8nA7DujzBu/pfyfHAfuNXeNLoiu5hphuwm3sN/cWvP/Agpfow/jzngP/Fxwg7pDkvcRZkjstKxbm//K5yeFWQwK5sZaQ7oNYv7Bg6v/ymfy9UuMA4IO4xQMJglJ7ouyXxmXnhmRkv0Zfg+fA/uGAB3ge4O2fluRr8RzwHPAc8BzwHPAcyDEc8LNoc8yn8A/iOeA54DngOeA54DngObB/OOAB3v7ho6/Fc8BzwHPAc8BzwHPAcyDHcMADvBzzKfyDeA54DngOeA54DngOeA7sHw54gLd/+OhryQEcYMaYJ88BzwHPAc8BzwHPAVkLt2ixEgP+lxlBcsotMiPvQFN9SURYUHKQxVuyh2zhZ5/dKLIQNlPiyVX0meRsC06XBsxUqlhRlylhqZKwP94pmFuK3GEsSH8wzWLjPcnbRKJm0jCQPT+MWDKLpLhBXoaVTeZ7hV1HVvFDZKmusOV6yKBeo0Z1XfKOHFLuHylLyAUWpEaNGppqkhB0iyx3d4WsVZnKrNFuXTvL+sXrQvPeBe9Dnq8SkoiZZ2JRbDvNPlguK7+Pk3xvtO01zlrA8eohBxTJSFnqyhL5tZo1u1STM5M/jVxgJKpO9MfMYPu9WceRxKt2SaTTJF8XmeBXrcpIVg4P9mcerVT4b9/Tbz0HPAc8B/YXB/xatPuLk4F6yEnDQMTgQuLgVq1uNE9Ilm2m1BeRRK0ffPhR4AqjKz2QYNSud0sdJK5scdUVZpfUA5GlmjVNGaj69u1tPpTs4RCZxvPkzmNWy5JqUMUKFeQeH5pnn81Yg5BjJFYdPKi/6dipS9ykvtyX+nn+Q2WFiIztoeZweY8iknQZMMI+y1GxMgcLHkONGzcyF114vu4H/yFXGeuhZpWOOeZoXUot1vUk7CQrOwtwu0TWflYL+F7ABSsrPP74U1GJQ23ZVL4XS4qNGD5UE9QeffTRZtKke3RVE+riOWpUr66LWvO7v6wxbEFDk3PO1gSyLB3kEuuQ5pZcdG6WeM6TUuLy5s00USnJT0+seYJ7WcJ9ciLly5tP10MmCSYroLBqhwU8HGPlAhSJzZs265al8R6YOl1X/gjeAKWCXGbr16/XTOl58+XVtk17mD//y8jaksHrjq9WVRcAJ0dYIuIebdrcqmvq2kTbLP92saRzYV3TmsID1umteUJsXlSvXk0TarNiCmVRckiO3KjhWdJ/3jMDB/aTtU+nKzg8sWZNXa6uSpVKstrCfMmE/6TmGGPVkcMOO1SWw5M/ttIfAJlF5F1ZdaCYKIasm9ur910xXykR/2Ne6E94DngOeA7sBw54gLcfmBhWBYPn5EkTZHBn6Z18upwMywOxrAxL0wQpPT1N19ec/uBMXeqF8wy8553bRJafWRVZAcJaG/PkyfCu3yvrpkKstFCgYAHz6KOP6+/bWt+iW/efvHtdmCwoH48AdPfdO1nyVe0WQPKr+XXjr+Y3WcSbdQ33yOoPLAfD8lQsReNmQAd8fvDBh6FVZ9cixFqfZwi4CCPAz9ECANu375Qplxv8A1gC8OJRqt8L61KPHr3NtKn36frAWERZpqxvvwECRI82d/XpJevRdoqAO3vvv3f+HWWZ4jh5wbh/kBo1OkvWFd2m2d6xrLlUsWIFXaCeZWoAHmSoBxDS1vJL9nm2fMeePbtHWWv79R8QWbmFVUXuuqu/WLC36Pq5LER+t4DVzz773L1VZB8+p6el6RJR1P3vv3v0+QCNS5YsjQnwdv29K8qSHKnQ2aFurHHVqlWTdlxQFRva10Zpe3e0bSNrdi7V52QFEujRxx5XIOZUobzmO9x88026MoRdUQAliaXryMTPcnkoWB3a32Hmy6oKgN133n3XzHzo4QjwPe6448yA/neptZ21Uf+QBdRp5wBE1vqdJUuTARpZuQLKKv/dZ/f7ngOeA54D+5sDHuDtb47urY/Elze1utWcIOvjtZY1PkeNHqdrnVprTvC2rP3HgIbFgYz9WEUkZbkWA9gAkFhiyg5wgD+of78MCwLLM3GsfLlyevzII480b8+Zo/v2nzzigtopAMNmObfHg1ueo32HzmqZs67cJk3OVgA6Wt4juPYoGdFxFydDy2RZnbDlyhJd+76smclfGF115RUKYlywacsBhK3Fyh4L26b6vdw6ypY9Ti2dVQVIYGU7+eSTDdnEa4glCWurtUQtXbrMlC5TOmrdQFvPt8uj3cpYegEjLClEm8kl/9EecCNecsnF5oLzz5Mlgl7VrPY7BKi9Imv8btm8xWzeslkBI21l5Iih2u5w08YiwB3g8Y62t5sp996ni53HKstyWiyIniptlnug6EBYvXDX0l5femnfEketWt2oCYwps3DhV9IXtukzTZ32oLbDNOHxiy++xGklACFKCG2JNppXVrZgySQL6mw5tv/KvbH+fbVosfbBp5+Zpe8MEGctVJZ6gnoJGH5DlnHCDU7fdfvqFVc0l773hZk6bbosr1VGQyJodwDAtWvXZZn/emP/j+eA54DnwAHggAd4STJV19YLsbK4l7OwOgOGJVxLbW67Va0zxOP8ImtOjhg5WgcXYqu+E8scC8NjYcD1ZNejxF304IyHxBq1RUHCE08+bUrLYHT55ZfZqiPWixdfelmPsdgwFpx5897R3+dJPFqQ8ubNIwPnluDh0N8uiMM9dXnz5mb4CBZ5/z1T+eLFS5jrrmsZdRzQV0isPL8F1ncdOWq0LgadFX5G3WDvjwy3YT1j+RAsk094EgtQYnnBQmZBbLLfi3vwbsRHwnMAS3pamro/LxJwbon9NwUwHCL3qSVloB/X/WhPR23zCXBrJktvfSyLzrM2Mm76ouIGdKlQwUKyAPhgsSZtNgMHDY1YJQGw1uoGaKGtEetZUMonItyZHdrfKRa4JapY7Gq627AoPIuDY1ncH/TLLxtkjc2jTMeO7dW1un37NrNAQJxLM6S9YxUdP36MeeSRx3R9SsIAqh1fVaxrjyhYxUIadGO3vaO9fl/W0o1FLG3WrNklpmGjs8w/wivA81NPzzLLv12h70wsHi56QPGqVau1Pdg2QZ0AYBZ2792nrypaO3fuMNdcc5UA4vvNxg0bVYHIKv9jPbM/7jngOeA5kF0OeICXJAfb3NZaBX284kuWfK0AjjIMIl06dzRYrO677wGJVSpsJk4YJwP0ELHOHS7WhEVqTaAs4ODjjz/RgG9+i0HCnCBLMu2QgQQ6+eSTdLDnuKW8ElsF2aD7CuLCxEVrfxPXFSSsPzv//jt4WH8DlBjUXKuFLVi5ciXzww8/aCybPeZusRB16drdPSRWposEtNY0gwYNiTpuf6TKT3tdcNu4cUOdODF37jvBU/obd9yfMmkgSAzoHTreaeaLVQarTSrfi7pwO3Idg//zz79oKlasoHFe7n1WyGQPJk4A4EuWKmmI68LKZ+Mm3bJ2H8AI2AdQfPzJpxHw+a/5Vy20Tz8zO2LFtde42/r165lnn3tBrEprzbChg91TmfZPPbWOub1Na7UwLvvmG7Vy8T64IgGkQ4eNiNw/08VJHsCi2bLltQqsaEPPPvucWrxcAEVVTIaoUaO6WfvD2sji4/SZDQKgcIe+L67/U+uckgngJfkYWmyW8G6NuOovEMuopXum3BepM/hMtkx1cRvPn/9FxPINAB86LFzZSYX/tn6/9RzwHPAcOBAc8AAvSa6OGj1GBtg8cUu7cWZtb7/NbBc37RQZQLCuESwPPfX0M2bx4iVRsxTfFitemW9LRwDeuxKMTozT4UUOV8AF+GIAnDN3XuT+hQRAQjNnTNOtumwFtJwtEx2g3HLN88+/oPv2H+rZFQPgnSuxaumybBsDXpAIvP9JAutToRIys5d4w1iUKj/D6sEN3fyyZuZJsXCGuWEJcuedw2a0YtHBzWcnZaTyvXiW3bt36aBvvzn14SK1FtzatU9WoAXAwwXIHy5XZjF/tHdijPtOWBlXrvxODwE+p06dZsrK90AZsIT11bro7bHgtmCBgvrOuOLjERbkG2+83rz6ymvmmVmzI+0RJQUrGeCwcuXK8tzfRKqB1yu/+858JW7jZAiwc91115rHHnvCfCiTiiyvYl3bUCbE0Bcs4frGrYpiAviqUqWKPRXZAkZ3ybdgklGs2dO2MBZAYjlLlz5G4yYrVqpgihcrroCzbt3T1I3suoHtddS9SPqsS2GWbM4ny3+3Lr/vOeA54DlwIDjgAV6SXCVAOxV6Tqw6DPZXXnm5xsWNGDnGjJIZi99+uzzTQIcrDIuQpSOPOlLdTlg8iB166qln7KnItnjxYmpVGzlqjB676MIL1RU8a/Zs/X2dWE2CBAgKA6kApWaXXmwmTZ4SvER/E1her27d0HNhBwFVpPZ4U9x8sShVfgbrIeVJn949zPqffzbvxYjNA2AQCxflasxl1LrY5JxzTL/+AyKLhKfyvXgWALXO3M2VEQvJMfhkQUZVcS0G6Xg5lk9ixVpcdWXUKVyxxHIN3GvtpB7+AHipEoC1Y4d2Yv3dqe+dL194Fxc2KDB+/fU3dPIMM721oPAQAABAAElEQVRxM6JI/CBWtD9lYkHxYvtcxHzT889vaoaJVS9ZulRiBSdOnGSIPUxEuOzTxJI9+Z57tSig7pjSpdUCCq+JZZ07b5+CY+srU6a09idmySYirIG/SJ/kXpbOOKO+YfLTggULImDfnrNbFISyMvEiGUqW/9TFxJpY4QPJ3MuX8RzwHPAciMeBcOkf7wp/LikOrJaZsrjbGjVsqGlJmLhAzE4U2IhRE+lUBg7oK6DqdDNbXFphVEfca7h/iRuCrDvX/v6b+CnHpUsZBm0sazyXnWhBbFS3rl3MJ59+Fsm/R1mXGKALi7vsmqtbmCefejrUjeuWx5rFPWJNinDLZmW/jAz8Xbt1FnD3i8RsTcwEmKnzeMlvduYZDTSNi3sPQAfgcPyEu9X9Z8+l+r2wsPbr20feM8NVTj2Vxf1aSuqGcA0HiRmhz4n7dMXKlVGnCODnnVKlCy5oanZI3Kdr2WW2cK/efdXNe7tYkYl/CyN7zZlnNjBnnnmmWbN6jYYP9OzZW1OBADq/FwXDEsCUCSuATiaNAAStSxOLI9ZQYuislQ7AhVt67dp1toq42+Yyyeg9AafEezIR4xhpl0yaQcnhPv36DYy6nlACzj308KPalpm0YSdyRBUM/JBHjSJCGuiXKD+AyjDCjT9I0gvx3QilsO8dVjYZ/tM3SNkDvSYAG/evJ88BzwHPgf3NgXCJtr/v8j9aHyBquQR43yYTLeZLegdmE+K6KyyDIXFFYbnwiAXD8pQvX34Fb1dKcltmqC4W1xnuPmKrCknCZOKRmLARixh0g4RlZuPGDWaCBLLjMisq+byItWKCgjujMXgd79G//0DTqWMHgytrtYCB1157wyxdFm2ZwSV68cUX6UzSCQKgGPD3J/HO9YQ3WHMYaKdPnxHqmgXcdRMASNzWosWLnUfImIXaV8CCdaU6JxUoJPu9mH3a9o47zbXXtIiA9kXiuly2LMOlWfqYY9yqdT/WDFTcsDaXYKaL9h7gGwB8cJczyaJAgfyGxMmLF0W7DgFm9eqdbs45u7HmXUz0DUhxslNCCb4UCxbtqrW0VWasMiuXGcCWmGU8dtwEdTPfcH1LBTkoDAA/wBxWtgEDB0fczADATz7+VNpMe21rv0uuRCYhoXXQxskjR5oSypEI+RTpF6T4YeZxs8suNfml/b8jaXdigSneq3effvbxdFIJVkas0YcK+LYTliIFZIeYxpUC0o6R3IUQIJH8kgA7gPodd7Q1H4v7PNgv1/34o/a19ne208kaxAmSKgXrepCS4X/VqlXUzY2FmxhID/CCXPS/PQc8B/YHBzzA2x9cjFMH1oG64gLCZYcbjIGQAXXVqtWhV5Eu5aSTauoAwgDHCg3EJvFHTNIwCe7GOkeslOv6wjJI3dBlkvEfMDROrFsuMVgOGjzMnHXWGWrJIx3Fk08+pYOjWy5sH/cWSXuZMEAgfj7HckV57n1zq5sU1DHDE4vY/iasRL+IS7bbIxmzLGPVv0FALJay4MzauydN1hmq8dxiyXwvgPbtbe/U25OHzhJ5AsuXL6c/caEnIsBIh/Z3mFKljlBXZrzygHNcqCgLefPkVUsZs0NdNzigHqsi8WEzZj6cVKwc8aAoG8ymPVT4+6cAsWlvzwm15lKWPyxQgDqSYFtrMAAQsOjSffc/oO7fk0SJqHvU6QogCREArBKfysQOAN6GjRvVNQso+0iAO+l8cKO+/PKrbnUJ9wFsnTt1MHv+3RMzqTbJuOuKZfzdEaPU+kmi45EjhgnY+0cSV28wX8dwJy9fvsJ079FLLaOx3LXJ8p94TNzd9KV50sc9eQ54DngOHAgO5CqbXjHgyDsQt8m5daaJy4lZcf/XxOCABQKgBFgLs1zYwZRnpax1hwWfnXJcn4w7OHhtdn6TGiW7sXXZuf//5bXkRgMcbRFXPEQgP2luwnLz2efkmwMIfxbAaK+z59jiBqY9YC1MlrgmkdUu2boOpnLklSS3HjyHDlTfSIX/bn8+mHjt38VzwHMgZ3DAA7wcAvByRnPwT+E54DngOeA54DngOXAwcGDfFMCD4W38O3gOeA54DngOeA54DngOeA4YD/B8I/Ac8BzwHPAc8BzwHPAcOMg44AHeQfZB/et4DngOeA54DngOeA54DniA59uA54DngOeA54DngOeA58BBxgEP8A6yD+pfx3PAc8BzwHPAc8BzwHPAAzzfBjwHPAc8BzwHPAc8BzwHDjIOeIB3kH1Q/zqeA54DngOeA54DngOeAx7g+TbgOeA54DngOeA54DngOXCQccADvIPsg/rX8RzwHPAc8BzwHPAc8BzwAM+3Ac8BzwHPAc8BzwHPAc+Bg4wDHuAdZB/Uv47ngOeA54DngOeA54DngAd4vg14DngOeA54DngOeA54DhxkHPAA7yD7oP51PAc8BzwHPAc8BzwHPAc8wPNtwHPAc8BzwHPAc8BzwHPgIOOAB3gH2Qf1r+M54DngOeA54DngOeA54AGebwOeA54DngOeA54DngOeAwcZBzzAO8g+qH8dzwHPAc8BzwHPAc8BzwEP8Hwb8BzwHPAc8BzwHPAc8Bw4yDjgAd5B9kH963gOeA54DngOeA54DngOeIDn24DngOeA54DngOeA54DnwEHGAQ/wDrIP6l/Hc8BzwHPAc8BzwHPAc8ADPN8GPAc8BzwHPAc8BzwHPAcOMg54gHeQfVD/Op4DngOeA54DngOeA54DeYoWKzHgf5kNRYsWNVu2bM02Cw4//HBzftPzzNFHHWXWrPk+2/VlpYIjjihl/vlnj9m9e3fcyy9rdqnZsnWL2bRpU9xyqZzMlSuXyZMnj/n333+jLitSpIhJT083v/76a9TxrP4oVaqUKVWqpNmxY4e86z+RaooVK2rKHnec/t6+fXvk+IHYOeSQQ0ytWieZH3/8MVP1uXPnNvXq1TXHybPw98MPazOVyeqBMP5S19FHH2V4/7DvyXcpW/Y4c8ghhQx8sd+H48ccc7Q58sgjzd9/75K/vyOPlTdvXtOlc0ezZ88e/cubN585++zGpkmTc8y6detM4cKF9W/37n9C29oZZzQwVapUMRUqlI/8pckzrF69JnIPd+fCC843v/3+uz6fe3x/7VeuVEmep7JZuzb2t0AOtL39NrNo8RKza9cuvfX117c0O7bvML/99lumR0lLK2uOPOJIU7JEidA/+B38Hsn2T/dm8LFAgfxm8+bN7uHQfdoHf3w3qFixYqZixQpmw4YNoeX318H8+fPrdw7jUyr32B/PX6hQIW3vf/zxR+itz5F2TPv+7bff9Tz3LF++nPn99/DybiWNGjU0DerXN18tWuQe1n3qqFPnlEh7d9t+enpZs2rV6kzXlCuXblpcdaVZsGChueOO28233y43O3fuzFQulQMlS5Yw1atXF9n0U+Qy3pd70eeRmy7Fkg9umazsx7on/SItLc0UKlRQxt0tkapLlz5Gv9uvv/4WkVGRkynuJNPf+e6XXHyR2bxlsyla9HDhWTVz7LHHRv6Qiz/9tD7FO//fFOdZL7zwfLN8+YpI37dPktfu+G1iDjS79BJz5pkNQgs+++zzOlguWrRYz5cqWdKcXvf00LIc3C2DyNtz5kYNrDELxzlx1lln6sD5/fffmx7du5rHH3/KfPHll3GuMOaiiy4wP61fLwPeutByNP7ixYubww471Bx6iPyxPfRQc5j8FTm8iA4cxWRARJj26n2X1lGmTGnT964+pkfPXuaPP/6M1FuxQgXTsuU1plPnrpFjWdmpWrWKueKKy822rVsjAmDsuAla1e1tWpsjjzpShXZFGdDmz//CPPzwo3FvwwDdpXMnLVOwYEER+nkiQP+ZZ2aZ997/IOb18OaG668zn376WaYyCMzSxxxj8sugfK4Aog8//CjyvJkKp3igceOGpn79eqZfv4FRVzZu1Mgccugh5oEHpkUdP+ecs02DBvXMxo2/yrc8TAaQbw3tFBo9aoSCbsBM+fLlzaOPPmY++vgTBQi33XarfvMrLm9utm7bqoKjobSzTz751PTp3dP8smGj+XHdj+add9/VNjR48ABTrGgxAUZ/m29kkCongH7O3HmmogC8/AUKmO+++87wLBwLoybnnmN+/uWXUCAVVj6ZY7RNwCx/N9zQUvvI7wIij5Fv8758WxfQUl/jxo0MygiCksEJOqV2bVNS+nHtX07W38uWfWO+/HKB7t8uYPAPAQV/iZJUVJQ72tPCrzIG/iNECdn9z24zdOgILWv/GT5siJn50CN6f3ss0bZly6ul/Ic6YDM4btsWW3lpKgpmzRNqmKHDMu5buXIlc9WVV2S778V6RvoNyk6NGtVM9WrVlG9ff700VvGEx7P7/Min7j26mgL5C5g+d/ULVT6Ql/RJBkP4We344w3AjbZPu4AmT5qo7aNIkcIqR2i7EEoA/RoZA82c+bD5btUq3a95wgnmxBNrmjfefEt/23+Qi4DKt9+eaw9FtownW7duU0X1lNonm6efnhU5l+oOytott9xscov8eeedd/VyZNEtN99kypQpoyC/lBgAnn/uhUg7jScfhg4ZJErcYdL/t0UepXfvvgllWbx7nn12I3N248ZmnSjGADpkz6BBQ/U77dq1W8BzPXPjDdeLXHnPvPzyK5H7JrOTSn+vVKmiQXkDTDIGH3fcsfo87n22x+lnbrmwfZ7lUJHH9I1DGD9lS1vCCMT4ibxg/9VXX4+M1dddd635SuSHxQ+2XhSH777LaGP2GAoV34ZxFmWO+hhrnn/+RVOiRHFzlBiZAM/ff/+DyZBk9kq/jcuBl6TRvfra66Fl0Lw+kQHfDhx5ZJAoIpaOMEJINGp4loKshQu/Ciuix2rUqG7+/PPPmECMQued20SfCYC3vwjL04D+dylgwvL2hzwD1giemUYza/azam1h8LMESOC9Nm3arBYlOvrOnX9rw86XL58MnBeIBmnMSy+l1nFt/ddee7V2iI8++tgeimzvu39qRPAghO++e7x5TTrPxjhWQ6ysd7bvqHUgaBmgx0+4O1JnVnewKj719DNq4aLT7U+Cx1iUoPT0NB3s/xEgUVC0YRSKq1tcZb5dvlxByOEiSLAOdO/RM2Kt4DpLXbv1sLvmtNNOFSBwuQ5yWIu2inCYOnW6WkQLCEA7TIQJ33rqtAfNSSedaHbu2GmWLlsWub5Hj94GkL1KLHRvvPGmGT9ujPnrr7/UWgDAClqyuBDhh9ADVPFO9cXqycCJ4gAgfWbW7Ej9Wdnp1rWzWo5z585ltonlkgGE77FBwClWVpcQmI1lkJ8xY6bZI89rzzNo/ySWEDuIb9y4MXJZntx5zAsvvmQAfYCba665ytx77/16/owG9U2DM+pHytodFKfNSVjNy5crZ06qdaK0aaPf4O9Td5lLL7nILFnytblnyn22uv98e8QRR5g72rYxEyZOEmCy1YwdM1Le+QGxXNWRweUFs2LFyv/8mewNGTB79uxmjPBs2PARoeDOlrXb3Llym4vFisN3DMrhcaI8XnXVFWa7WLzGjZ9oaE8dOnZWOTNJ5MuoUWPNDwGLMJ6TbQ4g4j5Bi5m9d9myZQUYV5f+2cseimyxxqPMPixKaqzrI4Vlh+/So3s3UR4eVmugPUdfBcx0l/5JP3QpkXyg7DOzno2AXvfaePvx7jlnzrwI0GV8GDlimMqeDz74UAHovfc9INZqAed9epq80leef+HFeLeKOpdsf0cpueXmVuZ1kVNY6ODD0qXL9C+qwmz86HtXb1Pm2DJiFf7d/CqyDMs21sFjBNTOEp5++cUCVZx/EaXWUq2TTjJffBFtmEHR7NC+nXnooUcjQJDy5UQ+dOvaySC38L4w5rA/dep9ZtNfm/R+r73+hgd4lrmJtmh6fKBkCDcUIO/nn382jz72eOglDGa1T65lFos7KB6dfvppZuXK7+ICvDx5ciclzIL3SU9PU2EQ5hJYs2aNuanVrVHm3iuuaG4+//wLGeSnq0aIawrrAACQd0aL2PDLBm1s5zdtKkK/tu7v2fOvmuNxHQQbcPCZ4v1GeFauVMmEATxXeJ0gQpNG/nsMF028ewTPYfW64IKm5sSaNQ0gFV4NGjw0Ugzh0OqmG01ZAYcAyqD2HikY2OE9LmvezOC2XCIWj2kCnKxb+bzzmpjTTj3VHC0aOcLhwQdnRgAGPF6//met7bbWt5pixcVqJm0tn3TubWIJQNP7+ecMoUHHp21UrFhROvyngSfY9xPQUa3a8Wb13rACLESFBXSNHLHvPQsVOkQESD4BbqP3XSh7I2WQo53jNkdrRaHBfQtVrlxJBx74VkGAqUvc84H7p+jghSvt0EMPk7KlVLPHTbVOrIPZJb4TLkosEbRZwBEWgzBqIhYawOaPP/0kVpgTTQ1x10CHi+uGQRgXN3Tf/Q/oln8AgVhx+W6AVQBw/34Z1mzqCmt/COxNSbha8+bLaxiIsISulr74ggx0gGQASdWqVQzgctv2bRG3HwMl90TIo1jeO2WSPieu9QIFC0R+P/7EUykP2JEXlp2TJSyBbw14x3LAgI3i1a//wJi8da+PtZ/d5ycEpGOHO1UZHj16rISfxA+5OVYsNvCXcsOGj1R57YZ7uM+JRYQ+hkuxQYN6wuMCCryLS9/LI1Z/G3aAVYoBnPCMIH0uHoUgXS79HzcxCgcE4OGvrsj8li2vNd98842CnOB1Yb9Rrt56e04UuKMcMhNvAyEt9j72+mTlgy2f7DbePV05fZR4XODt2rXroqpGxo4dO8Fg7f566dKklYZk+zuAuUfP3urRGD5ssJk79x0FYlEPsfcH8iBMaeE78fyEQ6H0ue/FpaNog6IkwwsI93jXLp3NiBGj5Lt+q8fcf6gPUG/bkj3H9c+JxfVKUb4XLFwYGY9pG9269xI5kFvlD4DvppuuN1279dQx117P1lvwXG7E2D/66KNN61tviTqLy5JBz3VHUmDkqNGZOlPUhfKjoVjCPvrok0wfA/cblhhLxJQBMg6XARdC07TxNbYMg3sYSOM8LgtM7MEGyDncIY0aNhR3xYfmFaxdjnWC8u41xJOcKlp67z599Zl37tyhFospYrHYuFdA8Zy4faHpD87QP/aJIcJNgDsjO/SEDE64VAE1M2Y8JHyPjplByKGtAkb69R+Qibep3ptOR1zMn3IfNPgCwucRAnqsdSefDMId2t+pA+b7ooHe2a6t+ezzzzO1h+B9ATIdO7VXfqA5tpHnvvSSi80TTz6lQqOZxEcOGDBI2xCuFSy4ljJ4vFB/9uzVxx42xFQCZp586unIMYDHE08+rXFlABQEhbUuU4iB+jpxnQPEAI0MdJYAkrNmP6fxdvaYu90owBOAhpYNde7cwRwlcSDHH19VDCgZlgIstfXqna7g52Nxf9UU95UlBtNbbm0TsU7gLgEIot2GEVZZwHQ8or268Y58J9rEYYcdqpZNlLRe4mJiYD/rrDMEjBbRNgo4I2TB0rHiUkOo47Lr3KmDmffOOwIOl5oxo0eY/Pny22LqyqYMcX3w90yJO3zxpZf1PIDZgkJ7AaAWSibeF5DLH+5w3IYI/in33K3WcQaOf/b8Y1YJmF+1arXWSagC74uFne+JJQSqLW4/LJMjR43R35s2/aXbrPCTC2udnGFlsDLo5VdeVfcmcmvevHe0bv5Jtf5Unz9yI9nBWnrTTTdo++F5EoE7rgWE4RL98MOP1RW4UfpKkFq3vsXg0tws/MZVT4zeGQ0ywnOIabzoogslHOFb7acoCBBhC7EIL8GKlStV0agroTtYun4RhdglrKMoSFjiPvvsc/dUzH1APQBi8j33ZiqDu3yBeIgGDx5oHnnkMYOlzFIi+UA5XJe4nSHkLd6bRBTvnlyLJ6fOKbXFup5mJt49WerM7HlCgcBDUFXGjjCART1BSra/cx2y/Tb5vnxT+jAhRJaQB+lpaQou8wnv7P1xs8Nn4t2Qy3/99ae2OYAy/cuNP3VlNvW2vPYakQ0vhYI7ziPXeSa+SZAIFWrW7BJzshiEPv98fuR0UzEEHFO6tHrESgqAR37SrggPQfnA2wJ5gBdhWewdLCNdunaPKkB8EkJ8zNjxUccT/TihRg1t3LgVg8QgZC0guN3oYLhC7DEaQZCwmvzpxLzZ85Tt0PFOM//zL0ItS9OnPyiDQh518RKX8rbEiDwnbhbuFyRcUMS1WYCAlWjosJFRmg8xAev3Ajz3+t27w60mbplk9hnwBgwcbG5udaMZNXK4mTT5nqh4BToCFlEGNcz1Q4YOl064KZmqQ8vUrHmCqSKD5W1t7tD3RpBCFvhisXpbtGYEBIQmWlMsfTb+RQ+G/EMnxD28eHFGrCZxbeeff54CPL4Z9VavXt28K3EoQeEXi8e7YvAYdyluACxNDFIIIgvkN4slaa4Mygsl7qNRo7MUDN096R59P2LleI5ePXtEuQZ4HcDLkwIccUMTfwb16nVXlIsWCyQWQISuSC6Ju2mUKXbMdT3h1kKYn1yrlgD4ogpWiwtgnTZ9hgJ1XKsuCNObBv4BNN5w482Ro4BGLHAdO3XVwQmABmAC2GIZWPDlAi3Lb4BSWnqavjvwlH69W+pD2GMBJY4GsuCVfQD+ihUr1EW7S4Q8gxbB8lBhEdhBgIf1DrJ9SH84/3DeavwcxnVdsWIFwzfhW7mA2LlMd+0kCqyD1nvACSyWAEKsrC5lhZ8onlie3Tgx7vWKgKpml15s3nvv/YhSlWr9qT4/78Ige+01LbQ9Eldar75YzgTkJ0MoEr+KQnuJKFZMCHpd3Fkoz26b/FBCQfC08E0ZvLmfS1jEsKTwnRhgsarWl2cgRhNQGEYowIDfG6Rt0veqiUJkCbny1aLFaq1124E9H2uLdRyZ7QIMW5Y+cY8AP+TLTTder5NAJkl7spbsePKBOmh/PC+0XOSvBXh4Y4IeLYAd7SHRPZF7yCCMBjwTngc33ENvJv+sXr1aZYL9nWibbH+3QBDg+pkAJvrGmDHjItXzXJ06to86xknGYCauvCvtHHnBuyKvCYshLt/GNkcq2rvDmJ6enmaGi/UuFtH3AYphBD+x+iF3XYCHMnN1ixba9xgXkFXIINqwG5rkAV4YV5M4xuCRjLvFrYrBBFMq1g070Lrn33zzbf1JHEL3bl10n0D+WMHpaBRYBoKxIFwI6kczoEGGEfFxgAuAxHnnnSsN5RJDcGsYwANoLhLw5BLxBS4dKvdaufI795Du79q1WycwZDqRhQM/ickc4HbZZc3UukL8inU92OBuBPOokcNkRnNTBU1ZuI1eQhyUFVphdWzatDkC7jhPh8eim4iwyh4jFuGePfYpDH/9mWFZwZKGAEZ5uPzyy2TwfE3iDl+LDPy4Mn/fO/vPvc/uODwmtghwjDWyZ4+uoqj00EsRBDbuiOBe3K8E6AP4cIMjUOIRbTgW2fi+Sy65SAUP1leXeLcqlSsrkMM1AXgm9q2laJ5o1VgL2KKVIuBQPF4RPiRLTaU9EwLRr/8gcZ2W0LZC33vhxZcVkLgDOSAaZWHsmAwB/JXwq5IAe1xyBcW9CWhgn/jb7XvjH3mOAgUKmh49iPn6VwU9A8fMGdP0ERH8ywX8uWQteLSTINHW2rZtY7DK2sGXEIfly1dEZs+6zxy8PtZvNHmsIUFKlZ9cf4mAOOSMtWjYOgEql8q5U2RwQZ5AWanf1uduYz0/7aq5yABcaLjmkDsoTskSE9xQzD4VKxkhEVjAqcOdnPb1kq8ltjKjD5x6ah2DYs4kJYhYWCYFAfBwnROvyjfEYj1PJjiEfWMGadoyFmT6Dq53F+BRL9baVMAd16CI7ZCY2FgEcESOLFjwlXhAOujkgumiOFmKJR84P2fOvFCXPkH8uJJdgn/2vePdE5DIH+NaQelDLVpcqS5+ty72icvl3ZKhVPo7gPU4UeDmihLL+Bgknl3+z0TPPvd8pmOU/fSzz9S7FwvgoRj8KgqC7deZKpEDWPyY5AdIw4pHvS59t2q1eh3cYxgvbMhI+fLl1INkJx265TzAc7mR5D4CvGKFCtpIkrzEHCcxfN27dzHrRWNgsIhFCIBO4hra8+8eFUDRnzr6KlwjWIOiGo8Y+RCATc45R12ViQYG3C2AiHdEMAUDhO3dEOw2BYk9FtwSp4LbGkJraYi7SDR+OmkBeSfeK9GzBOsM+03jny2TPNBWAAkW4NmynP9WBkZikrJDPLfrTsOiF4vQ7tD8Hn/iyVhFIsdxy2D5iuWyRkvDWlpDrHjEN6GdPfbYE3o939nymNQo9evVU8sTExOYCEO7DAoHLkRoMMMWNx9AJ6hcoP3jdsUa4dJWSaXDoOMSv90UDJwDvMAvYrQqi5uckAHuU0LiNIkDZPCDRowcrQMYwc3MQOW+vwpgJRaRd+3UWQBTCDFw2MEj5HSmQx/ILEmsdLhacL/MmPmQWgCxCoS1QXdmKm0Vy8VDMx8xpG95VHiPBc0lQh/yCZjvJjEvO3ZsF7doZQUJw0eM1GJYMGufcrJ7SWTgtkDPngTc3iiWjM8EbLj9uG7dujLAztWg8wYN6kWC0+11Yds3ZQandZXS30jl85G4IYOUKj8ZpJA1Y0bvs3TYOvnWWM+x0lqAl2r9tq5kn3/d2h91NjIyy7qLbR2pbAFcgB9cl0FrP1Y5eGiJtoqFDTpM+nuQjq9WVZTjbdoO3HMoCYT43HjTLXqY9of1JZEC5dYRbx+3LzF2yIUw5dxei3KM9fXqq6+yhyLbRPIhUnDvzhIBv/wlonj35Fpc3DVqVAutJl2MF0FlIrSgHEylv2OYYDYwVuYKFTIDvFj3iHUc2U87ikWklUIWMgkoTNniOmT2BrFqlilTWuI865tPP/lMYrP38ZdwjJYiH91vjBGoRo3q6kIvIXGWeBnwGlgrq30eD/AsJ1LYYu0CbRN7lYgQ4A1EOF4lMxpXrVql8VyxtLQTxILSqtWNGtdGoOn117eMWf3xVatq3M/EiZOjyhDPdYTEjjAjNAh+ogoGfsQCdxTDzTtoUH+NISGeKgxEMAjSiKGmYj3DpcNMJYAhOciwqjFYMpBhku4t7jImFyAEEhHlSQOwdu06vTcDLPz/eukyvZQZaT/88IOeo8MRX0PMSXZokbgSbrmllYKeMhLrQM4kiOnvLgGqOIcwIlYqETHRpJPE4L322hvqPqXTAg6xorEl8BoLFvdP+yjNlJHAbUubN29StyO/mQmG++glifsi/osBmCB/wAydHE0VMMHABB155BE6AYNJMQxcnLeuO1zwBDwDjF0iru86Cfh2CasaoM1aAvnmpFzhGPE+H0tsKRopAgiLBoBp7px5WoUVhFgIXWIQRJvmO8fqG275RPu0Rf6uv66lefiRR9WVv0cCotf/vD7RpTrY15b2w4xMdbdJPUGqIxadddIWcX9DDKy8mwUJzNrdG4oYuRTQA5DEevvt3jppw+Teg6ezn30uUhaNnJhGrBx8w2uvuUae66NQcBq5SHYssIKPbW67VVNmxJr1714Xb5+6iA17Ryx17qDjXvPVwkXmXJnNj4IQNmPaLRtvP9nndy1t8epL9pz9bm75Nre1ln5SwLz5VoZXBYXKTqA4VgBv0GuCq5H0SkFvS/Xq1Uz7O9ul3K6JZ2WSnWttc5/P7sNvXNzI2OAkNp6Zd7Oy/UixvC3eC8ziyQdbN0H8fH9LyfTNePckRRHyh+9MvbjHrefF3oMt1nAURWKIk6FU+7uVQ8nUHa8M7R0XLV6wWESfBwzTzydNnqIhE2Flv1n2rbjSm6pi//LLr0YVWSNehukPzoxSABmbCoqMJXMHMpjv361rF62f2cdW2dr39aKq9D/COIBLFMsY7ohJkyZHOk5YWY6ddNKJpnXrW8weEf4vSowHsyxdLd29jo+EIEVAzJ79nA4YYowLJcBdt26dFWACBPZRLu04fSVPmo1r2Xcu63vMEMP6gqDC9bv2h7WaKsVNBIm7msELWiNAhxxoBOtXqFhB45TeEkHJbCDSStAhlwk469qlk+kvEwr4HY8Ayf369lHLECAKQPfJJ59EwAsTHLAa/iDPRczU3LlzVauLV2eiczwn9U2cME4H8jFjx0nqmH46WxJNHQshFjFmUuFuIVYqTHDcOyUDgHfs1EUHaDTuZ56ZLe/TWzU63K4IZgAegzqTeQiiByAgUKdJrKQl3MJ2wg18KFmyhM7WZFbg88+/qDFiLUTgjJRvhVudZMW0gw1inUuXmb4PC+gFnBMjNmL4ELXkYaUEPD8gbiYLWOz9GByITXKJZ2wi2q8ltNLJ90zROBEEd3p6WiRmNLeAE4R13nwZYoaZZ3YWsL2eLS5qgDKAMmhddMuluo/7CXc3M76Z1cqs1BNOOEGfj/4YJJ6Vvo1GjFWDwZmUB/O/+EJTKqCN4zpu2vRcaX+fBS+P/OZdwuj9Dz5Q4AjA/Ucs57iRl0o7GzxkWBQAuEAEPTkG+f78AfQGDuwncVArzJ/Cb3KdFZb2xzd3QyUQ8lia64m7kjZKEDsWtuwQAzZWsniDLZYY4lGzSwfi+bP6TEPkm1SuXEn7D4oXsuCtvSE0ZzU8Mwr4cI8gsLP3Ra6jsCUiYrAYX+hDKEsoGSTNT4aelQlUxPURikHMpSUs/MSuEkPON0SJG7033iyefLDXAyL4s9Tuzo5Rk77scXcb7564UlH6losimZaWpnF2jz2e2etx2WWX6uTARYvcsc29S/h+qv09WAugs1DB+G7hhuKZIj6YfsEEwrfnzDGkJIlHhN3ceuvNGgaDxw237ttvz426BDlL2qEvvlyQSQ6DGbBWu8RkCuJe8fg0anSWAmcmkcHf6yWnHtY9QgdylU2vGM8L6NZ5UO6T/8ymloj3goCMYUMHqxVrluTospnQ413DjBvSdhDbFgvYuddj9bACuXnzyySO7FxF/TRclxjY655+emTWnj2HiZZ3sXXY48HtjAenmvvFZWdRfvB8rN9YHBhAsMq99/77UZm+ickgH5PNXYSwBuBuFw2GBs3A7roQ2e8iAO8liYsid1siovMR2JtfrB3EvwAsLGHlIHdfPgES3CcRYLTXJbPFIhirPixhdhBOpi63DGACQGMtbO45rHpAhOCMQNLSABCxLGH14VuQqJXg7Y8FNFDe5THfq4yY/XlG+AJoscSz8x3/FuGBFTXYZqpVO14nTrz+xlv2Et2WlEGidu3apt2dHaKO2x/ERtGnwgig9O67mWNC6VvTpt4XiacKuzYrx2gXzD5D2DHQMhN6pwyg22VSh51pausltQizyS+68HwNgGfWcYaVob6myWGQJ7QCwYxyNWbM+MhgiqC/4vLLFKix36d3D7XIAcBc4ttglUlPT9OUQgzIQUsQ5XErY+F120bVqlU0RUrhwworaCYBNWXctkl/w8VDv54//4tsuS95DkvwMUx5sef31zY7zz9oYH91TxMDF49Im0Oi41Qsm7g165xySmRWOQrRKlGwmMAQj5jUU1qs/4DfYAwX/auVzP61lnBiAYkjpF+TDgerzWuScxVAkAzRZghJYPITAMoSoK5UqSME8G9RGYAssBRPPtgyWdnGuydWPCxfv4klz50MwH2Qtcxwx32KkSIZYOw+Xyr9nVWn6NMo5pawmvbs2V1zedqwGHvObi+Xfk7M4y8SaoU1NCzkw5YNbgnrqlCxvBh89oROfMTrRfgOID8RYeQAH1SQOlGKsTQzLkDwkT/kugd4SQI8GMegmMoH5ZqsEp0PEOBqZFmtK3gdAxcCO8zVGizrf/9vcgBhicJh3TuWC4AUzrkDhT2Xna0LTLNTT1avpU9g5WAbJmDpizwj/SYR4HFjZbL6PP66A8MB+5351skSsaRYTS0gIbccQCxo8Q7Wd+yxZdQt7wJ1W4brCUtIFcTY64Nb2iTZEE6T8AHGDKy3/z8RgJd0WliwyE2XTOhOdt4PpZI+7Y7n/IaPyRhjsnPv//JaD/BSAHj/5Yfx9/Ic8BzwHPAc8BxIlQP/pSEi1WeLVR7ABbDyRodYHMracR+DlzW++as8BzwHPAc8BzwHchwHXKtUjnu4GA8UZjWPUdQfToEDkonUk+eA54DngOeA54DngOeA58DBxAEP8A6mr+nfxXPAc8BzwHPAc8BzwHNAOOABnm8GngOeA54DngOeA54DngMHGQc8wDvIPqh/Hc+Bg5UDzHDz5DngOeA54DmQHAfyFC1WYkByRQ/OUkWLFpVp5VsP+MuxWgALmLu5yA74TZ0bsLoFma7Ju8WyUnv2/Kvrk7LCAbm0bO4cMm8HZzIxK6uxLEVE3iD3j2S/djUE51aS362oJIQ+O6n8du51qeyzEHjBQgVj5iMkYS3Z0MkNVSB/Ac0pRrZ9+/xkqY+XVPeCC5qaSnJ9vOVySLlQUnISkhcpyLN478JKG7S5YO65sGv4Lm4AMqlLeAfSK6Ryz7C6OUb77ylrqn4vK4GwAkVOJXIskiiVZMXBdV7tM9PGSTwdK4WLTZFhy8fbMqsPQGn/LrrwApNeLk0T3tpjbG1+OPYrSZJtkirH+uN++6P/54T+ZXnXUBK/Vq1aOdM61PCPPG82N5ctn9X2zKoH5FAj2TQEv/dH+6eunNQfeZ5UiLxsGzdszJTOKFYd5INkVQX6AonTD9SEDHJ2Ms64yfDdZzpD8jVukdx8bn848cSapnGjhmbx4iVu0dD9RPKfi1h/m/GJ1T5IS3PaaadqLlXyqfIHcS5ItN00yTO3RxLOJyOjyevXo3tXQ/qcb2TN4Xh05pkNdBUmVvTICpE7lSTH5MuLRW579rNoY3EpcJwcOReKkA8j8g7Nm/dOTIFD1muSo5JcmASkEHmY3IGI5LAM3vGIdUyzMgjTADt36qiN/a4+vXTplK2S7LVC+XJmqzz7yBHDNCM22e+fePIpTRp8003Xy/JWR8qaob/rKgt16tQxz0iCZwZZlpchkz7JV1kuK0j5BVCxagXZ3VnGaX8QOcjIDQjPeJ9WrW40LGIP+CwiIIj1CC2RX4rBnvIQwHqtDAzXSTLQp2UVCZ6bHFXuMjntZDUMBJKlY8uU1t3jJZGwJZJzPjjjIftThcRgWcKNVSp+/TVjSbDIyRg75Ei78847zF19+2u+KoRJPCHbu1cPTbxJsmyIZJisrnB72zujktzGuF3cwyQk7S6CiaXfrr3mai1LG4R/rKsaXOoOkE8i4DB6U7L8p5I8NlgHyWMZwGMRC5znyp3LvCvZ210i99dqSTr7vSSGRcg+/vhTUYvGu2UZ2ACyL7ywbxULbT/SniCSZyPQ6evU5RIAkz5b++STI4dpi8NHjNLffNe+sjrJh5JwGmKlgDy58+gqJ/wmyekHH35ogouSM+DWrXuarlpwqPCdJfe+W7kq5rJg1PV/3b9Yuu924SWrpNAX4RfgtljxYuadd97TBNrPzJqliXunynKELiXbnvUbiOLB8l8rV36na3nv2LlDq6onyh1r3w4aPFRlLrIB/tPfWUowY3uorvpSRPh7+OFFdP/woocblnZ0c8/lpP4IaCVR9XpJXE6CeFaAgb88//z5X4bK0vNEaWX5x2SJvJYfyXKTp0q+PNZ/Jtn2BFnWMhYl0z4Bi5RzqZyMLTv/3plp+UbGL5SiQvKtevXsoXIQ8AWx0k26KHAoARBpU6xsTEX+U5ak2fRBEk2zutEXkmT9JlnzmXWAIdb6XiqrKa1dm6EwcKx7ty6iPFcw27ZvY4FYUax3me49enEqJiFDSY7MUmN16pyiMirYx92LWemD5cVYKSkR0R5atLhSk6vbnIunnnqKJt2m7YdRsD17gBfGpZBjNJr8ssB4kI4TTQDNg/XmYi0PxuBJo77xhuv1L7cMVAiwrrJYuV1qiIXNjxBrWhhRFo1i2TffmKFDR4QViXusqAg2hADZ1OnYDCJkC3/lldd0mZU1snYpS2XZ5/9G7tOjR29z98RxuqYtQoGlc+icu3fvUmBCpwbkWYI/AAOW0kLQQ5deerEOctz/U7k/Sy5llQAekydNUMsj34HkoawKwHaVLCLvUs2aJ+jqA/YYgw8DNwPyK9LBuR6BhDBBg0TLqyZZzKdNnxHV4e31bDnf5Nx9S3RxLK90QAhNOBGhPSJsWAmCtnDD9dcZQD1L9cwVIBxG8BQL66pV+96PFQwggGF2qFq1jJUqvhEBj1XMZnRHyC1dulSsm5k1TJbLYWH2MOKdskPly5c3aPVhRLs6WgBg+/adMoFaBjiAJQAvEaH9fiZL+8C7EcOHahugLWzenLG8E+t+ss4pQG7Y8JGywPc1kSoLibUYReGHH9ZGjs2e/Wxkn+WloHvvvV+3LJFWQKzEjz76uP6+rfUtunX/waLcSCxgLEvGwMJ23bofdcH6iy6+0IwfPzFqgMsp/Suf8Axg/OJLrwggqaeK6dtvz9XBCDDCwBpGqbRnvsErL78qyxl2Nj169o5UB9C/8YbrdBUJa8ED0N1372QBBLvNr7/9an6VtvubKKasYsIykY+LIoicRdm0Fpuc1h95Qb5velqarl3OO/377x5dsovl8ZYsWRoF8MoLgIIXyGGsZWPHTZCVDc4zZ5/T2Pwr3pkwBQ0FtqG0N1bWQBbzPQ6V+8SiZNsnS1R27dopUg3LL2L9OloAG+3bpSEyfjHOvCHrlM+ZM1f7GuuUQ8h4lJehQwbqb0Ata0nbc8nKfxT4Th3bm+eef8FcecXlugINdSDrrXJXsEBBrdf9BxnIOEG7GtC/r6ytndl44ZZn7O/cpaOuv80KIrT9biI/kWWss+4qEoA/xkYURdamxyDEt2Nd493/7NZ+H5ShfB8MKnwrC/DwUIRRrPbsAV4Yt0KOwfxZs/YJdIrwAQYPGiBa67sRcBS89GJZiL6iuPpcMMcx1oxzG8DkOMveoGkdecSRYp3IvG5f8H5hvxk0aPAIY0sAHDSkJk3O1kMse4IFD8sSmkOpUiV1W1IsRhvEckjHAxTQeVkSDQHkLqXFklks0L5ZLIJ//vGnClvWLWUdRJbdAVRmh9Dkbmp1q6wlWkPWa73ZjBo9ToEZA0GQWIoIixBrBkIMyhfLgIm1ke/Ie+PmZK3HhQJsX5YlqLBWoUFi+g8jrETB5enySAfdufPvKBdq2LUcK1AgvywOnd9UFaCIBsc6grjDARisLZxbAMJGGZhsR+aa4gKU6dBYHy3xjaBE1l5bPmzLANy5UweDdeUTWdaKRa5Z6xdatGixeeTRjDVr7bWs8wtIToaWiYsCIZkqvf/+B4a/MGIAQ+jawdktA7ByLeHuueA+rk3aIS7vKffeJ/3vT1VagoKV6+jb58hgOXHiJK2G/sB1gF+obds2srTZq5E+gBIG9e93l27R7DlWvlw5/Y01nHUrLbEsEu4o1qFl4AEQYlH+8cefVLtnkKPNPv30LL0kJ/UvlkNkcCaMgUEOeUF7/FqU3JUrv5PlGWvY14zaptqeWWd7yNDhUcsSUuGTTz2j/dZWDnBr36GzylML+pBrgKDRIiesEm3Ls81J/dE+FxbkGTMfsj/jblEQcfMBEgAAvXp1l7b8lxk+fJR4CNqamiecYN4SIOcSnqRml16i4Irj8MqV4W7ZVNonYT/w31JHGWu+lfWJWUovjAh9QeY8/PCj+m3stWedeYa6UVn3PEipyP+lS5epYYJ1vX/+5WcdnwknAkB3aN9Oqy4jHpyPP/ok6jbWWsjYwVJggGYIoItRxr4PsgHF8kqRS0uWLJG2+JWuW0zZp5+apZbRMaNHmNdff1NlBHKeda3pJ1grKX+JYAD6D98c1y5LSXI/DBYooCj2FoQie1mKE08V4BVlFyDJb7yChC3Eas8e4PFVskiNRECXElfgqNFjQ2s45+zGpvlll+qHRuOF6JAcn/3sc9rBgheyLM5miYmzcVeUPbtxY1kkemyUuRswkmiQ3759RwR4lhK/PeZmaw4P3pc1Lu+4o40eBtQx4B8mDYhOgpsENzSDDQKdgRhrI6ZvS1gXb7zplshgO3z4EPOxgIeP9rqsbDm7TfX5uQ5Q2ua2W/W9u3XtrGAIYQBY41sAJhl4IGLnDtnrct0k/GTgtNaU99//UDsPFhlbvv+AQaoR/yHaMlRPtCzWLLUxRKyX++JLL+s5+0/evHkEFGdYf+yxWFvWYKXj8pwvvPCiCpBeYtpn8fhtAtoQGq+LVusCPEABHd4OWtQNOIWkeJYJwNtdLLRWmBCPWLJkCa0UQcH3d+MTixcvYa67rmXU/QB9uFl+C7imR44aHQHLqbTPqMqdHwhFFJMg722RfMLTWIAS1zOhCJZ/xBtatzNAJBk6U1zAUGlxH2OVyC9ABuK5XLK/7XPiRuR7zxNNHTpPNHGXsCwQVkBfZ8ADZNp4JZ53zpx5ao2xAC8n9S8AKa49+jDtkefdJiCLdVPDQLh971TaM4D3XMdinlcGRrmRDqzUd7W4rrC4o6BALojDTXV58+ZqxXKPa8G9/+Sk/ug+V7L7/foP1LEEyxBxeIAJGyKBBRP3bpDgP94Zq9BgcUJhD1sWLNX26d6rsACpEwRg0t8s4eFavHiJ/gSQ7BSFHU/LWgGH9FPoWFE8cc+eKMct0U8tCE1F/qMsofg9L2tK3yHKGEorcoI1W6GgZdHej+1ZZ54pIUufR7wF5cula8y0LXO2jMkXSqjK/Q9MVcWMMdKl1WvWqNXw2mtaiEX5N5UBDz44U4uMFGvleeeea5YuW2Z69+mr8gjg2blzR8Oax5MnT9EQh+7du0pfylhvHcMKy+TRt1Bmfv/td/OOyBXW1QbkQ7Hac+ZWoMX9P4k4AMpvcdUVavINE2q3t2mtPnkWNScoctDAfma6fGSsWrg5Y7m6WrW6UcBHAUHz4zXe5xpx7/LR0UpcanNbawU27rHgPp0KAIQAxoR8pmhIJ9asaVZ+Fz241ZNFrvHpP//8i1oFIKPtHe3VRTtm7HgN4L3uumvNA/dP0YGtcuVKWqcFP1xkhQb7gBVAC8CL41jScI+hIdlFt1N5fuoEIHeRToCF6D7hKRrZxAnjzPBhQxT4fbVokVr0KAuhYR0trgOIRe7LigY0ZHCG6V8Pyj/vCVBlsHKpuABsLHrlxPIC+CJeJRYB1ulkYcSAD99dCyMCjThKLCDE7LW6uXUEEIfVAUDAfI9LCnfDX39tioB6q22GXZfMMRQIYkpx1QPm+sni3tyrRYurxOoxwixc+JVaBrB6IpC7dO0eVe0ll1wkArqmGTRoSNRx+yPV72uvC24bN24obWiPrk8ZPMdvtFgsxkGiDXboeKeZ//kXurA3QhRK1tpn67PxTYQDAGbmz/9CT2FRcylvXgEgQjYmtYK4aXDR2t91TqkdKY5lDysqAAWqUqWKLlxOe7GEi7GoE9eUk/oXbZvBcqnEETHoAuTZ37xls8GqHYtSac/PixL0yquvxapKLTHWahoshHzCUovVPR7lpP4Y7zljnUOmQY8+9kRUHB7eld27/8l0GUr+uh9/1Pg0wob4diioTLhDvlgLelbap3szjB6rV62OxNJVF4CC58ECPCxajIvQbaKwE34ElS5TWoH6VVddqb/554Gp082W1atTkv+VK1UyTcUjBZ0hYx7hRQA7+q+NfQtamVFYr5WQjBpiacOihnzFSkZ5YoPd2N+PxWjx2WefqTy2CobeLPDPQpGdKJiWCMkpWaKkWKCfNm/tBZqcw3iC16n5Zc206IqVK82trTOMLY8+MlNxg1VUsHzS/z7fK4ds3WzD2nPs3uhe6fejOEBjwOXJx0Mzh9mu5YXC3wgQef2Nt0TIrNZrf5dZjyB9TL0jR42JOdBMlQaNuX3woIE6G/XuSZMjg4T7EKNGj5G6oq0I7nn27aDAwPGSxMug6cUirDmrpFOGEWAE6xzEjEssTQAASzS4dnfcrrF3xYoWE83tcG2E5UTzYfYwrmje350gksrzcx8C5LdLp5sy5T5xb9cVDT2jMwBcERz2Xe0zobEBwCDA5msSp9VDnv3VV16T2b0rzF19emrHsuXZnnZaHbVKAvAg3Ojl0tPYVXeHFQ56QP7hvXfFAHiY9dOlQ98jz2uJOInPJQYMSgZooDiUkRiNIyVuAyEOMUMT0GjjxvRgiv8gCDp2aC9X/SsC9Q+N7SQ2E1or1j3AEC4CAumJKfs4BORiaabNxKJUv29YPVgcEHpPPvl0KL9oX3wDXERBatbsEn0PK5hxz9J+INoFPHTBd/B6zjGpiOsgLB8QfCohA8DzL7wQNXOx0F4L/cwZ07Scgg8BmUwGgHLLcz4vgyjE/fltte9TxQoTBDNYyomNhXJa/8JyzyQsl+A3NHfOPPdw1H4q7Zk2aEMsoirZ+yOedZgJVD+tXx92WdSxnNIf7UPR1lG+iYdORICFrjJxj3ZqlRB7DbF2WMiChJWeSULEjD8wdZp6PJCbtL/rr2+p3hZ+p9o+3fsAIvESEc9mZXIvmSgWJieZrHP//VP1ciaPjR07ShTGoXJ/+sZvUf0zFfn/twA5woLwMEDcg1AagC+GCgi3p1W+UAaZ8AGwYswmRg7DRnlx8dNG4DVlGL9Q8KxFkcluuURZC6P1P/2kITD2HG0SrxP0w95+bc+xJS5RbhFK9pvUqFHdFJOx1Xr3goXD2rMHeEEuJfhNYGunTu0FsPwpDXK8mn979uhqBgwcEhUrMk/i8lziA2IteuPNNzNZ49xyNKIhQ4abPr17qqXHaj1uGfbRgrJCP4oGZzU1ez2/g6lisJjR0YkXxEJCI4cwo7cQDYtJIbg9iRmhAa4SIPuXgD4GfTonAb+FCx8WCd6397LbVJ//ObEuwsMrr7xc45pGjBxjCM7FVWQFia2bLbOFBdfqO2AOZ6bYC1IH5nVckIBz6561151cq5YIvX3WzXVr10nQ/QI9jdsjSIC0MJANMGkmE0wmieXVEkoBWuMTTzwpky2OkRjHUlEg2ZZzt9+LIGBQRIBbQFhLAsexqMXq5O71sfYBqrj8y5QpLXFgjcyWzdFuZiyvQyQ2DGsjMSJBAnBgwbLujuB5fqf6fYN1MAu6T+8eZr1MgMHSGkb1RRDjFkQzj5AISayLTc45x/TrPyAySYG2XEAsohCWbMB8rAlLxJhe1zJjIIjUu3eH2Dr6BrPw+HtK4sEYGIgvw2qE8gZddOGFatmaNXu2/nbr49utknACrHz/iNu3SJEimQbpGidUl5i2pXptTutfgF2s6Onp6fp89h8AK+4j3IZhlEp7JmYp1qQb6kYOxyLuU69ueCytvSYn9UeeiT6FdWbYsBH2EWNuiQ8jvOOll1+VSQTNM5WjrTPWIIdcwwOeIWTo6DHj1NVnL5z/xZeqzAFC6E+ptk9bD9vLJCQJq7krkwn72CEWX5eI8evSuZO5o1177aOnSJthrMMYgFwnA8Prr78ZuSQV+Y9R5QoxZmwUz0TePHkN9yJWDkulleMozpYqV66sYHL27OfEyzNAY90Zx/iDl1WrVFYluO3tbVSmrJVxAUJOPjhjpspJWxfbKlK+Vq2TIocIZcAwwqSkJhLXS7x1kGjvblYH9zwgnrADjEk8y6OPPe6e1v1Y7dkDvEysCj9AB8Rvf4XEzqxatcpMkOBrOgIWGpA87kMCpqMGG6kK5I8Wf62k6ABQvPDCS+E3cI4SlwN4HCQpOG65uZW57/4Mc7ZTJMu7uIPo+C6h2RDj84AEbEI0zvaSygPT8eZNmyWW7pNILNo117TQwWjlyu/EIrIPZGIhdInZbLFm07nlkt2n0+LiadSwoaYlIRZhiliXgvx26xs8ZKjkwqtkTjzpRD2Mu7V588sMMxQHSMydBU2cxGIC4ClZSsCfWPxIyfG9WLPimeAB41iyeC7aAqQpcSTfIBMpFi1arMf4p5EAqWUCNAG/aNAXX3RhQoCHkOzatUekbixWl4ml5J577o3Uyw5CqLcoBNOmPRgaTxNVWH7wrLj8iStD4L/2+htRRZiaufpymgAACgVJREFUD4WBO45jreGdg4oC5/YHodljnVgvrmxmkrqDha2fiSlnSm60iRMn20O6vfSSizVFzngB9DbejhO4FHlmwBlKASlz0HixROOOoX8TM5Qh2H/XeCYGRN71WYnj4XqImZm4/m2804aNG/R4HbHsET6AGx2yKT3sb6wKYjCNEOET9CUsUczGtW0ReXGDuOSx1L7/wT5gm9P610knnqjt+Ku9bbysKH48O/LQxg1GXnbvTrLtmeK0rXjtC/dZLKJtM8P/mqtbqDsszFKbk/oj74HViwlDZUWRJt6KMcC67OErFk2yGcBDZnTPnfuOzr6/ShTeING/sSwxoQDQwsxwCLco7dy2NXtdI4kLpl4bA8rxVNsn11StWkVzChLP7BIWRdd7wzn66SeffhpRwJjchsWcd2bWM2Dq008/V8BH+VTkP+MZIAsjy07579Q6kuLrmdlyr+0RWYdSZYnjyHE8Zyj01v1JPCBt6JVXXtP0Ki8LoA6+B2EAxDS7xHUuwEN24Llh5jAAj29gCdnNZCsmmITF8tMOaBu4aIfLzH7kV1h4Tqz27AGe5XScLUJ4wIC+moOMHDdvvPlWZNChM42TQWjYsMEaK2XzPjGYoMkSC1ZKQMO9IvhIFZIs0ckn3j1ZLQk0WDr3/iDAadAiwqBFI7K0fPkKnY1FQlk6HNqFjXdB2NBA8+aTNCn5CmucBY0wSH/JjC6bLiV4Lqu/4fXy5cs1bmO+dBhm7BJfQVAvGqubC497EMyKxYXJFPCwubh1tbOIZkYKDAQKgz3vc3vb28zcee+YV199XQUjgzhxFljb6KAIQHiAa5TngOjYG2WAnzB+jMZQFJU4w1oCJgm0dwdkOjGxbrhFICxoBNT26dPTrFv7o1rpaGOkn3jkkce0jP2HewFEsFZVqVxJtXYrgGwZBPYyGdS6dulkEK5h38OWDW4B+xdddEHU4VhuBwAmFl2CoLGI7q82aW+Oq4jJLcyUxi08ffqMTIMRZQF33QQAvi8pW5hpuY9yKdjtK/GEAFeXcEVDxB1hAb3v/qkK3ggtIL1GHnEL7ZSE1cS+oNh8KYKeto6gRmu2+Q9JCYE7lvOWSpYsoW6usNl/tgx1uYRLlnsyEYochwyCBG5rnj0pOlis+Dbuxr3O7ueE/gUYXiJWF4jQE5QkBh8mJNHfwiiZ9sx1tAGUs1jEDPhYxD36yySETh07aI5BBmFmQGLJh3Jif4RvzKLEM3KDuEuRu4AJ5BWAAdkzYOBgnaX8jSgS/HGcdsWfBYO835Kvv9Y6uGbZNxnvzHHKMGsfRRaZR98n/howBPizco2yqbRP7n/eeU0kbOYy7bN4diAUfLwl3Ge94zLH1VhFwODMnn1kpvrZomgerWVJjs/kDqzhxK+2FCVs0qR7tC7+4fmSkf+VKlZQuU66GAgDSfny5eS754u0qeKMC6J00XexWk6bNl1BMQofPEdeIxcZHwhJgoLgjmM8/6a9Sh2/IWa5usRs/ZkPPRI5BO8J9SAFCmlT6EekZcLyHCSAdrt2beU5vtW+RW5NQN4ff/wRAavx2rMHeEGOhvxmgJ/1zLPqhoSxQeLYvVPuF7ff1sgpEm7SWZnC/rZY7lIZdG0ldGLSlrid157L6hbBS6NyyWqH9hgDHELaEhZIGiXEoMNAzx9EcG7YuzFBAeAVFD56UTb+wWpX9/TTNN0IWhhCjHiTVatWZ6oVK6K1zuDyXiGAlZnEaPRXiGuD5M8kdv5R0sjskUD+WZIGB6DIhBOsbADfO9rerlYWtGtAXv8BgyOCkO8yaPAwc9ZZZ6gGiHB4UuoLplOhLaBF01kh2lPv3n3NKafU1pQzJGBFGBFYH0YIpzVr1hjiM2NZ1WaJFQjtHwDybQjgDquXY7gIdwjISETw+eZWNymoGyhxMmjU+5toh7+IS7abgFzcK7EIq9lzYlWzM1ZtOeJVmcACf4NEO8hwdWe4c7HM8odwtAMlZVzi+wIEAV8QQh8LMN/YpcKFi+i3xXJkCcsyPIMua3apAkAUQUs8I1YFS9y7UMFC6sJfJKApzOpky7LNCf2L4PP6DerpYwG46DsQsoF4o1gup2Ta824B3TZmUisN/EMyWvpjLMJ6i7IDeMGVhvJkKaf2R1yU/GEcoE3ynOwDbGgfVkmx7/GvyDFCY2hnLi+QY7j3Sa8UDJVA9pPrEhmFLGdyGim67LezdafSPrl/VfEMEbfmxinTJhrJ2EFCevqlJZSsD0U5Y/bu6SLL84gbFavvBunzuPnp+4xTzCzFNblVvDWWkpH/5PbE+k8GCgj+kZaE8KRgHDphFlj6SJdlCaMA7nIs9+QMdHlry9gtdQfbKX0/FvFc8JZneeHFlxRAxlOUeV/GCSZ1AuwAeH/v+tuQGcJSvPacq2x6RcdxYC/539kSW+Y2voP5zREWAK7gAEgH5Xi8hpwqX/Y3sEv1/ky93yYDjh0oERjBjoTVjHfGAgYPbNlU7/X/a3kEBm2COD+XAFoI/GB7IM4jOGC41x3s+4BBQF+QL7w3ClDYcc7BY66LJ/gplwr9X/evoCyBN/wBRHg23Ij/y20llW/py4ZzILttHHAIuQAx/E6Zj2LFS9Rfsf5hnQv2e/oG402YxS/znQ7sEQ/w/ocA3oFtSr52zwHPAc8BzwHPAc+BnMKBzNM5csqT+efwHPAc8BzwHPAc8BzwHPAcyBIHPMDLEtv8RZ4DngOeA54DngOeA54DOZcDHuDl3G/jn8xzwHPAc8BzwHPAc8BzIEsc8AAvS2zzF3kOeA54DngOeA54DngO5FwOeICXc7+NfzLPAc8BzwHPAc8BzwHPgSxxwAO8LLHNX+Q54DngOeA54DngOeA5kHM54AFezv02/sk8BzwHPAc8BzwHPAc8B7LEAQ/wssQ2f5HngOeA54DngOeA54DnQM7lgAd4Offb+CfzHPAc8BzwHPAc8BzwHMgSBzzAyxLb/EWeA54DngOeA54DngOeAzmXAx7g5dxv45/Mc8BzwHPAc8BzwHPAcyBLHPAAL0ts8xd5DngOeA54DngOeA54DuRcDniAl3O/jX8yzwHPAc8BzwHPAc8Bz4EsccADvCyxzV/kOeA54DngOeA54DngOZBzOeABXs79Nv7JPAc8BzwHPAc8BzwHPAeyxAEP8LLENn+R54DngOeA54DngOeA50DO5YAHeDn32/gn8xzwHPAc8BzwHPAc8BzIEgc8wMsS2/xFngOeA54DngOeA54DngM5lwMe4OXcb+OfzHPAc8BzwHPAc8BzwHMgSxzwAC9LbPMXeQ54DngOeA54DngOeA7kXA54gJdzv41/Ms8BzwHPAc8BzwHPAc+BLHHAA7wssc1f5DngOeA54DngOeA54DmQczngAV7O/Tb+yf4DDuTKlcvkzZv3P7iTv4XngOeA54DngOfAf8eB/wfMcKPquha6zwAAAABJRU5ErkJggg==;" vertex="1" parent="1">
                    <mxGeometry x="580" y="280" width="377" height="132.43" as="geometry"/>
                </mxCell>
            </root>
        </mxGraphModel>
    </diagram>
</mxfile>